<?xml version="1.0" encoding="UTF-8" standalone="no"?>
<!-- Created with Inkscape (http://www.inkscape.org/) -->

<svg
   xmlns:dc="http://purl.org/dc/elements/1.1/"
   xmlns:cc="http://creativecommons.org/ns#"
   xmlns:rdf="http://www.w3.org/1999/02/22-rdf-syntax-ns#"
   xmlns:svg="http://www.w3.org/2000/svg"
   xmlns="http://www.w3.org/2000/svg"
   xmlns:sodipodi="http://sodipodi.sourceforge.net/DTD/sodipodi-0.dtd"
   xmlns:inkscape="http://www.inkscape.org/namespaces/inkscape"
   width="192"
   height="256"
   id="svg2"
   version="1.1"
   inkscape:version="0.48.5 r10040"
   sodipodi:docname="application1.svg"
   inkscape:export-filename="/home/hhrutz/Documents/devel/Mellite/icons/application.png"
   inkscape:export-xdpi="90"
   inkscape:export-ydpi="90">
  <defs
     id="defs4" />
  <sodipodi:namedview
     id="base"
     pagecolor="#ffffff"
     bordercolor="#666666"
     borderopacity="1.0"
     inkscape:pageopacity="0.0"
     inkscape:pageshadow="2"
     inkscape:zoom="1.4"
     inkscape:cx="219.93467"
     inkscape:cy="76.039678"
     inkscape:document-units="px"
     inkscape:current-layer="svg2"
     showgrid="false"
     inkscape:window-width="1440"
     inkscape:window-height="834"
     inkscape:window-x="0"
     inkscape:window-y="27"
     inkscape:window-maximized="1" />
  <metadata
     id="metadata7">
    <rdf:RDF>
      <cc:Work
         rdf:about="">
        <dc:format>image/svg+xml</dc:format>
        <dc:type
           rdf:resource="http://purl.org/dc/dcmitype/StillImage" />
        <dc:title />
      </cc:Work>
    </rdf:RDF>
  </metadata>
  <path
     style="fill:#ffffff"
     d="m 149.10322,3.1155291 c -37.89482,0.136 -75.78976,0.22644 -113.684733,0.30095 C 24.545029,15.040049 13.49509,26.493379 2.492315,37.991799 3.067388,96.706559 2.329339,155.45018 3.949811,214.14532 c -0.374993,13.7517 12.676489,21.8303 20.835576,30.7969 3.079628,3.9211 7.292938,5.8881 12.223096,5.6844 36.585347,4.0197 73.913587,4.4512 110.570987,1.1704 14.0722,-0.5829 21.61878,-14.2497 30.11056,-23.641 7.46813,-7.9048 10.25265,-18.3742 11.03806,-29.02565 2.28392,-25.99236 1.01075,-52.22658 1.53591,-78.31161 -0.4503,-27.879701 0.95276,-55.909151 -1.21213,-83.696361 -9.14536,-12.66516 -21.35231,-22.84348 -32.16429,-34.2409399 -2.59479,0.078 -5.18957,0.15604 -7.78436,0.23407 z"
     id="path3260"
     inkscape:connector-curvature="0" />
  <path
     inkscape:connector-curvature="0"
     id="path3262"
     d="m 37.151894,255.15382 c -5.829489,-1.0772 -10.10778,-4.2719 -21.790357,-16.2717 -8.9739363,-9.2176 -11.0650146,-12.0125 -12.6635618,-16.9259 -1.77101417,-5.4434 -1.94410965,-12.6103 -2.30634683,-95.49215 L -4.2876e-7,36.857069 10.405198,26.004069 c 5.722859,-5.96916 13.40019,-14.0349 17.060735,-17.9238899 l 6.655538,-7.07087 19.844399,-0.74321997 c 10.914422,-0.40878 26.999384,-0.33868 35.744364,0.15576 8.744979,0.49444 27.479906,0.63449997 41.633166,0.31123 l 25.73319,-0.58775 15.84001,15.86235987 c 8.71202,8.72429 16.58459,17.44626 17.4946,19.38215 1.46412,3.11456 1.60962,12.54752 1.26395,81.935231 -0.24593,49.36465 -0.83577,82.09819 -1.59211,88.35615 -1.8365,15.195 -4.77814,20.5525 -20.30498,36.9804 -10.55962,11.1725 -11.74375,11.5912 -35.54793,12.5714 -23.83453,0.9813 -91.637671,0.926 -97.078236,-0.079 z m 0.01194,-71.47762 c 0.04209,-0.75021 -1.11597,-1.82171 -2.573466,-2.38109 -1.51437,-0.5812 -2.649994,-1.86908 -2.649994,-3.00526 0,-3.23351 -1.272425,-3.5865 -3.910391,-1.08481 -1.911716,1.81297 -2.765016,2.05962 -3.73563,1.07982 -1.946392,-1.96481 -2.953954,-1.51536 -2.953954,1.31769 0,4.11017 1.016583,5.78379 3.168157,5.21582 1.412475,-0.37287 2.460559,0.43481 3.697473,2.84938 l 1.726231,3.36975 3.577522,-2.99864 c 1.967637,-1.64925 3.611959,-3.61246 3.654052,-4.36266 z m 27.168867,2.46807 c 2.017227,-1.54019 2.013358,-1.57168 -0.19761,-1.60504 -1.240364,-0.0187 -2.849016,0.68824 -3.574785,1.57102 -1.801161,2.19081 0.915518,2.21531 3.772395,0.034 z m 108.799339,-7.20322 c -1.00952,-1.01907 -1.68561,-0.89698 -3.13456,0.56607 -1.6152,1.63089 -1.64756,1.99017 -0.25744,2.85802 2.26045,1.4112 5.2212,-1.57757 3.392,-3.42409 z m -25.55257,0.0731 c 1.62345,-2.30151 2.06102,-3.83539 1.39717,-4.89776 -1.34552,-2.15329 -2.82246,-2.02732 -4.06556,0.34678 -0.58081,1.10922 -1.92416,3.34094 -2.98522,4.95936 -1.92792,2.94061 -1.92747,2.94258 0.68034,2.94258 1.71401,0 3.4207,-1.14996 4.97327,-3.35096 z m 20.04058,-126.657531 2.64999,-1.52922 -2.64999,-0.004 c -1.4575,-0.002 -3.57591,0.70308 -4.70759,1.56713 -2.03679,1.55513 -2.03679,1.57063 0,1.5331 1.13168,-0.0209 3.25009,-0.7261 4.70759,-1.56716 z m -17.55298,-3.26318 c 1.25999,-1.94119 1.77079,-5.06206 1.77079,-10.81918 0,-4.45006 -0.24143,-8.33475 -0.53652,-8.63263 -0.29509,-0.29789 -2.70929,-0.78883 -5.36489,-1.09098 -4.14909,-0.47209 -5.20416,-0.17003 -7.49956,2.14711 -2.39573,2.41839 -4.83857,3.72157 -10.15721,5.41854 -1.18819,0.37911 -1.71044,1.81681 -1.71044,4.7087 0,3.8741 0.19223,4.1361 2.77044,3.77597 2.20166,-0.30753 3.15207,0.3033 4.62925,2.97521 1.72575,3.12155 2.15423,3.31182 5.9862,2.65828 2.53384,-0.43214 4.3982,-0.26163 4.82875,0.44161 1.19036,1.94429 3.42927,1.2736 5.28319,-1.58263 z m -70.232946,-5.64028 c 0.398136,-0.39974 0.02862,-3.7458 -0.821052,-7.43569 -1.535767,-6.6691 -0.861906,-10.9466 1.724478,-10.9466 2.257678,0 0.80987,-3.29029 -2.687253,-6.10705 -2.040474,-1.64351 -3.70997,-3.83085 -3.709991,-4.86075 -2.1e-5,-1.0299 -0.71553,-1.87255 -1.590028,-1.87255 -1.911314,0 -1.969041,0.48637 -0.365392,3.07853 0.982978,1.58888 0.750383,2.96835 -1.17876,6.99116 -3.450493,7.19522 -3.37588,18.39748 0.141012,21.169 2.339234,1.84346 6.64311,1.83531 8.486986,-0.016 z m -28.813795,-0.66365 c 0,-1.6063 -1.903051,-3.31391 -2.745468,-2.46351 -0.739324,0.74631 0.724372,4.0054 1.798879,4.0054 0.520624,0 0.946589,-0.69385 0.946589,-1.54189 z M 43.92123,21.058239 c 0.245302,-0.44139 0.752732,-2.0993 1.127623,-3.68426 0.571424,-2.41585 0.209533,-3.11474 -2.23844,-4.32291 -1.802751,-0.88973 -2.799639,-2.14677 -2.605338,-3.2852399 0.413202,-2.4211 -2.537263,-3.50563 -4.671882,-1.71728 -3.559088,2.9817299 1.200047,13.8122099 6.069369,13.8122099 1.029966,0 2.073366,-0.36113 2.318668,-0.80252 z"
     style="fill:#ffe22d;fill-opacity:1"
     sodipodi:nodetypes="cssscsscssscsssssscsssssssscsssssssssssssssscccscccsscssssssssssssssssssssssssssssss" />
  <path
     inkscape:connector-curvature="0"
     id="path3264"
     d="m 84.225881,255.02112 c -2.08439,-0.6091 -4.234468,-2.4043 -5.65144,-4.7186 -2.617982,-4.2761 -4.377228,-4.619 -8.184919,-1.5955 -1.939022,1.5396 -4.300177,2.14 -8.416218,2.14 -7.224478,0 -11.643333,-1.8952 -15.897513,-6.8183 -1.844996,-2.1352 -3.841967,-3.882 -4.437713,-3.882 -0.595746,0 -2.425196,2.528 -4.065444,5.6177 -2.366925,4.4585 -3.595913,5.6887 -5.95629,5.962 -2.556508,0.2959 -4.665233,-1.3565 -15.020804,-11.7704 -10.386622,-10.4452 -12.3062446,-12.9257 -13.9295322,-17.9998 -1.728468,-5.4029 -1.914841,-13.228 -2.27437943,-95.49215 L -4.2876e-7,36.857069 10.405198,26.004069 c 5.722859,-5.96916 13.401954,-14.03808 17.064657,-17.9309399 l 6.659459,-7.07793997 18.250482,-0.33451 c 10.513315,-0.1927 17.801107,0.0629 17.190485,0.60302997 -0.582998,0.51565 -3.904372,1.80654 -7.38083,2.86863 -6.318887,1.93048 -6.32011,1.93167 -3.974991,3.84859 3.021297,2.4696599 3.007165,4.4936499 -0.02832,4.0564799 -1.377719,-0.19841 -2.537806,-1.24012 -2.764059,-2.4819799 -0.812936,-4.46208 -2.328983,-5.12042 -10.376626,-4.50602 -9.686415,0.73951 -12.045085,1.97299 -12.045085,6.2990099 0,1.82752 -1.018833,5.5423 -2.264074,8.25508 -1.245241,2.71279 -2.761999,6.02547 -3.370573,7.36153 -1.218653,2.6754 -0.350581,4.09334 2.87104,4.68964 1.103509,0.20425 2.376565,1.09364 2.829014,1.97641 0.452448,0.88278 2.224104,4.45801 3.937014,7.94497 2.247451,4.57512 3.742401,6.38663 5.370498,6.50772 2.597981,0.1932 6.527044,3.44211 6.527044,5.39715 0,0.73021 -2.392057,2.87716 -5.315682,4.771 -4.093496,2.65165 -5.982292,3.27745 -8.21498,2.72178 -10.54402,-2.62416 -12.969276,-1.6673 -12.969276,5.11691 0,2.50992 -0.539769,5.10836 -1.199488,5.77433 -2.32947,2.35151 5.608671,4.51819 13.9631,3.81115 8.570727,-0.72534 12.176473,-2.88286 13.511814,-8.08488 0.638514,-2.48742 1.670888,-3.56846 3.988018,-4.17599 1.719562,-0.45086 4.794577,-2.22689 6.833365,-3.94674 l 3.706888,-3.12699 -4.026089,-2.39793 c -3.503203,-2.0865 -3.943111,-2.7793 -3.387185,-5.33437 0.456229,-2.09686 0.168652,-3.1186 -1.005795,-3.57354 -1.048271,-0.40607 -1.6447,-1.98125 -1.6447,-4.34369 0,-2.76682 -0.537501,-3.87879 -2.119995,-4.3858 -1.165997,-0.37358 -2.119995,-1.61659 -2.119995,-2.76226 0,-2.20902 5.995892,-8.38875 8.190545,-8.44169 2.012772,-0.0486 4.172061,4.12044 6.058885,11.698 1.886778,7.57737 2.426895,8.18394 8.157709,9.16131 6.142325,1.04756 10.159896,-1.59834 10.994538,-7.24083 0.370543,-2.50503 0.187598,-5.84145 -0.406562,-7.41429 -0.831717,-2.20168 -0.727646,-3.15512 0.452258,-4.14362 2.124755,-1.78008 1.936372,-2.96051 -1.117449,-7.00218 -3.194112,-4.22733 -3.204309,-4.32409 -0.529999,-5.03005 1.767525,-0.4666 2.119995,-1.45954 2.119995,-5.9723199 0,-6.05328 -1.674997,-7.82622 -6.51202,-6.89282 -1.561059,0.30124 -3.122446,-0.0239 -3.561889,-0.74162 -0.602047,-0.98334997 4.928872,-1.13482997 23.99069,-0.65703997 13.625216,0.34150997 27.987236,0.63049997 31.915606,0.64219997 6.18522,0.0184 7.10864,0.27222 6.88999,1.89381 -0.40739,3.02115 1.72621,3.17998 3.12557,0.23267 1.20524,-2.53844 1.83687,-2.72602997 9.98266,-2.96466997 l 8.69602,-0.25475 15.70487,15.72701987 c 8.63768,8.64986 16.43463,17.27942 17.32655,19.17682 1.40775,2.99469 1.62169,13.3639 1.62169,78.601761 0,44.84727 -0.42744,77.8985 -1.06,81.96303 -0.58299,3.74609 -1.55986,10.00128 -2.17081,13.90048 -1.31612,8.3998 -4.86059,14.1467 -17.9113,29.0409 -11.83667,13.5086 -13.37711,14.2072 -35.03776,15.8907 -20.24357,1.5733 -46.716711,1.7296 -51.594236,0.3044 z m -32.270674,-28.9285 c 2.109309,-1.256 4.847942,-3.4746 6.085852,-4.9301 2.748322,-3.2317 6.426391,-2.5226 7.408698,1.4283 0.359916,1.4476 1.522163,3.1008 2.582775,3.6738 2.919859,1.5774 11.237755,1.2623 12.975154,-0.4915 1.767451,-1.7841 3.344133,-10.229 2.117589,-11.342 -0.459265,-0.4167 -3.128477,-1.0555 -5.931598,-1.4195 -4.58822,-0.5958 -5.358223,-0.3768 -7.719781,2.1955 -2.451478,2.6703 -2.739225,2.7402 -4.395183,1.0686 -1.655958,-1.6717 -1.647664,-1.8805 0.126706,-3.1903 1.775681,-1.3107 1.721059,-1.4831 -0.843222,-2.6625 -2.087314,-0.9601 -2.741897,-2.0498 -2.741897,-4.5645 0,-1.8169 -0.506282,-4.25837 -1.125072,-5.42552 -1.62521,-3.06548 0.587518,-9.40546 4.495491,-12.88065 3.079083,-2.7381 3.112547,-2.86343 0.949389,-3.55649 -2.560469,-0.82035 -12.053603,2.05763 -13.802022,4.18429 -0.640965,0.77962 -1.360959,3.40193 -1.599988,5.82735 -0.239029,2.42543 -1.418039,5.80404 -2.620023,7.50806 -2.134811,3.02646 -2.289902,3.06726 -6.69657,1.7629 -4.747251,-1.40517 -8.102028,-5.43909 -6.796665,-8.17257 2.510961,-5.25805 4.99204,-8.16695 8.432213,-9.88619 2.157805,-1.07837 3.923282,-2.42172 3.923282,-2.98521 0,-1.53673 -4.166904,-9.47876 -5.056532,-9.63764 -5.596524,-0.99951 -10.57802,-0.50648 -13.084223,1.29499 -1.571054,1.12928 -3.827923,2.05323 -5.015266,2.05323 -3.116796,0 -3.659383,1.56485 -2.839483,8.18921 0.519798,4.19969 1.427437,6.50058 3.166409,8.02691 1.678405,1.47316 2.663213,3.85542 3.161588,7.64792 0.398116,3.02954 1.086454,6.00181 1.52964,6.60501 0.443186,0.6033 1.697379,4.2266 2.787097,8.052 2.878012,10.103 3.997027,11.4644 10.392744,12.644 3.018414,0.5566 5.670222,1.0693 5.892908,1.1393 0.222685,0.07 2.130681,-0.9006 4.23999,-2.1567 z m 99.275003,-16.2861 c -0.18176,-1.9742 -0.8614,-4.5908 -1.5103,-5.8148 -0.64889,-1.22395 -1.17982,-3.88335 -1.17982,-5.90978 0,-4.38644 2.17534,-6.683 4.96724,-5.24404 1.0575,0.54506 4.83473,1.55197 8.39382,2.2376 5.1222,0.98673 7.33174,0.95676 10.59998,-0.14381 3.90998,-1.31667 4.11242,-1.60157 3.81802,-5.37343 -0.17099,-2.19067 0.0675,-3.9904 0.53,-3.99941 0.46248,-0.009 1.48637,-0.4293 2.27532,-0.93396 1.16359,-0.74431 1.18635,-1.3855 0.12052,-3.39585 -0.72264,-1.36306 -1.46917,-4.71516 -1.65894,-7.44911 -0.51132,-7.36653 -2.14774,-11.08961 -4.41575,-10.04642 -1.01214,0.46553 -4.55828,0.87562 -7.88033,0.91129 -6.99506,0.0751 -9.05173,1.40594 -7.29462,4.72018 0.96594,1.82196 0.80929,2.40579 -0.89212,3.32497 -2.81758,1.5222 -5.51995,1.34717 -7.95908,-0.51552 -1.80786,-1.38059 -2.27043,-1.35733 -3.975,0.19987 -1.06097,0.96927 -1.92904,2.83249 -1.92904,4.1405 0,1.30803 -0.7155,2.97765 -1.59,3.71028 -2.43779,2.04234 -1.90374,3.21009 1.46809,3.21009 2.09226,0 3.60646,-0.84485 4.79442,-2.67507 0.95499,-1.47129 2.44084,-2.67507 3.3019,-2.67507 2.01779,0 2.02913,3.62971 0.0166,5.31575 -0.85192,0.71372 -1.86075,2.3376 -2.24183,3.60862 -0.38108,1.27101 -1.65231,3.36975 -2.82495,4.66385 -1.60171,1.76762 -1.94317,3.09852 -1.37264,5.35015 0.41769,1.64847 0.84735,5.09572 0.95481,7.66052 0.1443,3.4449 0.84241,5.1923 2.67188,6.6877 3.21301,2.6264 3.19845,2.6345 2.8118,-1.5651 z M 70.33349,146.9657 c 1.411662,-1.91621 1.923959,-4.04879 1.670811,-6.95519 l -0.365095,-4.19164 -1.52857,3.21009 c -0.840705,1.76555 -2.61796,4.70008 -3.949455,6.52118 -1.331486,1.8211 -2.420886,3.66026 -2.420886,4.08703 0,1.78868 4.714784,-0.12169 6.593195,-2.67147 z m -17.19317,-2.05158 c 0,-2.42544 -1.099223,-2.74247 -2.967993,-0.85602 -1.86877,1.88645 -1.554707,2.99608 0.847998,2.99608 1.41333,0 2.119995,-0.71336 2.119995,-2.14006 z M 169.74004,55.743889 c 0.8745,0.0175 2.3055,0.22566 3.18,0.46239 1.25139,0.33877 1.57753,-0.62432 1.53144,-4.52231 -0.0499,-4.22513 -0.72626,-5.75778 -4.60369,-10.43278 -2.5829,-3.11419 -5.42801,-5.48005 -6.59012,-5.48005 -1.12474,0 -4.06156,-1.86804 -6.52627,-4.15121 -7.56829,-7.01081 -16.79206,-6.63888 -23.56127,0.95006 -1.166,1.3072 -3.19324,2.79105 -4.50499,3.29747 -1.92719,0.74401 -2.38499,1.74741 -2.38499,5.22735 0,3.71006 0.31966,4.3066 2.30779,4.3066 1.2693,0 3.53504,1.45729 5.03499,3.23843 2.42242,2.87653 3.09129,3.13008 5.98518,2.26889 2.27521,-0.67707 4.0327,-0.55101 5.82619,0.41792 2.34825,1.26864 2.80004,1.10713 5.27529,-1.8859 2.34703,-2.83795 3.00787,-3.11086 4.96835,-2.05171 1.26932,0.68575 2.40839,2.50173 2.59668,4.13982 0.38811,3.37632 4.50588,5.97245 7.75543,4.88954 1.166,-0.38856 2.8355,-0.69209 3.70999,-0.67451 z M 24.520387,22.930789 c 0,-1.17703 -0.687346,-2.14006 -1.527438,-2.14006 -1.872581,0 -3.069813,1.76089 -2.182553,3.21009 1.152737,1.88281 3.709991,1.14526 3.709991,-1.07003 z M 145.32281,9.0907591 c 1.51349,-2.85475 1.37414,-5.42049 -0.29439,-5.42049 -1.41932,0 -7.0883,5.3954 -7.0883,6.7462299 0,1.77902 6.34027,0.64048 7.38269,-1.3257399 z"
     style="fill:#ada693;fill-opacity:1"
     sodipodi:nodetypes="ssssssssssscsscscssssssssssssssssssssscsssssscssssssssssssssscssssssssccsscsssssssssssssssssssssssssccccsssssscssssssssssssssssssssccsscsssssssscsssssssssssssssscssssssss" />
  <path
     inkscape:connector-curvature="0"
     id="path3266"
     d="m 97.130216,247.64882 c -10.393561,-0.4875 -12.221644,-0.8802 -16.831393,-3.6153 -4.823158,-2.8618 -5.444995,-2.9773 -9.233892,-1.7149 -5.666063,1.8876 -18.561407,0.7755 -24.103833,-2.0788 -5.386063,-2.7738 -8.852151,-2.8356 -11.215101,-0.1998 -1.002613,1.1184 -2.755048,2.2795 -3.894298,2.5802 -4.564896,1.2051 -25.5765068,-18.4086 -28.4844912,-26.5893 -1.2433845,-3.4979 -1.5756397,-19.51309 -1.8983527,-91.50371 L 1.0776757,37.263469 18.364018,19.521429 35.650361,1.7793891 l 11.129974,0.26638 c 6.121486,0.14651 12.56097,0.36691 14.309966,0.48978 l 3.179993,0.2234 -4.236705,1.88665 c -4.197956,1.86938 -4.214922,1.90037 -1.854996,3.38812 3.095146,1.95124 3.120251,4.4534699 0.04016,4.0036899 -1.480364,-0.21617 -2.568925,-1.32576 -2.959814,-3.0169999 -0.928396,-4.01683 -4.638031,-5.21761 -13.177398,-4.26539 -8.209776,0.91547 -10.141174,2.45673 -10.141174,8.0926899 0,1.88006 -0.71256,4.79748 -1.583466,6.48317 -0.870906,1.68569 -1.586405,3.81124 -1.589996,4.72344 -0.0036,0.9122 -0.546866,2.204 -1.207278,2.87066 -1.71476,1.73099 -0.31761,4.56605 2.250202,4.56605 1.393993,0 2.580908,1.05748 3.30272,2.94258 0.619703,1.61842 1.801975,4.30576 2.62727,5.97187 2.287823,4.61868 1.863394,5.90026 -2.209456,6.67157 -4.140419,0.7841 -4.753961,2.76377 -2.059889,6.6465 1.986413,2.86284 3.234126,3.02499 3.890421,0.5056 0.268288,-1.02991 2.28431,-2.52474 4.480049,-3.32186 3.368644,-1.2229 4.21913,-1.22027 5.444677,0.0169 1.229898,1.24154 0.64353,2.16953 -3.827251,6.05702 -5.015881,4.36146 -5.397339,4.50764 -7.634694,2.9257 -2.787695,-1.97105 -6.086421,-2.12375 -9.725102,-0.45017 -3.067308,1.41079 -4.364776,4.01143 -2.792932,5.59815 1.453265,1.46702 1.394362,5.29678 -0.104738,6.81007 -2.173228,2.1938 5.448428,4.41375 14.095001,4.10545 9.645287,-0.34392 10.583591,-0.76135 13.504653,-6.00786 2.646461,-4.75331 2.557456,-4.70406 5.335603,-2.95265 3.016606,1.90173 7.521855,-0.36618 6.738036,-3.39188 -0.322073,-1.24327 0.130021,-3.05251 1.017981,-4.07389 0.87855,-1.01054 1.914312,-2.88861 2.301695,-4.17344 0.613513,-2.03487 0.254932,-2.3798 -2.780935,-2.67508 -3.917332,-0.38101 -4.894541,-2.48517 -2.615405,-5.63157 1.332341,-1.83933 1.815974,-1.9 4.892352,-0.61366 2.737384,1.1446 3.320637,1.91965 2.943469,3.91139 -0.333306,1.76006 0.2613,2.9679 2.040347,4.1446 1.929608,1.2763 2.358664,2.27226 1.853734,4.30308 -0.898263,3.61287 0.798814,3.31875 3.698988,-0.64108 2.528921,-3.45292 2.35434,-6.34677 -0.382892,-6.34677 -2.974374,0 -1.673535,-2.15295 2.351732,-3.89224 6.680613,-2.88665 7.149004,-3.22642 7.332405,-5.31886 0.09763,-1.11331 0.786296,-3.55673 1.530478,-5.42983 1.249959,-3.14613 1.155672,-3.56724 -1.23742,-5.52675 0,0 -1.449632,-1.25425 -1.519051,-2.12113 -0.0742,-0.92725 1.243101,-2.49847 1.243101,-2.49847 l 2.314537,-2.49846 -3.08101,-3.7451 c -3.481477,-4.23188 -3.81509,-5.35015 -1.596081,-5.35015 1.842838,0 3.232547,-6.2646799 2.258643,-10.1817499 -0.466431,-1.87601 -0.190757,-2.89228 0.899111,-3.31445 0.864481,-0.33488 12.076954,-0.12675 24.916604,0.46252 19.28351,0.885 23.64816,1.37761 25.08848,2.83156 1.61825,1.63356 1.91051,1.60197 4.06269,-0.43902 2.46634,-2.33895 4.83236,-2.89509 4.83236,-1.13589 0,1.34772 -8.33883,7.4969099 -10.16646,7.4969099 -0.75262,0 -1.6632,0.48152 -2.02351,1.07003 -0.40698,0.66474 1.59505,1.07003 5.28561,1.07003 4.9547,0 6.38941,-0.45293 8.64406,-2.72892 2.00514,-2.0241299 2.53501,-3.4058999 2.05162,-5.3501399 -0.42979,-1.72863 -0.19365,-2.6582 0.69347,-2.72978 0.73986,-0.0597 3.20245,-0.27756 5.47242,-0.4841 3.91277,-0.35602 4.5875,0.0782 12.98497,8.3573599 9.09245,9.78562 12.91436,12.30928 19.98772,20.77688 0,0 3.15622,3.11655 3.88284,5.13598 2.53991,7.05897 0.97751,22.48478 0.97751,22.48478 0.34121,12.36664 0.44367,46.319701 0.22771,75.451241 -0.43428,58.58147 -1.4263,70.44377 -6.52688,78.04667 -5.20585,7.7598 -21.41674,26.3939 -24.62711,28.3082 -5.55837,3.3146 -18.70302,6.0086 -32.18559,6.5967 -7.02258,0.3063 -14.19931,0.6635 -15.94831,0.7937 -1.74899,0.1302 -8.42698,-0.011 -14.839967,-0.3103 z m -45.175009,-21.5562 c 2.109309,-1.256 4.847942,-3.4746 6.085852,-4.9301 2.748322,-3.2317 6.426391,-2.5226 7.408698,1.4283 0.866682,3.4858 3.409658,4.7156 9.75103,4.7156 5.923955,0 6.640778,-0.6182 8.994068,-7.7553 1.637844,-4.9673 1.623513,-5.1083 -0.644776,-6.343 -1.275897,-0.6945 -5.227568,-1.3139 -8.781464,-1.3764 -8.126121,-0.1428 -12.088318,-2.4488 -12.088318,-7.0351 0,-1.76002 -0.575075,-4.12955 -1.277945,-5.26567 -1.035823,-1.67432 -0.956142,-2.4318 0.420567,-3.99809 0.934182,-1.06283 1.867007,-2.81897 2.072943,-3.90254 0.503019,-2.64671 10.720177,-7.00406 16.804393,-7.16663 4.694453,-0.12542 4.719628,-0.14533 1.589996,-1.25667 -1.748996,-0.62108 -3.656991,-1.46409 -4.23999,-1.87335 -1.202546,-0.84419 -8.481379,-1.72902 -9.393337,-0.80843 -0.329034,0.33214 -0.951019,0.74889 -2.036955,0.16221 -2.586662,-1.39743 -13.906411,3.98749 -16.324119,7.7123 -1.043881,1.60824 -2.326614,2.39392 -3.295606,2.01856 -0.872572,-0.33801 -2.453745,0.17772 -3.513717,1.14606 -2.530471,2.31172 -5.436709,1.16462 -4.995518,-1.97175 0.261054,-1.85579 1.317551,-2.6173 4.579335,-3.30072 5.340206,-1.11888 9.241639,-3.00004 9.808323,-4.72928 0.252848,-0.77156 -0.458427,-1.33754 -1.680938,-1.33754 -1.206112,0 -3.566209,-1.84421 -5.477392,-4.28011 -2.541991,-3.2399 -4.109334,-4.28012 -6.449055,-4.28012 -2.522087,0 -3.090922,-0.45467 -3.090922,-2.47056 0,-1.35881 0.643135,-3.35842 1.42919,-4.44359 1.529505,-2.11151 3.870797,-1.45092 3.870797,1.09214 0,2.63282 2.042152,1.69253 2.781381,-1.28066 0.547697,-2.20286 0.159214,-3.23568 -1.769419,-4.70422 -3.111661,-2.36935 -5.191869,-1.60422 -5.942769,2.18581 -0.886848,4.47621 -9.235332,13.19127 -11.8377,12.3575 -3.758211,-1.20411 -5.833074,2.23034 -5.09465,8.43298 0.35463,2.97883 0.648926,6.46597 0.653994,7.7492 0.0063,1.58796 0.75843,2.44235 2.355002,2.67507 1.9124,0.27876 2.569542,1.42922 3.556898,6.22709 0.66611,3.23684 1.713769,7.08891 2.328129,8.56021 0.614361,1.4713 1.903335,5.3898 2.864387,8.7078 2.289026,7.903 3.354656,9.1233 9.04475,10.3583 6.966425,1.512 7.339392,1.479 11.534857,-1.0193 z m 12.984073,-9.8525 c -1.400381,-1.7033 -0.534921,-2.8441 2.157677,-2.8441 2.150714,0 2.226324,0.1505 1.299918,2.5875 -0.78708,2.0705 -1.898477,2.153 -3.457595,0.2566 z M 36.887025,200.91231 c -1.135429,-1.14617 -0.813863,-4.4436 0.514138,-5.27213 1.856077,-1.15797 4.335409,2.77949 2.871434,4.56017 -1.296056,1.57642 -2.316613,1.79104 -3.385572,0.71196 z m 114.396805,9.41951 c -0.21696,-2.2739 -0.92306,-5.1313 -1.56911,-6.3499 -1.62025,-3.05609 -1.47037,-5.73396 0.47809,-8.5421 1.31567,-1.89616 2.06151,-2.16106 3.65724,-1.29897 1.10248,0.59561 5.50977,1.38204 9.79397,1.74761 6.19666,0.52878 8.50089,0.29331 11.26864,-1.1515 2.57333,-1.3433 3.28752,-2.2849 2.74302,-3.6164 -2.10026,-5.13594 -1.95034,-5.54533 2.03071,-5.54533 4.24714,0 4.21978,0.0325 2.88622,-3.42725 -1.23696,-3.20912 -4.13166,-13.41237 -4.88443,-17.21663 -0.75694,-3.82534 -3.2008,-4.76196 -5.92691,-2.27151 -1.76053,1.60834 -2.50507,1.72617 -4.20052,0.66479 -1.13338,-0.70952 -3.01469,-1.88739 -4.18069,-2.61747 -1.68738,-1.05653 -2.54968,-1.05653 -4.22561,0 -1.15809,0.73008 -3.27352,1.32743 -4.70098,1.32743 -4.78866,0 -7.92232,2.00767 -10.37113,6.64457 -1.33344,2.5249 -2.66469,5.79452 -2.95833,7.26581 -0.37082,1.85799 -1.90992,3.32029 -5.03889,4.78744 -2.47774,1.1618 -4.50499,2.45351 -4.50499,2.87047 0,1.21559 4.01037,2.16457 9.35553,2.21382 2.72494,0.0251 5.33535,0.26469 5.80091,0.53238 1.49314,0.85853 -1.55212,3.50627 -4.03268,3.50627 -1.76353,0 -2.55388,0.77731 -2.9919,2.94258 -0.47545,2.35031 0.0354,3.48101 2.53796,5.61765 2.64419,2.25755 3.10435,3.38328 2.94831,7.21254 -0.12584,3.0881 0.43086,5.2244 1.74275,6.6877 3.13567,3.4977 4.7936,2.7402 4.34282,-1.984 z M 94.480222,183.43517 c 0,-0.58851 -0.715498,-1.07003 -1.589996,-1.07003 -0.874498,0 -1.589996,0.48152 -1.589996,1.07003 0,0.58852 0.715498,1.07003 1.589996,1.07003 0.874498,0 1.589996,-0.48151 1.589996,-1.07003 z M 62.212765,167.28271 c 0.39467,-0.64464 0.110574,-2.317 -0.631326,-3.71638 -1.188978,-2.24265 -1.01525,-3.02346 1.465278,-6.58565 1.547801,-2.22274 4.722045,-5.63345 7.05387,-7.57935 3.65572,-3.05071 4.239683,-4.12766 4.239683,-7.81889 0,-5.87694 -2.138746,-13.96081 -3.566489,-13.48039 -0.645294,0.21713 -1.500182,2.32792 -1.899749,4.69064 -1.356372,8.02053 -8.441348,20.68166 -11.573141,20.68166 -1.757856,0 -2.040576,-0.78704 -2.040576,-5.68064 0,-3.12436 -0.601346,-6.51082 -1.336324,-7.52547 -1.21057,-1.67123 -1.70932,-1.39438 -5.299988,2.94186 -2.180015,2.63268 -3.963663,5.27993 -3.963663,5.88277 0,1.49258 4.089788,3.5986 5.74394,2.95783 2.945038,-1.14081 6.97603,4.64214 6.97603,10.00797 0,5.0082 2.987391,8.23767 4.832455,5.22404 z M 36.18036,147.58919 c 0,-0.88277 -0.476999,-1.60504 -1.059998,-1.60504 -0.582998,0 -1.059997,0.72227 -1.059997,1.60504 0,0.88278 0.476999,1.60505 1.059997,1.60505 0.582999,0 1.059998,-0.72227 1.059998,-1.60505 z m 36.716586,-27.82076 c 0.335584,-0.88277 0.286538,-2.44769 -0.108968,-3.47759 -0.670173,-1.7451 -0.822177,-1.73119 -2.233404,0.20451 -0.832862,1.14239 -1.514291,2.70731 -1.514291,3.4776 0,1.9329 3.106778,1.76815 3.856663,-0.20452 z m 76.145924,-1.5519 c 1.83536,-3.58277 2.14324,-9.22893 0.55722,-10.21842 -0.583,-0.36372 -1.06,-2.5056 -1.06,-4.75973 0,-2.45785 -0.81709,-5.109621 -2.04124,-6.624541 -1.98012,-2.45047 -2.06206,-2.46202 -2.73623,-0.38605 -1.98195,6.102981 -4.09891,3.785831 -7.54752,4.120291 -4.44185,0.43078 -5.42164,5.58952 -2.13421,8.44282 0.6654,0.57754 1.00242,1.73414 2.05705,2.88417 2.30452,2.51296 1.13677,2.59912 6.35997,6.47665 2.38691,1.77197 4.47212,3.22176 4.63379,3.22176 0.16168,0 1.02171,-1.42063 1.91117,-3.15695 z m -75.762598,-9.62025 c 0,-5.0532 -1.659076,-6.53517 -3.28454,-2.93391 -0.863728,1.91362 -0.855068,3.20079 0.03275,4.87547 1.868755,3.52484 3.251755,2.69907 3.251755,-1.94156 z M 54.000031,90.897529 c 0.347311,-5.43855 -1.215842,-7.8268 -3.739154,-5.71281 -2.719992,2.27875 -0.810773,12.27723 2.156211,11.29196 0.689277,-0.2289 1.401602,-2.73952 1.582943,-5.57915 z m 18.95531,-5.97255 c 1.716867,-2.93859 2.298647,-3.20937 5.624919,-2.61802 2.040495,0.36276 4.544739,0.90711 5.564987,1.20963 4.027089,1.19418 1.558016,-1.98678 -3.179993,-4.09685 -2.769243,-1.23328 -6.814257,-3.37301 -8.988916,-4.75496 -2.174659,-1.38196 -4.201905,-2.51264 -4.50499,-2.51264 -0.766579,0 -0.690652,8.65819 0.111438,12.70659 0.840345,4.24149 2.918215,4.26711 5.372555,0.0662 z M 174.55821,58.825399 c 1.98634,-2.00512 2.60182,-3.75789 2.60182,-7.40946 0,-4.39466 -0.51006,-5.31085 -6.28196,-11.28394 -3.45508,-3.5755 -7.01598,-6.50092 -7.91311,-6.50092 -0.89711,0 -3.39306,-1.56163 -5.54653,-3.47029 -2.15347,-1.90868 -6.02407,-4.01079 -8.60134,-4.67138 -4.30206,-1.10267 -5.1665,-0.95296 -10.5522,1.82744 -3.22644,1.66568 -6.4163,3.78785 -7.08856,4.71593 -0.67226,0.92808 -2.40667,2.28033 -3.85424,3.005 -1.96009,0.98125 -2.71469,2.31479 -2.95612,5.22415 -0.17829,2.1486 -1.01304,4.48369 -1.85499,5.18905 -2.36691,1.98296 -1.84372,3.73562 1.99818,6.69372 3.11846,2.40107 4.25911,2.65395 9.80497,2.17373 4.70399,-0.40732 7.33801,-0.0546 10.51597,1.40845 2.48927,1.14593 7.30377,2.07039 11.65998,2.23886 4.08099,0.15784 8.49323,0.33545 9.80497,0.39469 1.31175,0.0593 2.385,0.77905 2.385,1.59957 0,2.33522 3.01794,1.75271 5.87816,-1.13459 z M 25.320691,47.273959 c -0.50528,-1.5488 -5.040294,-2.49829 -5.040294,-1.05529 0,1.52806 1.245013,2.39282 3.444992,2.39282 1.15139,0 1.842597,-0.57952 1.595302,-1.33753 z m -0.800304,-24.28001 c 0,-2.73819 -1.8262,-3.78142 -3.769495,-2.15336 -1.18194,0.9902 -1.267096,1.65628 -0.353774,2.76719 1.758091,2.13842 4.123269,1.7863 4.123269,-0.61383 z m 25.699307,11.97278 c -0.72565,-0.24417 -1.319364,-1.03164 -1.319364,-1.74993 1.129353,-7.12424 14.445481,-11.32176 11.360995,-1.41264 -0.6175,1.62441 -7.846582,3.90118 -10.041631,3.16257 z"
     style="fill:#8f7026"
     sodipodi:nodetypes="cscsscsscccsscssssssscssssssssssssssssssssssssssssscssaccssscsssssssssssccasssssscccsssssssssssscsssssssssssssssssscssssccssssssssssssssssssssssssssscsssssssssssssssssssssssssssssssssssssssssssssssscscccsssscsssssscccsssssssssssssscsccsssssssssccs" />
  <path
     style="fill:#1968ff;fill-opacity:1"
     d="m 83.625,18.843749 c 0.42782,2.72119 2.86354,4.06636 7.96875,4.75 l 5.28125,0.71875 -2.53125,2.03125 c -1.38856,1.11752 -3.61133,2.49761 -4.96875,3.0625 -2.05558,0.85544 -2.37888,1.55312 -1.8125,4.15625 0.81871,3.76284 -2.67507,9.70454 -8.46875,14.34375 -2.76041,2.21036 -3.62527,3.57079 -3.15625,5.0625 0.41283,1.31303 -0.35946,3.36188 -2.1875,5.78125 -3.01253,3.98701 -6.414534,5.17186 -5.5,1.90625 0.28843,-1.0299 0.72069,-2.55842 0.9375,-3.40625 0.21682,-0.84783 -0.41972,-1.75007 -1.40625,-1.96875 -2.475017,-0.54862 -5.431943,5.42887 -4.59375,9.28125 0.620179,2.85039 0.431802,2.99044 -5.5,4.3125 -8.827691,1.96749 -8.929831,2.01777 -9.5,4.21875 -0.584601,2.25667 -3.358079,3.92196 -8.8125,5.25 -2.604643,0.63418 -3.831778,1.56494 -4.0625,3.15625 -0.574988,3.96571 -2.839862,4.88491 -4.46875,1.8125 -0.697428,-1.31549 -1.236931,-1.95019 -2.125,-2.1875 l 0,90.187501 c 1.899192,-1.61905 3.663118,-4.46804 7.53125,-11.15625 1.1062,-1.91268 2.846182,-3.49144 3.875,-3.5 3.846286,-0.0337 4.589725,-1.43085 3.59375,-6.8125 -0.903348,-4.88115 -0.831615,-5.1364 1.84375,-6.28125 1.536034,-0.6573 3.826381,-2.09192 5.0625,-3.1875 2.223121,-1.97037 2.266981,-1.94551 4.5,1.875 1.241625,2.12432 2.25,4.8384 2.25,6.03125 0,1.98143 0.351529,1.88566 4.15625,-1.15625 4.034904,-3.22595 6.84886,-9.05155 7.71875,-16.03125 0.9443,-7.57679 5.09375,0.95031 5.09375,10.46875 0,3.64106 -0.606,4.78465 -4.21875,7.90625 -4.826895,4.17074 -7.841612,11.05367 -6.15625,14.09375 2.472374,4.4597 -6.477668,10.50472 -9.71875,6.5625 -1.416958,-1.72349 -4.233767,-2.09348 -8.15625,-1.03125 l -2.28125,0.625 2.53125,3.8125 c 1.403386,2.08757 2.5625,4.14514 2.5625,4.59375 0,0.44861 2.981259,1.17543 6.625,1.625 3.643741,0.44958 7.584003,0.98524 8.75,1.1875 2.833214,0.49151 3.523173,0.49016 8.46875,0.0312 2.33199,-0.21639 4.7295,-0.0343 5.3125,0.375 0.583,0.40926 2.46975,1.25392 4.21875,1.875 3.15617,1.12082 3.16424,1.10361 -1.375,1.1875 -2.51542,0.0465 -6.93058,1.10581 -9.78125,2.34375 -4.767572,2.07036 -5.109353,2.48986 -4.5625,5.25 0.467321,2.3587 0.09466,3.28467 -1.75,4.28125 -1.716176,0.92716 -2.0459,1.57098 -1.1875,2.4375 0.645588,0.6517 1.1875,2.52197 1.1875,4.15625 0,4.41177 4.02146,6.67707 10.46875,5.90627 3.92982,-0.4699 5.85961,-0.1138 8.4375,1.4687 1.84029,1.1298 3.34375,2.5651 3.34375,3.2188 0,0.1046 -0.0218,0.2505 -0.0312,0.375 l 58.59375,0 c -1.8337,-1.9432 -2.375,-4.0828 -2.375,-7.6563 0,-2.90545 -0.77413,-5.75245 -2.0625,-7.56247 -2.24417,-3.15282 -0.52237,-6.02264 0.46875,-8.78125 0.50367,-1.40189 2.65625,-2.15074 2.65625,-3.59375 0,-0.12107 -1.95025,-0.31112 -4.3125,-0.40625 -4.89285,-0.19696 -8.40625,-1.13781 -8.40625,-2.25 0,-0.41696 2.02226,-1.71319 4.5,-2.875 3.12972,-1.46751 5.13562,-3.56977 5.37946,-5.30804 0.19305,-1.37616 1.12468,-4.0233 2.71429,-6.75446 2.2121,-3.8007 3.73854,-5.18497 6.53125,-5.875 2.00683,-0.49585 5.79402,-0.51021 8.83036,-1.46429 5.16412,-1.62269 5.99237,-2.79907 7.88839,-1.06701 1.30758,1.19454 2.05479,1.55684 3.40625,1.15625 l 0,-98.437501 c -1.74789,0.89592 -3.08544,0.61005 -4.46875,-0.78125 -3.90699,-3.92953 -6.46469,-5.82536 -10.75446,-5.09375 -3.3285,0.56767 -5.4635,0.17011 -9.3125,-1.65625 -4.033,-1.91367 -6.9093,-1.62182 -11.99554,-1.15625 -5.58287,0.51102 -6.6793,0.28742 -9.8125,-2.125 -3.8419,-2.9581 -4.36691,-4.73579 -2,-6.71875 0.84196,-0.70536 1.69671,-3.03889 1.875,-5.1875 0.23557,-2.83876 1.00763,-4.22175 2.8125,-5.125 1.36608,-0.68366 3.29531,-2.62403 4.3125,-4.3125 3.08751,-5.12503 9.07535,-9.13503 12.5,-8.34375 11.80962,2.72868 21.87959,8.36612 25.96875,14.53125 0.27752,0.41841 0.56635,0.81929 0.875,1.21875 l 0,-12.1875 c -3.82135,-0.23435 -6.40625,-1.38526 -6.40625,-3.15625 0,-2.20307 0.62021,-2.41686 6,-2.125 0.13876,0.008 0.26895,-0.003 0.40625,0 l 0,-1.90625 z m -54.90625,15 0,9.25 c 1.292155,-0.1453 2.240226,-0.61621 2.8125,-1.40625 1.37255,-1.89484 0.745475,-5.99596 -1.09375,-7.25 -0.409981,-0.27954 -1.015537,-0.46573 -1.71875,-0.59375 z m 37.8125,36.15625 c 0.366282,0 3.10779,1.39048 6.09375,3.09375 2.98596,1.70328 7.0845,3.43771 9.125,3.84375 4.59785,0.91495 9.5625,2.97089 9.5625,3.96875 0,2.32079 -4.76528,3.82817 -10.4375,3.3125 -5.1778,-0.47072 -6.2925,-0.22784 -8.03125,1.71875 -3.18788,3.56894 -4.48466,2.70478 -5.78125,-3.8125 -1.329491,-6.6827 -1.562965,-12.125 -0.53125,-12.125 z m 78.03125,24.84375 c 0.43422,-0.0994 0.97519,0.59036 1.9375,1.78125 1.22415,1.51493 0.81589,5.420121 1.14737,8.140231 0.54535,4.47506 3.74686,8.59531 1.38388,13.45352 -0.88947,1.73633 -3.11512,1.01339 -3.33929,1.01339 -7.4135,-2.76153 -8.09251,-7.89637 -11.62946,-11.95089 -1.46226,-1.63107 -1.95504,-2.67606 -0.5,-4.78125 0.48006,-0.69457 1.72716,-2.723641 5,-2.1875 2.43546,0.39896 3.85011,0.17959 4.09375,-0.656251 0.95079,-3.2618 1.34796,-4.68464 1.90625,-4.8125 z M 31.96875,138.8125 c 0.703119,-0.0513 1.460167,0.682 2.0625,2.28125 0.572156,1.51912 1.392071,2.77269 1.84375,2.78125 2.533969,0.0506 3.672723,1.913 2.5,4.125 -2.632415,4.96526 -8.98205,0.93631 -8.375,-5.3125 0.239143,-2.46168 1.06474,-3.80908 1.96875,-3.875 z M 51,155.78125 c -0.388573,0.0136 -0.688237,0.32184 -1.09375,0.96875 -0.529637,0.84494 -0.991096,2.66616 -1,4.03125 -0.01285,1.96547 0.486341,2.39577 2.375,2.125 2.933747,-0.4206 3.738063,-4.21792 1.3125,-6.25 -0.725112,-0.60749 -1.205177,-0.88855 -1.59375,-0.875 z m -22.28125,57.40627 0,0.6562 0.25,0 c -0.08749,-0.2166 -0.161806,-0.4428 -0.25,-0.6562 z"
     id="path3268"
     inkscape:connector-curvature="0"
     sodipodi:nodetypes="ccccsssssscsssssssccscssssssssssscccsscssccssssssssccssascsssssssccsssssssssssccsscccccsscssssssssssacccsssssscssssscssscccc" />
  <path
     inkscape:connector-curvature="0"
     id="path3270"
     d="m 85.486759,242.50102 c -2.263392,-0.547 -3.888262,-2.0908 -5.710832,-5.426 l -2.547355,-4.6616 -5.94914,0.6311 c -3.946858,0.4188 -6.76667,0.169 -8.378171,-0.7424 -2.353913,-1.3311 -2.368291,-1.429 -0.464935,-3.1678 1.58606,-1.4489 2.664298,-1.5917 5.602026,-0.7411 5.392451,1.5612 12.274421,1.2915 14.101178,-0.5526 1.460136,-1.4739 4.92071,-11.5712 4.92071,-14.3575 0,-0.6538 -1.505695,-2.1129 -3.345988,-3.2427 -2.577893,-1.5825 -4.516883,-1.9141 -8.446707,-1.4442 -6.447286,0.7708 -10.467253,-1.4994 -10.467253,-5.91118 0,-1.63428 -1.037205,-4.01337 -1.650139,-4.6321 -0.779234,-0.78661 0.269285,-1.15015 2.240666,-2.45407 2.339275,-1.54725 3.554933,-1.67634 7.13888,-0.75802 3.651204,0.93554 4.529857,0.82696 5.679138,-0.70182 1.973938,-2.62574 1.190907,-3.90353 -2.625201,-4.28397 -3.189702,-0.31799 -4.361306,-1.59087 -2.521045,-2.73898 0.463272,-0.28902 13.559849,-0.86816 29.103489,-1.28695 24.77768,-0.66759 28.57523,-0.55374 30.80888,0.92367 4.60528,3.04604 6.05521,5.08421 5.4237,7.62412 -0.45162,1.81643 0.0813,2.87956 2.11905,4.22739 2.29134,1.51555 2.7224,2.60619 2.7224,6.88801 0,6.0045 1.54636,8.5467 6.96232,11.4462 3.4123,1.8269 5.67646,0.6547 6.12723,-0.715 0.75796,-2.3029 4.13947,-5.0647 6.58051,-7.2198 2.08929,-1.8445 4.69909,-3.0264 6.82987,-4.8229 3.43902,-2.89947 5.5893,-8.75223 9.5353,-9.5489 2.00509,-0.40481 3.18467,-1.301 3.18467,-2.41956 0,-0.97713 1.21935,-2.91734 2.70967,-4.31159 1.62277,-1.51817 2.38987,-3.05731 1.9124,-3.83718 -0.43849,-0.7162 -0.69396,-2.67057 -0.56772,-4.34303 0.15412,-2.04176 -0.82248,-4.32918 -2.97241,-6.9621 -1.76105,-2.15669 -3.20193,-4.4948 -3.20193,-5.19579 0,-2.22624 -3.65453,-7.85434 -5.10467,-7.86138 -0.76708,-0.003 -2.40596,0.53958 -3.64196,1.20733 -1.90182,1.02745 -2.59107,0.81063 -4.48364,-1.41044 -2.17812,-2.55617 -2.35812,-2.58356 -6.91068,-1.05168 -3.653,1.22919 -5.60837,1.32118 -8.94924,0.42101 -4.92542,-1.32711 -6.94973,-0.29656 -6.94973,3.53799 0,1.3515 -1.30628,3.57045 -2.91499,4.95163 -2.14075,1.83794 -2.96738,3.59766 -3.11222,6.62522 -0.10849,2.26739 -0.50473,4.4342 -0.88057,4.81513 -0.37583,0.38092 -11.97355,0.93335 -25.7727,1.2276 -22.541463,0.48068 -25.425027,0.34485 -28.394483,-1.33753 -3.900547,-2.2099 -11.920202,-2.46266 -14.631749,-0.46116 -2.345277,1.73113 -18.973022,1.93171 -19.553804,0.17287 -0.210069,-0.63617 -1.946428,-3.02131 -3.213996,-5.10603 l -2.564195,-4.21721 3.179469,-0.79781 c 3.941573,-0.98904 6.124991,-0.2802 7.803932,1.18927 3.572781,3.12702 11.677739,-1.96181 9.232715,-6.57362 -1.607105,-3.03132 2.412503,-10.09676 6.508047,-12.23469 1.777531,-0.9279 3.766426,-2.69536 4.419766,-3.92769 1.484484,-2.80003 0.351633,-15.59432 -1.741353,-19.66675 -1.282141,-2.4947 -1.26904,-3.19259 0.09688,-5.16112 1.957995,-2.82189 2.104625,-14.04564 0.261374,-20.00751 -0.724986,-2.344801 -1.624849,-4.263261 -1.999728,-4.263261 -1.23636,0 -2.039891,6.764661 -2.447449,20.604161 -0.505333,17.15939 -1.983796,23.24251 -6.840545,28.14522 l -4.065791,4.90446 -1.081343,-6.2742 c -0.496212,-2.87914 -1.71171,-7.65033 -2.045652,-10.7509 -0.333941,-3.10057 -1.025261,-5.89824 -1.536267,-6.21705 -1.342982,-0.83786 -3.267593,4.92886 -2.574858,7.71505 0.879847,3.53877 -0.84899,4.77493 -4.185781,7.28287 -2.495368,1.87551 -3.440318,1.5531 -2.567595,6.1128 0.489936,2.55976 0.911568,5.00148 0.936958,5.42605 0.02539,0.42455 -1.236225,1.52932 -3.130971,2.01851 -2.606998,0.67309 -4.369829,1.74846 -6.413693,5.53193 -3.866567,7.15751 -6.316605,10.90603 -10.640319,11.11707 -4.823377,0.23543 -6.519489,4.35416 -5.673016,10.79557 0.58726,4.46887 0.364702,5.62817 -1.407584,7.33212 -1.157826,1.11317 -2.434848,3.10698 -2.837829,4.43068 -0.58589,1.92453 -0.208114,2.60807 1.885505,3.4116 1.440009,0.55267 2.931182,1.51607 3.313721,2.14089 0.382538,0.62481 1.556961,1.13603 2.609828,1.13603 1.967374,0 7.02235,10.39612 9.710411,19.97052 1.077353,3.8373 1.740623,4.5479 4.783274,5.1241 4.594,0.87 5.707973,2.7262 1.636104,2.7262 -4.653975,0 -6.507263,1.0201 -6.525469,3.592 -0.0378,5.3398 -1.586907,5.311 -8.046374,-0.1495 -8.469715,-7.1601 -18.1997712,-17.653 -19.4515392,-20.9765 C 1.9159071,206.31742 1.3041656,184.69047 1.5860486,112.57363 1.8661032,40.924369 1.9852797,36.781589 3.8254227,34.729009 c 2.2625466,-2.52375 4.2297928,-2.8729 3.3647045,-0.59718 -0.8501244,2.23636 1.3273415,3.23918 2.8258178,1.30142 0.999615,-1.29265 2.331201,-1.44413 6.554457,-0.74564 3.039929,0.50278 5.729399,0.46441 6.306985,-0.09 1.206145,-1.1577 5.94884,-1.25025 7.565961,-0.14764 1.839225,1.25404 2.445662,5.34596 1.073111,7.2408 -0.849052,1.17214 -2.453758,1.62435 -4.922869,1.38727 -4.986916,0.47014 -2.364513,-6.39135 -3.103914,-6.7719 -2.130878,0.55785 -2.506583,4.69152 -4.325089,5.12179 -1.387918,0.26088 -2.370261,-1.61531 -3.722201,-2.02351 -1.518745,-0.45857 -3.849571,-1.8231 -4.740756,-0.42084 -1.6708903,2.62911 -0.684755,4.68399 3.335765,6.95099 2.089254,1.17804 5.060439,3.03748 6.602633,4.13209 1.542195,1.09461 3.507896,1.71753 4.368225,1.38426 1.964645,-0.76103 3.080956,0.92966 1.954494,2.96015 -0.468802,0.84504 -2.93567,3.05967 -5.481931,4.92141 -2.546259,1.86174 -4.867636,4.304 -5.158616,5.42723 -0.617576,2.38398 -2.401792,2.75568 -2.401792,0.50038 0,-2.51066 -2.333076,-3.215 -3.825374,-1.15485 -1.1460148,1.5821 -1.1203841,2.42447 0.14918,4.90278 0.843122,1.64584 2.467778,3.29195 3.610347,3.65802 1.14257,0.36608 2.377564,1.62027 2.744432,2.7871 1.308929,4.1631 4.930427,6.48512 9.025242,5.78675 3.285218,-0.56028 4.142205,-0.64751 5.396838,1.71897 1.628887,3.07241 3.368518,2.15013 3.943506,-1.81558 0.230722,-1.5913 1.255412,-2.26788 3.860055,-2.90207 5.454421,-1.32803 8.135231,-3.10791 9.087916,-5.23551 1.004354,-2.243 2.1648,-3.76073 9.293534,-4.05131 3.739002,-0.15242 6.020641,-0.95879 6.681129,-0.29205 0.56395,0.56929 1.410926,4.89587 1.882165,9.61462 0.471246,4.71876 1.189627,9.12318 1.596412,9.78759 1.248454,2.03916 3.654331,1.34867 5.566736,-1.59766 1.706087,-2.62844 2.555314,-3.12305 8.146526,-2.53312 4.429358,0.46733 6.490354,-0.0887 8.005419,-1.53579 2.526578,-2.41322 3.291101,-2.06794 -7.451041,-4.87053 -2.742351,-0.71547 -7.929099,-3.71619 -11.416978,-6.01351 -7.270228,-4.7886 -8.681247,-7.93307 -5.95121,-13.26234 2.13117,-4.16024 4.339982,-3.62649 3.969279,0.95915 -0.330464,4.08795 1.320895,7.59123 3.578319,7.59123 0.920735,0 2.351636,-1.834 3.267771,-4.18834 0.896397,-2.30358 2.499251,-4.41785 3.56192,-4.69837 1.469008,-0.38779 2.010688,-1.74796 2.259915,-5.67469 0.304908,-4.80398 0.56837,-5.23391 3.772796,-6.1567 3.529473,-1.0164 4.810024,-3.89257 1.733085,-3.89257 -1.557889,0 0.152979,-1.32017 0.700563,-2.74406 0.78797,-2.04895 0.925335,-3.77559 0.467512,-5.87977 -0.568901,-2.6147 -0.272186,-3.30637 1.785778,-4.1628 1.357422,-0.56489 3.604139,-1.9414 4.992704,-3.05892 l 2.524671,-2.03184 -5.290511,-0.70845 c -7.132416,-0.9551 -9.081052,-3.18843 -7.577679,-8.68477 0.625356,-2.28626 0.844309,-6.0045499 0.486581,-8.2628599 l -0.650425,-4.10602 19.361329,0.29171 c 12.12475,0.18269 19.31063,0.69165 19.22572,1.36174 -0.0746,0.58852 -0.44911,2.84969 -0.83229,5.02485 -0.93253,5.2934699 0.82323,6.1396299 13.34444,6.4310999 l 9.88338,0.23008 1.59787,-3.3952 c 0.87882,-1.86735 2.5303,-4.0834599 3.66997,-4.9246999 1.76258,-1.30102 1.86077,-1.78657 0.65735,-3.25034 -1.25872,-1.53101 -0.95925,-1.72083 2.71487,-1.72083 3.74278,0 4.8969,0.77907 12.31976,8.3163899 4.50457,4.57402 8.19012,8.70378 8.19012,9.17724 0,0.47345 -1.55025,1.31086 -3.445,1.20614 -5.49343,-0.30361 -5.64855,-0.71958 -5.64855,1.49302 0,2.50395 5.26582,2.93916 11.72594,2.95733 3.93418,0.011 4.00206,-0.15813 7.95386,4.37385 2.32573,2.66717 4.70859,6.59376 5.29524,8.72576 1.23621,4.4926 1.27155,81.153331 0.0587,127.464731 -0.81481,31.11406 -1.72515,38.06713 -5.1413,39.26853 -0.98394,0.346 -4.07267,2.5301 -6.86384,4.8536 -4.29293,3.5736 -5.32865,4.0118 -6.72208,2.8444 -1.70495,-1.4283 -7.44334,-1.738 -10.47131,-0.5651 -1.06075,0.4109 -1.59907,1.6039 -1.39105,3.0826 0.27817,1.9776 1.16865,2.5088 4.93993,2.9474 l 4.60059,0.5351 -3.8056,5.0184 c -2.09307,2.7601 -3.80558,5.5507 -3.80558,6.2012 0,1.8307 -5.18743,6.6323 -6.36887,5.8953 -0.57806,-0.3608 -1.05107,-1.8027 -1.05107,-3.2046 0,-3.0477 -1.3987,-4.1204 -4.20183,-3.2224 -1.7335,0.5555 -1.89674,1.1021 -1.02234,3.4237 1.82741,4.8519 -0.88235,7.3935 -8.74422,8.2012 -10.52908,1.0819 -50.876566,1.7548 -54.384935,0.907 z M 37.836785,147.98813 c 1.179012,-2.20864 0.407737,-3.36281 -2.126232,-3.41337 -0.451679,-0.009 -1.557219,-1.61645 -2.129375,-3.13557 -1.376761,-3.65543 -2.788072,-3.03717 -3.213216,1.33914 -0.60705,6.24881 5.104266,9.63935 7.468823,5.2098 z m -27.096365,0.17372 c 0,-1.3451 -3.7620467,-3.37352 -4.6306171,-2.49673 -1.5759142,1.59083 -0.4881013,3.52912 1.9806234,3.52912 1.4574965,0 2.6499937,-0.46458 2.6499937,-1.03239 z m 136.73105,-5.91231 c 1.75902,-2.13955 4.36464,-16.29172 3.58033,-19.44625 -0.35475,-1.4268 0.044,-3.554 0.92139,-4.91521 0.85075,-1.31987 1.85357,-4.56657 2.22849,-7.21489 0.37493,-2.64833 0.95874,-6.25967 1.29734,-8.02522 0.52913,-2.758931 0.15787,-3.481771 -2.64164,-5.143141 -2.77287,-1.64556 -3.25729,-2.56849 -3.25729,-6.20581 0,-2.35 0.67063,-5.58187 1.49027,-7.1819 1.28038,-2.49939 1.28038,-3.19893 0,-4.96651 -1.95908,-2.70458 -1.9008,-7.46252 0.11207,-9.14887 0.88129,-0.73833 2.52396,-3.44561 3.65038,-6.01619 1.73982,-3.97035 2.51121,-4.67377 5.12546,-4.67377 1.69258,0 4.17738,0.96303 5.52178,2.14006 3.3897,2.96769 5.40068,2.16737 9.61439,-2.08622 3.48918,-3.5222 3.19509,-3.46045 2.89257,-9.85284 -0.27784,-5.87071 -0.60398,-6.76951 -2.64063,-7.27723 -1.27799,-0.31859 -3.71234,-2.67297 -5.40965,-5.23198 -4.08116,-6.15306 -13.98118,-11.61915 -25.72041,-14.32649 -2.25803,-0.52076 -4.22686,-0.007 -8.3419,2.97705 -2.89904,2.10247 -5.53153,4.65137 -5.84999,5.66421 -0.31845,1.01285 -2.01118,2.38725 -3.76164,3.05423 -2.56355,0.97679 -3.18264,1.83768 -3.18264,4.4258 0,2.46792 -0.979,3.99585 -4.22118,6.588 -2.32166,1.85619 -4.73267,3.05578 -5.35781,2.66577 -0.62515,-0.39002 -3.75049,-4.75733 -6.94522,-9.70515 -3.19473,-4.94781 -6.2692,-8.99602 -6.832162,-8.99602 -1.394215,0 -1.289879,5.8096 0.194138,10.8097 1.536804,5.17794 0.0064,7.57438 -4.28452,6.70812 -3.695204,-0.74604 -6.265041,1.837 -3.844855,3.86459 2.138747,1.7918 10.684649,2.29388 15.921649,0.9354 5.71889,-1.48348 6.52395,-1.41916 13.24997,1.05853 3.30166,1.21625 5.9823,2.89696 6.1812,3.87551 0.33371,1.64184 1.39347,1.61787 6.03918,-0.13655 2.59007,-0.97813 4.87548,2.74649 6.87597,11.20603 2.72243,11.51235 2.65636,13.21332 -0.63425,16.33115 -2.48925,2.35853 -2.67526,3.10066 -2.04848,8.17323 0.66028,5.3438 0.57458,5.60823 -2.03157,6.26852 -1.89264,0.47952 -2.99283,1.712761 -3.61409,4.051111 -1.12071,4.35727 2.86948,11.88198 5.89737,14.37442 0,0 3.21475,1.66861 3.94537,3.19504 1.56258,3.26464 0.0297,10.85793 0.0297,10.85793 0.0231,8.46335 0.38028,11.08175 1.61962,11.87278 2.15875,1.37787 2.70718,1.30698 4.23136,-0.54694 z M 9.9788531,139.29647 c 0.7656409,-2.1555 -1.2590947,-5.08264 -3.5157181,-5.08264 -2.3269796,0 -2.6158173,1.27518 -0.9854075,4.35046 1.2389282,2.33687 3.7840776,2.75087 4.5011256,0.73218 z M 53.556911,120.75095 c 0.983234,-2.58652 0.765463,-10.07776 -0.292962,-10.07776 -1.188699,0 -2.210456,3.80106 -2.22915,8.29272 -0.01519,3.65048 1.425401,4.67007 2.522112,1.78504 z m 0.09918,-20.37371 c 1.411793,-3.410881 2.332066,-16.454781 1.160916,-16.454781 -0.243816,0 -1.136311,-0.26845 -1.98332,-0.59656 -4.169364,-1.61508 -6.508296,6.88396 -3.403361,12.36688 0.83318,1.47129 1.531776,3.99923 1.552435,5.617651 0.05044,3.95077 0.753375,3.70538 2.67333,-0.93319 z M 9.6021035,82.412679 c 0.8868155,-1.07867 0.9106185,-1.71607 0.083358,-2.23218 -1.4060231,-0.8772 -4.455567,1.46237 -3.6408009,2.79317 0.8400459,1.37208 2.1362182,1.16768 3.5574427,-0.56099 z M 48.648705,160.86076 c 0.0089,-1.36509 0.538857,-3.44114 1.068494,-4.28608 0.811025,-1.29383 1.68112,-1.04075 3.131344,0.17422 2.425563,2.03208 1.549099,6.18846 -1.384647,6.60906 -1.888659,0.27077 -2.828045,-0.53173 -2.815191,-2.4972 z M 25.85253,12.498009 c 3.016982,-3.0897099 5.662893,-5.6176599 5.879803,-5.6176599 0.765107,0 -1.10558,9.1126699 -2.135062,10.4005199 -0.573872,0.71789 -2.885425,1.1994 -5.136784,1.07003 l -4.093379,-0.23524 z m 8.152517,-8.2254499 c 0.809432,-0.98453 2.956346,-1.64443 5.220098,-1.60449 4.113365,0.0725 2.902354,0.94416 -3.494894,2.5154 -2.729055,0.67029 -2.935543,0.56126 -1.725204,-0.91091 z"
     style="fill:#614f24"
     sodipodi:nodetypes="cscccscssssssssssssssssscaassssssscssssssssssssscssssssccssscssssssssssssssssscssssssssscsscccasssssssssssssssssssssssssssssssssssssscssscscsscsssssssssssssssssscsscscsscscssssssscssssssssssssssssssssssssssssssssssssccsssccsssssssssssssssssscssscsssscsssss" />
  <path
     inkscape:connector-curvature="0"
     id="path3272"
     d="m 101.89581,240.04272 c -11.486964,-0.6592 -15.877018,-2.067 -19.291312,-6.186 -1.714228,-2.0682 -1.677393,-2.4113 0.726745,-6.772 1.392879,-2.5265 3.316997,-6.9382 4.275818,-9.8041 l 1.743314,-5.2106 -3.475,-3.6192 c -2.58119,-2.6883 -3.167209,-3.9299 -2.278369,-4.82718 0.779363,-0.78674 0.98815,-3.71828 0.59876,-8.40693 -0.328832,-3.95943 -0.176595,-7.45881 0.338299,-7.77642 0.514904,-0.31759 11.252827,-0.92879 23.862065,-1.35821 l 22.92589,-0.78076 3.02445,3.42657 c 2.08549,2.36274 2.92879,4.34739 2.71628,6.39254 -0.23157,2.22854 0.39434,3.43064 2.51741,4.8349 2.24601,1.48557 2.70826,2.46119 2.25354,4.75629 -0.96917,4.8917 2.56955,11.1339 7.61358,13.43 4.22707,1.9241 4.47896,1.9275 6.49313,0.088 1.90991,-1.7448 2.1544,-1.7593 2.76097,-0.1636 0.40396,1.0627 1.87068,1.7507 3.73209,1.7507 3.94091,0 3.86235,0.9416 -0.42887,5.1402 -2.78715,2.727 -4.38412,3.42 -7.88098,3.42 -5.91253,0 -9.82352,1.6274 -9.82352,4.0877 0,3.3122 -3.31016,5.239 -11.12997,6.4785 -9.97835,1.5817 -17.97921,1.8632 -31.27432,1.1001 z m -74.166131,-14.3057 c -1.514352,-1.842 -4.269289,-2.2103 -4.269289,-0.5707 0,4.0807 -13.5337142,-5.376 -17.4703371,-12.2073 -3.6737532,-6.3752 -4.960976,-23.8969 -3.9769686,-54.13452 l 0.7834823,-24.07566 1.935442,3.58748 c 1.6127798,2.9894 1.7277843,4.09356 0.6898358,6.6231 -0.6850838,1.66959 -0.9682113,3.48871 -0.6291732,4.04247 1.0890446,1.77878 5.8680948,2.11355 7.1915818,0.50376 1.011251,-1.23002 0.679534,-1.99433 -1.695101,-3.90573 -2.6563108,-2.13811 -2.7817254,-2.51941 -1.2505643,-3.80219 2.5562903,-2.14161 2.0596523,-5.1055 -1.3728049,-8.19278 C 5.897973,132.01492 4.11523,128.9316 3.4714373,126.35067 1.9893202,120.40894 1.9143996,38.423209 3.3885453,35.642669 c 1.2084162,-2.27931 3.1088858,-2.69018 3.1177961,-0.67405 0.024836,5.61916 2.4460089,9.414 9.0341226,14.15968 3.77296,2.71781 6.859928,5.58044 6.859928,6.36143 0,2.75149 -3.234701,4.18604 -8.915734,3.95403 -4.9749245,-0.20317 -5.8193111,0.0821 -7.385132,2.49438 -2.090932,3.35641 1.6625128,4.30918 2.652613,7.59806 1.1352404,3.88121 1.822096,4.76965 3.371292,4.36068 1.428273,-0.37703 2.69884,0.74528 4.778556,4.22098 2.391323,3.99646 3.354919,4.73457 6.180982,4.73457 2.707003,0 3.769958,0.72191 5.551868,3.77061 1.212123,2.07383 2.903459,4.04162 3.758525,4.37284 2.34,0.90644 6.396038,-2.66068 10.215315,-8.98394 1.878808,-3.11058 3.943784,-5.48043 4.588835,-5.26633 1.622222,0.53845 2.132885,5.03066 0.732565,6.44423 -1.655483,1.67115 -1.414384,7.65219 0.494355,12.26368 1.151177,2.78122 1.648406,7.583041 1.658465,16.016071 0.0133,11.15031 0.165087,12.04395 2.045699,12.04395 2.665837,0 3.222409,-2.64408 3.040718,-14.4454 -0.08154,-5.29664 0.193785,-13.313611 0.611847,-17.815481 0.706607,-7.60907 0.610309,-8.23322 -1.368077,-8.86708 -2.370823,-0.75959 -5.973671,-7.47755 -5.15923,-9.62004 0.28787,-0.75728 2.353338,-1.66151 4.589927,-2.0094 2.23659,-0.34788 5.118144,-0.94883 6.403453,-1.33543 1.877888,-0.56481 2.433979,-0.20794 2.831018,1.8168 0.271752,1.38581 1.12813,5.8418 1.903065,9.90218 1.770092,9.27467 3.744125,10.93298 8.053396,6.76535 3.093359,-2.99166 7.794491,-3.8126 10.809558,-1.88762 1.896039,1.21054 8.880723,-2.46954 11.060247,-5.82739 0.805938,-1.24166 2.521109,-6.05569 3.811486,-10.69783 2.246936,-8.08339 2.265646,-8.49968 0.442581,-9.84536 -1.046959,-0.77279 -3.192363,-1.40508 -4.767551,-1.40508 -1.675835,0 -3.14056,-0.72755 -3.530639,-1.75371 -0.577392,-1.51889 -0.03032,-1.66566 4.08576,-1.09615 3.109471,0.43024 5.774265,0.14811 7.708225,-0.8161 10.01268,-4.99194 10.22868,-5.01596 17.18719,-1.91139 3.54122,1.57993 6.43858,3.32288 6.43858,3.87322 0,0.55032 -0.78943,1.88116 -1.75429,2.95741 -1.59298,1.77689 -1.59756,1.9568 -0.0499,1.9568 0.93742,0 2.91741,-0.55791 4.39996,-1.2398 3.72829,-1.71479 6.63323,1.09117 7.55526,7.29782 1.04161,7.01167 -1.96629,21.9273 -5.6464,27.99947 l -3.02944,4.998581 0.63785,13.91038 c 0.38178,8.32608 0.21709,14.90579 -0.41025,16.38994 -1.43777,3.4014 1.89703,9.63663 5.63259,10.53152 1.50401,0.3603 3.92706,1.27416 5.38455,2.0308 1.4575,0.75664 3.48475,1.63912 4.50499,1.96107 2.19186,0.69166 2.43933,5.28698 0.72044,13.37775 -0.79846,3.75833 -1.55896,5.17595 -2.56716,4.7854 -0.78794,-0.30522 -2.39265,-0.0363 -3.56603,0.59763 -1.484,0.80173 -3.00597,0.8177 -4.99982,0.0524 -3.90385,-1.49828 -4.28455,-0.69933 -1.64726,3.45698 4.37199,6.89018 5.7371,10.70099 4.18839,11.69219 -0.77195,0.49405 -7.50896,0.90566 -14.97114,0.91467 -10.33893,0.0125 -14.34129,-0.38749 -16.81878,-1.68077 -1.78814,-0.93344 -4.208339,-1.44448 -5.378205,-1.13566 -1.237304,0.32662 -3.513341,-0.41663 -5.441169,-1.77683 -1.822772,-1.28607 -3.527555,-2.47514 -3.78841,-2.64236 -0.260855,-0.16723 0.316918,-1.65612 1.283943,-3.30865 2.402209,-4.10508 0.774286,-5.48976 -6.454155,-5.48976 -6.298208,0 -6.203423,-0.20072 -3.839459,8.1303 0.58638,2.06649 0.103349,2.29914 -6.069461,2.92371 -3.688601,0.37319 -7.779788,0.98395 -9.091535,1.35724 -3.695408,1.0516 -3.027391,-2.34652 1.324997,-6.7401 2.040495,-2.0598 3.709991,-3.86403 3.709991,-4.00939 0,-0.14535 -0.953998,-1.37466 -2.119995,-2.73179 -3.814167,-4.43939 -2.65076,-8.17214 3.972457,-12.74547 1.893357,-1.30737 3.707808,-3.44425 4.032114,-4.74863 0.760718,-3.05962 -1.320831,-16.25256 -2.989988,-18.95058 -1.025208,-1.65717 -0.981685,-2.56246 0.215572,-4.48394 1.806956,-2.89999 2.465257,-12.74443 1.198528,-17.92299 -0.503859,-2.0598 -1.211524,-5.069261 -1.572591,-6.687681 -0.361067,-1.61842 -1.302217,-2.94258 -2.091428,-2.94258 -1.83546,0 -2.707361,6.865371 -3.264315,25.703381 -0.339061,11.4681 -0.873279,15.51727 -2.57638,19.52804 -1.181739,2.78297 -2.846446,5.05995 -3.699348,5.05995 -2.317944,0 -5.944591,-5.22881 -5.944591,-8.57078 0,-5.04581 -1.269075,-9.61972 -2.669085,-9.61972 -1.769825,0 -2.630902,2.45149 -2.630902,7.49021 0,6.99424 -0.526308,7.4902 -7.948478,7.4902 -6.267738,0 -6.702038,-0.16238 -7.344446,-2.74616 -1.312439,-5.27867 -6.426475,-1.03438 -7.217926,5.99036 -0.201486,1.78833 0.722481,3.16946 3.322651,4.96664 4.499191,3.10975 4.949615,3.09925 7.96539,-0.18562 2.94904,-3.21212 3.802879,-3.35073 3.802879,-0.61732 0,1.13176 -1.377011,3.44779 -3.060025,5.14673 -1.683014,1.69894 -4.264207,5.46771 -5.735983,8.37504 -3.488377,6.89089 -6.582331,10.10118 -9.735134,10.10118 -3.710365,0 -5.848801,3.80368 -5.848801,10.40337 0,4.0909 -0.403529,5.64707 -1.464346,5.64707 -0.80539,0 -2.177066,2.1854 -3.048169,4.85646 -1.579451,4.84306 -1.576141,4.86052 1.199347,6.32081 4.969676,2.61474 11.701073,9.74117 13.864398,14.67807 3.606324,8.2298 2.931431,15.8563 -0.981953,11.0964 z M 9.8619566,83.221599 c 2.5293194,-2.31067 2.4760904,-4.64929 -0.1058195,-4.64929 -2.0237462,0 -5.3757021,2.60528 -5.3757021,4.17821 0,2.61723 2.862961,2.86327 5.4815216,0.47108 z M 171.01204,212.11192 c -1.71994,-1.7362 -1.66786,-2.059 1.43808,-8.91352 2.30188,-5.08005 3.41947,-6.28786 7.41998,-8.0189 2.59044,-1.12091 4.70991,-2.58107 4.70991,-3.2448 0,-0.66374 0.94747,-2.4227 2.10548,-3.90881 1.89054,-2.42618 2.17906,-2.50849 2.82613,-0.80629 1.62787,4.2823 -1.59383,11.06655 -8.88267,18.70512 -3.92102,4.1092 -7.40269,7.4713 -7.73702,7.4713 -0.33434,0 -1.18029,-0.5778 -1.87989,-1.2841 z m -99.563539,-5.8937 c -1.197129,-1.0546 -2.455293,-3.4824 -2.795913,-5.39507 -0.562678,-3.15965 -0.378016,-3.4776 2.019773,-3.4776 2.838397,0 7.122133,5.56334 6.581874,8.54797 -0.425621,2.3512 -3.321523,2.5132 -5.805734,0.3247 z M 48.937625,176.01531 c -1.826915,-3.44592 -1.321147,-5.42049 1.388414,-5.42049 2.499055,0 5.994273,2.94001 5.994273,5.0421 0,0.97521 -3.211015,2.38883 -5.527691,2.4335 -0.416737,0.009 -1.251485,-0.91677 -1.854996,-2.05511 z M 187.76,176.90196 c 0,-0.6507 -1.19263,-2.61386 -2.6503,-4.3626 -1.45766,-1.74872 -2.94978,-4.384 -3.31581,-5.85617 -1.0433,-4.19621 -6.20739,-9.32257 -8.72238,-8.65866 -2.98205,0.78719 -3.17172,-0.49597 -1.77977,-12.04038 1.69319,-14.04276 1.3078,-43.89933 -0.66211,-51.294151 -1.84831,-6.93834 -3.55427,-7.9907 -4.52099,-2.78889 -1.69729,9.132981 -8.55857,1.02096 -8.55857,-10.11871 0,-5.41661 -0.1824,-5.85979 -2.29109,-5.56645 -2.75165,0.38278 -3.9153,-1.18097 -3.01339,-4.04952 0.75856,-2.4126 6.29089,-4.20715 12.72447,-4.12748 6.34907,0.0787 6.88998,-0.0447 6.88998,-1.57178 0,-0.77267 1.38042,-2.7399 3.06761,-4.37163 3.55174,-3.43497 5.71425,-10.14374 5.22431,-16.20735 -0.28981,-3.58674 -0.74592,-4.2883 -2.99193,-4.60192 -5.62824,-0.78591 -7.37801,-5.84059 -2.65,-7.65519 1.4575,-0.55937 2.65,-1.25629 2.65,-1.54866 0,-0.29239 -2.6235,-1.3015 -5.82999,-2.24247 -6.54725,-1.92136 -7.75559,-3.22449 -2.13636,-2.30399 2.03149,0.33279 5.24565,0.15573 7.14258,-0.39344 3.2084,-0.92887 3.77177,-0.67266 8.07697,3.67329 3.45,3.48265 4.83707,5.86542 5.44934,9.36119 1.89594,10.82469 0.79272,137.908031 -1.19719,137.908031 -0.49796,0 -0.90538,-0.53239 -0.90538,-1.18307 z M 110.96413,45.032899 c -1.48717,-1.96824 -2.70394,-4.19026 -2.70394,-4.93783 0,-0.74759 -1.27422,-3.72257 -2.8316,-6.61107 l -2.83162,-5.25183 2.30162,-4.13391 c 3.52565,-6.33242 3.13384,-7.6473 -2.20339,-7.39425 -2.47774,0.11748 -5.27888,-0.14668 -6.224747,-0.587 -1.390728,-0.64744 -1.624415,-0.29708 -1.221372,1.83124 0.601358,3.17558 -1.85772,4.30061 -6.598845,3.01899 -3.170208,-0.85698 -3.180936,-0.88663 -3.488134,-9.63037 l -0.308141,-8.7707599 14.618108,0.0979 c 8.039961,0.0538 16.105111,0.34391 17.922561,0.64456 3.19551,0.52861 3.28779,0.69595 2.79878,5.07554 -0.66205,5.9292499 1.41062,8.1264999 7.66575,8.1264999 5.12417,0 7.96096,0.80668 7.96096,2.2638 0,0.53065 -1.43099,2.95895 -3.17999,5.39622 -1.74899,2.43726 -3.17999,5.07032 -3.17999,5.85122 0,1.07444 -3.56372,4.13749 -6.03886,5.19043 -0.11487,0.0489 -0.48792,1.75952 -0.82899,3.80145 -0.55217,3.30577 -5.83017,9.47757 -8.18317,9.56897 -0.40758,0.0158 -1.95783,-1.58159 -3.44499,-3.54981 z m 36.17313,-24.9949 c -1.31831,-0.34408 -1.70302,-1.07007 -1.21003,-2.28343 0.39753,-0.97844 1.17776,-3.37051 1.73383,-5.31571 1.1227,-3.9273299 3.76754,-5.6061199 5.20977,-3.3068599 1.32296,2.1091099 1.18919,5.4038699 -0.35574,8.7619799 -1.32941,2.88964 -1.80091,3.07762 -5.37783,2.14402 z M 25.315386,17.913069 c -2.799912,-0.73861 -2.251573,-2.73469 1.854995,-6.7526 l 3.709991,-3.6298899 0,3.8785699 c 0,2.13322 -0.749569,4.63524 -1.66571,5.56005 -1.476939,1.80887 -2.143964,1.40908 -3.899276,0.94387 z M 35.650361,3.6702691 c 0.360314,-0.58852 1.132114,-1.07003 1.715112,-1.07003 0.582999,0 0.765197,0.48151 0.404883,1.07003 -0.360313,0.58851 -1.132113,1.07003 -1.715112,1.07003 -0.582998,0 -0.765196,-0.48152 -0.404883,-1.07003 z"
     style="fill:#483815"
     sodipodi:nodetypes="ccsscssscscsssscccsssssccsssscsssssssssssssccssssssssssssssssssssssssssssssssssscsssssssscsssssssssssssssssssssssssssssssssssssssssssssssssssssssssssssssscsssssssssssssssssssssssssssscsssssscssssssscscssssssscscsccsssss" />
  <path
     inkscape:connector-curvature="0"
     id="path3274"
     d="m 103.4902,232.68352 c -3.497991,-1.0977 -8.744978,-2.0417 -11.659971,-2.0978 -8.566635,-0.1649 -9.028805,-1.1075 -3.903282,-7.9604 3.577746,-4.7836 5.193066,-6.0604 8.406024,-6.6449 5.424029,-0.9866 6.809079,-2.3569 6.464389,-6.3956 -0.16146,-1.8918 0.3747,-4.2525 1.19147,-5.2459 1.27528,-1.55118 1.27007,-1.94954 -0.0368,-2.82014 -0.83701,-0.55759 -2.6841,-0.81124 -4.104647,-0.56367 -3.611856,0.62948 -5.367181,-0.27054 -5.367181,-2.75198 0,-1.95662 0.509425,-2.07298 6.480688,-1.48037 10.53083,1.04514 20.42013,3.94553 30.61922,8.98016 5.63848,2.7834 8.01423,6.0959 5.11334,7.1295 -7.37594,2.6282 -7.35614,2.6127 -6.17359,4.8432 0.80562,1.5195 1.83952,1.988 3.48766,1.5801 1.28842,-0.3189 3.77358,-0.6178 5.52258,-0.6643 3.81379,-0.1016 21.75937,3.0366 22.67479,3.9649 1.40074,1.4204 -4.49905,4.7501 -8.41648,4.7501 -5.20353,0 -17.36865,2.8421 -21.58414,5.0426 -5.0403,2.6311 -20.81015,2.8148 -28.71409,0.3345 z m -75.638351,-8.923 c -0.791188,-0.9706 -5.839462,-4.7027 -11.218385,-8.2935 -14.181722,-9.4673 -13.7735159,-8.3656 -14.1948024,-38.31092 -0.1989,-14.13804 0.06767,-25.42801 0.6134004,-25.97889 0.5802363,-0.58574 2.0554868,-0.10857 3.698962,1.19643 1.5035821,1.1939 3.0864202,2.17074 3.517418,2.17074 0.431,0 2.774416,-1.64673 5.207593,-3.6594 4.492386,-3.71602 5.982492,-3.77335 7.261454,-0.27943 0.492599,1.34571 1.351936,1.74145 2.784698,1.28241 2.996606,-0.96009 8.538178,2.23592 8.538178,4.92425 0,1.21709 -1.550246,4.84725 -3.444992,8.06703 -2.520607,4.28334 -4.235853,6.01677 -6.392369,6.46017 -3.735167,0.76801 -7.122599,5.05824 -7.122599,9.0209 0,1.89788 -0.803723,3.56342 -2.119995,4.39321 -1.573392,0.99191 -2.119995,2.49534 -2.119995,5.83108 0,2.47203 -0.476999,4.79218 -1.059998,5.15591 -2.1783484,1.35903 -0.940213,3.90482 2.631838,5.41145 2.418787,1.02019 4.412605,2.98336 5.782065,5.69306 1.149627,2.2748 3.024925,4.3828 4.167328,4.6843 2.78188,0.7344 5.6408,6.5629 5.235853,10.6745 -0.29203,2.9651 -0.481451,3.1321 -1.765652,1.5567 z m 144.022661,-13.8421 c 0.0421,-3.8893 1.42402,-6.1527 3.75659,-6.1527 3.62061,0 4.19917,1.9459 1.4552,4.8944 -2.59871,2.7923 -5.23527,3.4289 -5.21179,1.2583 z m 6.90341,-11.45727 c -0.34496,-0.56345 0.93863,-1.81922 2.85243,-2.79059 1.91382,-0.97137 4.35374,-2.79756 5.42207,-4.05818 1.93789,-2.28671 1.94096,-2.28355 1.3187,1.35107 -0.34303,2.00372 -1.15627,4.2909 -1.8072,5.08264 -1.35778,1.65151 -6.84974,1.94429 -7.786,0.41506 z m -61.71169,-20.3266 c -1.02147,-1.20427 -2.62205,-2.18958 -3.55686,-2.18958 -2.60851,0 -6.30918,-4.61046 -6.30918,-7.86027 0,-1.59895 -0.59625,-3.12197 -1.32499,-3.38446 -2.13362,-0.76853 -15.41488,-1.80052 -25.379419,-1.97204 -9.510742,-0.1637 -11.121154,-0.78604 -11.48592,-4.43871 -0.3915,-3.92043 0.0095,-4.74902 3.067484,-6.34557 1.670376,-0.87196 3.769309,-3.17151 4.664286,-5.11011 2.122465,-4.59742 1.270672,-14.17913 -1.630647,-18.34304 -2.016582,-2.89414 -2.036128,-3.23353 -0.387249,-6.72398 0.955089,-2.0218 1.719538,-6.18762 1.698773,-9.25736 -0.04261,-6.29608 -2.384051,-17.280211 -4.138453,-19.414151 -1.804031,-2.1943 3.185717,-4.88343 9.173907,-4.9441 2.789755,-0.0283 6.555926,-0.87092 8.369285,-1.87255 7.687006,-4.24606 12.402003,-8.09381 13.492813,-11.01106 0.64071,-1.71349 1.68227,-3.11543 2.31459,-3.11543 1.54619,0 7.92553,-6.72289 7.92553,-8.35233 0,-0.71239 -1.93121,-2.07529 -4.29157,-3.02867 -4.8625,-1.96399 -5.2198,-4.30914 -0.99903,-6.55704 2.82394,-1.50397 8.1821,-1.21071 13.05871,0.7147 l 2.99813,1.18374 -2.20313,3.59847 c -1.21172,1.97916 -2.20313,3.90277 -2.20313,4.27469 0,0.37193 2.09547,0.67623 4.65658,0.67623 5.58816,0 5.94232,0.62789 6.63905,11.77032 0.72881,11.65555 0.78999,11.29525 -2.81565,16.58545 -1.82348,2.67543 -3.2618,5.69597 -3.19626,6.71233 0.95863,14.865911 1.07586,26.743801 0.30043,30.437761 -0.57613,2.74452 -0.57538,6.07588 0.002,8.30974 0.82955,3.21027 0.65557,3.93509 -1.25125,5.21315 -2.79286,1.87194 -2.82995,4.02588 -0.0948,5.50356 1.16599,0.62992 2.11999,2.0914 2.11999,3.24773 0,3.22191 3.14822,2.52908 3.81772,-0.84017 0.54489,-2.74211 0.97638,-2.95659 6.33349,-3.14838 4.80895,-0.17216 5.74875,0.095 5.74875,1.63446 0,2.55674 -2.97838,6.59656 -4.86336,6.59656 -0.85973,0 -1.84203,0.73361 -2.18287,1.63025 -0.45908,1.20764 -1.52588,1.45863 -4.11545,0.96822 -2.81914,-0.53388 -3.71645,-0.24572 -4.63603,1.4888 -0.93917,1.77145 -0.50044,3.1106 2.48752,7.59271 4.01952,6.02951 5.34664,9.29176 4.07834,10.02514 -0.46097,0.26654 -3.80513,0.81085 -7.43148,1.20959 -5.8405,0.6422 -6.80541,0.47496 -8.45055,-1.4646 z m 69.14336,-6.79355 c -1.04202,-1.60538 -1.89458,-4.15011 -1.89458,-5.65496 0,-1.90999 -0.77469,-3.03342 -2.5658,-3.72084 -1.50238,-0.57661 -3.42207,-2.87283 -4.63182,-5.54031 l -2.06603,-4.55558 3.31481,-2.87138 c 2.41484,-2.09181 3.10754,-3.39911 2.55142,-4.81513 -0.41985,-1.06907 -0.97846,-4.83283 -1.24135,-8.36393 -0.26289,-3.53109 -0.89815,-7.62396 -1.41166,-9.09525 -0.51353,-1.47129 -1.18271,-7.83033 -1.48707,-14.1312 -0.30437,-6.30087 -1.0917,-12.47148 -1.74961,-13.712451 -1.96758,-3.71124 -0.24411,-21.3531 2.36815,-24.24105 1.29289,-1.42934 1.77841,-2.86357 1.25744,-3.71448 -1.7477,-2.85461 -0.59851,-8.2731 3.40566,-16.05787 2.62714,-5.10761 1.86551,-10.0769 -2.24913,-14.67441 -2.04049,-2.27996 -3.70999,-4.37194 -3.70999,-4.64884 0,-0.27691 2.0093,-1.11116 4.4651,-1.8539 4.2917,-1.29799 4.56029,-1.23872 6.91631,1.52623 6.7205,14.61573 2.35574,50.72109 2.31955,68.860411 -0.0724,36.29107 -0.48382,66.92875 -0.91424,68.08377 -0.7325,1.96564 -0.90382,1.91324 -2.67716,-0.81883 z M 11.51476,144.26909 c -0.351446,-0.35478 -0.179773,-1.86432 0.381494,-3.35452 1.069155,-2.83871 -1.063335,-7.77077 -3.3598688,-7.77077 -2.84229,0 -5.0385635,-9.22682 -5.7886082,-24.31866 C 1.9118068,92.004369 1.3085453,94.259559 8.8584623,85.981279 c 2.4513527,-2.68784 7.4443997,-3.93908 8.0767717,-2.02402 0.262042,0.79357 1.758894,2.6753 3.326338,4.18161 1.567445,1.50633 3.936621,4.56946 5.264836,6.80696 2.24745,3.78606 2.71902,4.04579 6.799444,3.74511 3.816686,-0.28125 4.624261,-0.8081 6.235809,-4.06819 1.018217,-2.05981 2.329964,-3.69695 2.914993,-3.6381 2.710792,0.2727 3.186234,0.5735 4.336968,2.74402 0.675329,1.27381 1.646764,8.616891 2.158745,16.317951 1.149252,17.28672 1.140357,16.99324 0.732527,24.16721 l -0.334563,5.88516 -5.796018,-0.16464 c -3.492762,-0.0992 -5.967477,-0.68388 -6.227486,-1.47129 -0.775199,-2.34761 -4.456926,-5.41408 -5.625232,-4.68518 -0.627796,0.39166 -2.063715,2.8168 -3.190931,5.38917 -2.295833,5.23922 -4.680534,6.01046 -6.190269,2.00197 -1.350483,-3.58566 -3.710452,-3.37517 -5.998601,0.53501 -1.893604,3.23595 -2.656132,3.74703 -3.827034,2.56506 z m 46.660548,-12.28103 c -2.208726,-1.29864 -2.516436,-8.08114 -0.608294,-13.40795 0.97704,-2.72752 0.940566,-4.76851 -0.168625,-9.43589 -1.152467,-4.84949 -1.166811,-6.8007 -0.07723,-10.506041 1.701053,-5.78477 2.818165,-7.1363 5.346796,-6.46879 1.447538,0.38212 2.038458,1.50134 2.060229,3.90215 0.01679,1.85149 0.05389,4.757341 0.08245,6.457451 0.02856,1.70012 -0.738723,3.97303 -1.705065,5.05093 -1.640948,1.83039 -1.604512,2.33905 0.551707,7.7019 3.047921,7.58068 3.072523,9.23399 0.20703,13.91433 -2.619574,4.27867 -2.914301,4.42332 -5.688994,2.79191 z M 2.2749143,51.019059 c 0.015116,-10.89805 0.651043,-15.24792 2.2291493,-15.24792 0.5150029,0 0.9363689,1.16446 0.9363689,2.5877 0,1.52111 1.9829903,4.93282 4.8109935,8.27727 5.671453,6.70716 5.863346,9.57976 0.71058,10.63732 -1.9186229,0.39378 -4.3411762,1.49502 -5.3834526,2.44719 -1.0422754,0.95217 -2.2152369,1.73122 -2.6065805,1.73122 -0.3913426,0 -0.7050192,-4.69475 -0.6970586,-10.43278 z M 115.68017,41.656299 c -0.72577,-0.88277 -2.23014,-1.60504 -3.34305,-1.60504 -1.11291,0 -2.28182,-0.84265 -2.59758,-1.87255 -0.31576,-1.0299 -1.01629,-2.70866 -1.55673,-3.73058 -1.28788,-2.43525 -1.24974,-5.46953 0.0857,-6.81761 0.58758,-0.59314 1.68053,-3.21738 2.42878,-5.83166 0.94724,-3.30951 2.20898,-5.16582 4.15412,-6.11164 2.47185,-1.20192 3.23401,-1.05676 6.6161,1.26011 2.10233,1.44018 4.40297,2.81581 5.11253,3.05695 0.98306,0.33409 0.9977,0.79817 0.0615,1.94998 -1.86916,2.29974 -5.66131,14.39898 -5.66131,18.06324 0,2.45998 -0.48093,3.24385 -1.99021,3.24385 -1.09461,0 -2.58401,-0.72227 -3.30978,-1.60505 z m 50.39406,-23.78615 c -7.02585,-2.07179 -6.12674,-5.66288 -9.58415,-9.4858699 -3.1212,-3.3997 -3.34305,-4.71467 -0.795,-4.71226 1.02025,9.6e-4 5.1624,3.37156 9.20478,7.4902099 7.22342,7.3597 7.38827,8.30127 1.17437,6.70792 z M 24.520387,15.701529 c 0,-0.52687 1.234159,-2.12526 2.742574,-3.55202 l 2.742574,-2.5940799 -0.357579,3.2100799 c -0.264777,2.37698 -0.976561,3.29883 -2.742574,3.55202 -1.311747,0.18806 -2.384995,-0.0891 -2.384995,-0.616 z M 86.64365,11.607969 C 86.28977,10.677059 86.000242,8.5102491 86.000242,6.7928391 l 0,-3.12257 15.970368,0 15.97037,0 -0.33541,2.94258 c -0.3193,2.80133 -0.63986,2.95834 -6.67855,3.27096 -3.62778,0.1878099 -7.06958,0.9919999 -8.04008,1.8786199 -1.48434,1.356 -2.12499,1.33467 -5.113549,-0.17033 -3.134105,-1.57829 -3.571799,-1.5788 -5.293352,-0.006 -2.392913,2.18605 -5.009983,2.19588 -5.836389,0.0219 z"
     style="fill:#000000"
     sodipodi:nodetypes="ccsssssssssssscsssccsscsssssssssssssssscsssssssssscsscsscssssssssssssscssssssscsssssssssssssccsssscssssssssssssccsssssssssssssssscsscssssssssssssssssssssssssssscsssscsssccsscsscssscscccssssccc" />
</svg>
