<?xml version="1.0" encoding="UTF-8" standalone="no"?>
<!-- Created with Inkscape (http://www.inkscape.org/) -->

<svg
   xmlns:dc="http://purl.org/dc/elements/1.1/"
   xmlns:cc="http://creativecommons.org/ns#"
   xmlns:rdf="http://www.w3.org/1999/02/22-rdf-syntax-ns#"
   xmlns:svg="http://www.w3.org/2000/svg"
   xmlns="http://www.w3.org/2000/svg"
   xmlns:sodipodi="http://sodipodi.sourceforge.net/DTD/sodipodi-0.dtd"
   xmlns:inkscape="http://www.inkscape.org/namespaces/inkscape"
   width="256"
   height="256"
   id="svg2"
   version="1.1"
   inkscape:version="0.48.5 r10040"
   sodipodi:docname="application.svg">
  <defs
     id="defs4" />
  <sodipodi:namedview
     id="base"
     pagecolor="#ffffff"
     bordercolor="#666666"
     borderopacity="1.0"
     inkscape:pageopacity="0.0"
     inkscape:pageshadow="2"
     inkscape:zoom="1.4"
     inkscape:cx="328.84011"
     inkscape:cy="121.45525"
     inkscape:document-units="px"
     inkscape:current-layer="layer1"
     showgrid="false"
     inkscape:window-width="1440"
     inkscape:window-height="834"
     inkscape:window-x="0"
     inkscape:window-y="27"
     inkscape:window-maximized="1" />
  <metadata
     id="metadata7">
    <rdf:RDF>
      <cc:Work
         rdf:about="">
        <dc:format>image/svg+xml</dc:format>
        <dc:type
           rdf:resource="http://purl.org/dc/dcmitype/StillImage" />
        <dc:title />
      </cc:Work>
    </rdf:RDF>
  </metadata>
  <g
     inkscape:label="Layer 1"
     inkscape:groupmode="layer"
     id="layer1"
     transform="translate(0,-796.36218)">
    <g
       id="g3793"
       transform="matrix(1.0599975,0,0,1.0700292,-8.1394596,-58.518515)">
      <path
         inkscape:connector-curvature="0"
         id="path3106-3"
         d="m 178.53125,801.84375 c -35.74991,0.1271 -71.49994,0.21162 -107.25,0.28125 -10.258004,10.86286 -20.682499,21.56661 -31.0625,32.3125 0.542523,54.87211 -0.153751,109.7712 1.375,164.625 -0.353768,12.8517 11.95898,20.4016 19.65625,28.7813 2.905316,3.6645 6.880146,5.5028 11.53125,5.3124 34.51456,3.7566 69.72996,4.1599 104.3125,1.0938 13.27569,-0.5447 20.39512,-13.3171 28.40625,-22.0938 7.04543,-7.3874 9.67234,-17.17163 10.41329,-27.12601 2.15465,-24.29126 0.95354,-48.80856 1.44898,-73.18642 -0.42482,-26.05509 0.89883,-52.25012 -1.14352,-78.21877 -8.62772,-11.83627 -20.14374,-21.34846 -30.34375,-32 -2.44792,0.0729 -4.89583,0.14583 -7.34375,0.21875 z"
         style="fill:#ffffff" />
      <g
         id="g3094">
        <path
           inkscape:connector-curvature="0"
           id="path3108"
           d="m 72.916544,1037.3871 c -5.499531,-1.0067 -9.535664,-3.9923 -20.556989,-15.2068 -8.465998,-8.6143 -10.438718,-11.2263 -11.946785,-15.8181 -1.670772,-5.0872 -1.83407,-11.78505 -2.175804,-89.24259 l -0.369462,-83.74257 9.816248,-10.14272 c 5.398936,-5.5785 12.641719,-13.11637 16.095071,-16.75084 l 6.278824,-6.60811 18.721176,-0.69458 C 99.075471,798.79877 114.25,798.86428 122.5,799.32636 c 8.25,0.46208 25.9245,0.59297 39.27666,0.29086 l 24.27666,-0.54928 14.94344,14.82423 c 8.2189,8.15332 15.64587,16.30447 16.50438,18.11366 1.38124,2.91073 1.51851,11.72634 1.1924,76.57289 -0.23201,46.13393 -0.78846,76.72519 -1.50199,82.57357 -1.73255,14.20061 -4.50769,19.20741 -19.15569,34.56021 -9.96193,10.4413 -11.07903,10.8326 -33.53586,11.7486 -22.48546,0.9171 -86.450836,0.8654 -91.583456,-0.074 z m 0.01126,-66.79967 C 72.967511,969.88632 71.875,968.88495 70.5,968.36218 69.071346,967.81901 68,966.61542 68,965.5536 c 0,-3.02189 -1.200404,-3.35178 -3.689057,-1.01381 -1.80351,1.69431 -2.608512,1.92482 -3.524187,1.00915 C 58.950532,963.71271 58,964.13275 58,966.78039 c 0,3.84117 0.959043,5.40526 2.988834,4.87446 1.332527,-0.34846 2.321288,0.40636 3.488191,2.6629 l 1.628523,3.14922 3.375029,-2.8024 c 1.856266,-1.54131 3.407517,-3.37603 3.447226,-4.07714 z m 25.631067,2.30655 c 1.903049,-1.43939 1.899399,-1.46882 -0.186425,-1.5 -1.170157,-0.0175 -2.687757,0.6432 -3.372446,1.4682 -1.699213,2.04743 0.863698,2.07033 3.55887,0.0318 z M 201.2,966.16218 c -0.95238,-0.95238 -1.5902,-0.83828 -2.95714,0.52902 -1.52377,1.52416 -1.5543,1.85992 -0.24286,2.67098 2.1325,1.31884 4.92567,-1.47433 3.2,-3.2 z m -24.10625,0.0683 c 1.53156,-2.15089 1.94436,-3.58438 1.31809,-4.57722 -1.26937,-2.01237 -2.66271,-1.89464 -3.83545,0.32408 -0.54793,1.03663 -1.81525,3.12229 -2.81625,4.63479 -1.8188,2.74816 -1.81837,2.75 0.64183,2.75 1.617,0 3.22709,-1.0747 4.69178,-3.13165 z M 196,847.86218 l 2.5,-1.42913 -2.5,-0.004 c -1.375,-0.002 -3.37351,0.65706 -4.44113,1.46456 -1.92151,1.45336 -1.92151,1.46784 0,1.43277 1.06762,-0.0195 3.06613,-0.67858 4.44113,-1.4646 z m -16.55945,-3.04961 c 1.18867,-1.81415 1.67056,-4.73077 1.67056,-10.11111 0,-4.15882 -0.22777,-7.78927 -0.50616,-8.06766 -0.27838,-0.27839 -2.55594,-0.7372 -5.06122,-1.01958 -3.91425,-0.44119 -4.9096,-0.1589 -7.07508,2.00659 -2.26013,2.26012 -4.5647,3.47801 -9.58229,5.06392 -1.12094,0.3543 -1.61363,1.69791 -1.61363,4.40053 0,3.62056 0.18135,3.86541 2.61363,3.52885 2.07704,-0.2874 2.97366,0.28345 4.36723,2.7805 1.62807,2.91725 2.03229,3.09507 5.64737,2.4843 2.39042,-0.40386 4.14925,-0.24451 4.55543,0.41271 1.12299,1.81704 3.23517,1.19025 4.98416,-1.47905 z m -66.25766,-5.27115 c 0.3756,-0.37358 0.027,-3.50065 -0.77458,-6.94905 -1.44884,-6.23264 -0.81312,-10.23019 1.62687,-10.23019 2.12989,0 0.76403,-3.07495 -2.53515,-5.70737 -1.92498,-1.53595 -3.49998,-3.58013 -3.5,-4.54263 -2e-5,-0.9625 -0.67503,-1.75 -1.50003,-1.75 -1.80313,0 -1.85759,0.45454 -0.34471,2.87705 0.92734,1.4849 0.70791,2.77409 -1.11204,6.53362 -3.25519,6.72432 -3.1848,17.19344 0.13303,19.78357 2.20683,1.72281 6.2671,1.7152 8.00661,-0.015 z M 86,838.9212 c 0,-1.50117 -1.795335,-3.09702 -2.59007,-2.30228 -0.697477,0.69747 0.683371,3.74326 1.697059,3.74326 C 85.598145,840.36218 86,839.71374 86,838.9212 z M 73.5,827.36218 c 0.339919,-0.55 0.141476,-1 -0.440983,-1 -0.582459,0 -1.059017,0.45 -1.059017,1 0,0.55 0.198442,1 0.440983,1 0.242541,0 0.719098,-0.45 1.059017,-1 z m 5.802725,-8.75 c 0.231417,-0.4125 0.710126,-1.96191 1.063798,-3.44314 0.53908,-2.25774 0.197673,-2.91089 -2.111741,-4.03999 -1.700713,-0.8315 -2.641175,-2.00628 -2.457872,-3.07024 0.389814,-2.26265 -2.39365,-3.2762 -4.407446,-1.60489 -3.357638,2.78659 1.132122,12.90826 5.725833,12.90826 0.971668,0 1.95601,-0.3375 2.187428,-0.75 z M 105,804.36218 c 0,-0.55 -0.19844,-1 -0.44098,-1 -0.24254,0 -0.7191,0.45 -1.05902,1 -0.33992,0.55 -0.14148,1 0.44098,1 0.58246,0 1.05902,-0.45 1.05902,-1 z"
           style="fill:#ffe750;fill-opacity:1" />
        <path
           inkscape:connector-curvature="0"
           id="path3106"
           d="m 117.32607,1037.2631 c -1.96641,-0.5692 -3.99479,-2.2469 -5.33156,-4.4098 -2.4698,-3.9962 -4.12947,-4.3167 -7.72164,-1.4911 -1.82927,1.4389 -4.05678,2 -7.939847,2 -6.815561,0 -10.984302,-1.7712 -14.997689,-6.3721 -1.740566,-1.9954 -3.624505,-3.6279 -4.186531,-3.6279 -0.562026,0 -2.287926,2.3625 -3.835334,5.25 -2.232953,4.1667 -3.392379,5.3164 -5.619155,5.5718 -2.411805,0.2766 -4.401173,-1.2677 -14.170603,-11 -9.798723,-9.7616 -11.609692,-12.0798 -13.141099,-16.8218 -1.630634,-5.0493 -1.806458,-12.36229 -2.145646,-89.24259 l -0.369462,-83.74257 9.816248,-10.14272 c 5.398936,-5.5785 12.643383,-13.11934 16.098771,-16.75743 l 6.282523,-6.61471 17.217477,-0.31262 c 9.918245,-0.18009 16.793537,0.0588 16.217477,0.56356 -0.55,0.48191 -3.683379,1.68831 -6.963064,2.68089 -5.961228,1.80414 -5.962382,1.80525 -3.75,3.59672 2.850287,2.30803 2.836955,4.19956 -0.02672,3.791 -1.299738,-0.18543 -2.394162,-1.15896 -2.607609,-2.31955 -0.766923,-4.17005 -2.197159,-4.78531 -9.789293,-4.21112 C 71.225165,804.34218 69,805.49493 69,809.53783 c 0,1.70791 -0.961166,5.17958 -2.135924,7.71482 -1.174759,2.53524 -2.605666,5.63112 -3.179794,6.87974 -1.149675,2.50031 -0.330737,3.82545 2.708535,4.38272 1.041049,0.19089 2.242048,1.02207 2.668887,1.84707 0.426839,0.825 2.098217,4.16625 3.714173,7.425 2.120242,4.2757 3.530576,5.96865 5.06652,6.08181 C 80.293328,844.04955 84,847.08583 84,848.91292 c 0,0.68242 -2.256663,2.68886 -5.014806,4.45876 -3.861798,2.47811 -5.643685,3.06295 -7.75,2.54365 C 61.287982,853.46291 59,854.35715 59,860.69736 c 0,2.34565 -0.509218,4.77404 -1.131596,5.39642 -2.197618,2.19761 5.291212,4.22249 13.172767,3.56173 8.085611,-0.67787 11.487266,-2.69419 12.747025,-7.55576 0.602373,-2.32463 1.576313,-3.33492 3.76229,-3.90269 1.622232,-0.42135 4.523196,-2.08115 6.446586,-3.68844 l 3.497072,-2.92234 -3.798206,-2.241 c -3.304916,-1.94994 -3.719925,-2.5974 -3.195465,-4.98525 0.430406,-1.95963 0.159106,-2.9145 -0.948866,-3.33967 C 88.56267,840.64087 88,839.16878 88,836.96095 c 0,-2.58574 -0.507078,-3.62494 -2,-4.09877 -1.1,-0.34913 -2,-1.51079 -2,-2.58148 0,-2.06445 5.656515,-7.83974 7.726947,-7.88921 1.898846,-0.0454 3.935916,3.85077 5.715943,10.93241 1.779984,7.08146 2.289529,7.64833 7.69597,8.56174 5.79466,0.979 9.58483,-1.49374 10.37223,-6.76695 0.34957,-2.34108 0.17698,-5.45915 -0.38355,-6.92905 -0.78464,-2.05759 -0.68646,-2.94863 0.42666,-3.87244 2.00449,-1.66358 1.82677,-2.76676 -1.0542,-6.54391 -3.01332,-3.95067 -3.02294,-4.0411 -0.5,-4.70086 1.66748,-0.43606 2,-1.36402 2,-5.58145 0,-5.65712 -1.58019,-7.31403 -6.14343,-6.44171 -1.4727,0.28152 -2.94571,-0.0223 -3.36028,-0.69309 -0.56797,-0.91899 4.64989,-1.06056 22.63278,-0.61404 12.85401,0.31916 26.40312,0.58924 30.10914,0.60017 5.83512,0.0172 6.70628,0.25441 6.5,1.76987 -0.38433,2.82343 1.62851,2.97186 2.94866,0.21744 1.13702,-2.37231 1.7329,-2.54762 9.41763,-2.77064 l 8.20381,-0.23808 14.81595,14.69775 c 8.14877,8.08376 15.5044,16.14855 16.34584,17.92177 1.32807,2.7987 1.5299,12.48929 1.5299,73.45759 0,41.91219 -0.40325,72.80035 -1,76.59887 -0.55,3.50092 -1.47157,9.34676 -2.04794,12.99076 -1.24163,7.85006 -4.58548,13.22086 -16.8975,27.14026 -11.16669,12.6245 -12.61994,13.2774 -33.05456,14.8507 -19.09776,1.4704 -44.07248,1.6164 -48.67393,0.2845 z m -30.444104,-27.0352 c 1.989919,-1.1738 4.573541,-3.2472 5.741384,-4.6075 2.592762,-3.0202 6.062647,-2.3575 6.989354,1.3348 0.339544,1.3529 1.436006,2.8979 2.436586,3.4334 2.75459,1.4742 10.60168,1.1797 12.24074,-0.4593 1.66741,-1.6674 3.15485,-9.5596 1.99773,-10.59973 -0.43327,-0.38947 -2.9514,-0.98644 -5.59586,-1.32659 -4.32852,-0.55678 -5.05494,-0.35212 -7.28283,2.05182 -2.31272,2.4955 -2.58418,2.5608 -4.146409,0.9986 -1.562228,-1.56222 -1.554403,-1.75741 0.119535,-2.98142 1.675174,-1.22492 1.623644,-1.38611 -0.795495,-2.48834 C 96.617533,994.68642 96,993.66804 96,991.31788 c 0,-1.69795 -0.477626,-3.97964 -1.061391,-5.07041 -1.533221,-2.86485 0.554263,-8.78991 4.241039,-12.03766 2.904802,-2.5589 2.936372,-2.67603 0.895652,-3.32373 -2.415542,-0.76666 -11.37135,1.92297 -13.020806,3.91044 -0.604685,0.7286 -1.283927,3.17929 -1.509426,5.44598 -0.2255,2.26669 -1.337776,5.42419 -2.471726,7.01668 -2.013977,2.82837 -2.16029,2.86653 -6.317534,1.64753 -4.478549,-1.31321 -7.64344,-5.08312 -6.411963,-7.63771 2.368837,-4.91393 4.709483,-7.63245 7.954937,-9.23918 C 80.334452,971.02203 82,969.7666 82,969.23998 c 0,-1.43615 -3.931051,-8.85841 -4.770324,-9.00689 -5.279753,-0.9341 -9.979288,-0.47333 -12.343636,1.21024 -1.48213,1.05537 -3.611257,1.91885 -4.731394,1.91885 -2.940381,0 -3.452257,1.46244 -2.678764,7.65326 0.490376,3.92484 1.346642,6.07514 2.987185,7.50158 1.583405,1.37675 2.512471,3.6031 2.982637,7.14739 0.375582,2.83127 1.024959,5.60902 1.44306,6.17277 0.418101,0.56375 1.601305,3.95 2.629343,7.525 2.715112,9.44182 3.770789,10.71412 9.804499,11.81652 2.847567,0.5202 5.349279,0.9993 5.55936,1.0647 0.210081,0.065 2.010081,-0.8416 4,-2.0155 z m 93.655884,-15.22024 c -0.17147,-1.84499 -0.81264,-4.29041 -1.42481,-5.43426 C 178.50087,988.42954 178,985.94418 178,984.05037 c 0,-4.09936 2.05221,-6.24562 4.68608,-4.90083 0.99765,0.50938 4.56108,1.4504 7.91872,2.09115 4.83227,0.92216 6.91675,0.89415 10,-0.13439 3.68867,-1.2305 3.87965,-1.49676 3.60192,-5.02176 -0.16131,-2.0473 0.0637,-3.72925 0.5,-3.73767 0.4363,-0.008 1.40224,-0.4012 2.14653,-0.87283 1.09773,-0.6956 1.1192,-1.29483 0.1137,-3.17361 -0.68174,-1.27385 -1.38601,-4.40657 -1.56504,-6.96159 -0.48238,-6.88442 -2.02618,-10.36384 -4.16581,-9.38893 -0.95485,0.43507 -4.30028,0.81832 -7.43429,0.85165 -6.59913,0.0702 -8.53939,1.31393 -6.88174,4.41127 0.91127,1.70272 0.76349,2.24834 -0.84162,3.10736 -2.6581,1.42258 -5.20751,1.259 -7.50859,-0.48178 -1.70553,-1.29024 -2.14192,-1.2685 -3.75,0.18679 -1.00092,0.90583 -1.81986,2.64711 -1.81986,3.86952 0,1.22242 -0.675,2.78277 -1.5,3.46746 -2.29981,1.90867 -1.79599,3 1.38499,3 1.97384,0 3.40233,-0.78956 4.52305,-2.5 0.90094,-1.375 2.30269,-2.5 3.11501,-2.5 1.90358,0 1.91428,3.39216 0.0157,4.96786 -0.8037,0.66701 -1.75543,2.18461 -2.11494,3.37245 -0.35951,1.18783 -1.55879,3.14921 -2.66506,4.35862 -1.51105,1.65193 -1.83318,2.89573 -1.29494,5 0.39405,1.54059 0.79939,4.76223 0.90076,7.1592 0.13614,3.21945 0.79473,4.85243 2.52065,6.25 3.03115,2.45447 3.01741,2.46204 2.65265,-1.46265 z m -76.31784,-58.72817 c 1.33176,-1.7908 1.81506,-3.78381 1.57624,-6.5 l -0.34443,-3.91731 -1.44205,3 c -0.79312,1.65 -2.46978,4.39248 -3.72591,6.09439 C 99.027738,936.65849 98,938.37728 98,938.77612 c 0,1.67162 4.44792,-0.11372 6.22001,-2.49663 z M 88,934.36218 c 0,-2.26671 -1.037005,-2.56299 -2.8,-0.8 -1.762995,1.76299 -1.466708,2.8 0.8,2.8 1.333333,0 2,-0.66667 2,-2 z m 110,-83.33439 c 0.825,0.0164 2.175,0.21089 3,0.43213 1.18056,0.3166 1.48824,-0.58346 1.44476,-4.22634 -0.0471,-3.94862 -0.68515,-5.38096 -4.34311,-9.75 -2.43671,-2.91038 -5.12078,-5.1214 -6.21711,-5.1214 -1.06108,0 -3.83167,-1.74579 -6.15688,-3.87953 -7.13991,-6.55198 -15.8416,-6.20439 -22.22766,0.88788 -1.1,1.22165 -3.0125,2.60839 -4.25,3.08166 -1.81811,0.69532 -2.25,1.63305 -2.25,4.88524 0,3.46726 0.30157,4.02475 2.17717,4.02475 1.19745,0 3.33495,1.36192 4.75,3.02649 2.28531,2.68827 2.91632,2.92523 5.64641,2.1204 2.14643,-0.63276 3.80444,-0.51495 5.49642,0.39057 2.21533,1.18561 2.64155,1.03467 4.9767,-1.76247 2.21418,-2.65222 2.83762,-2.90727 4.68713,-1.91744 1.19748,0.64087 2.27207,2.338 2.44971,3.86889 0.36614,3.15535 4.25084,5.58157 7.31646,4.56954 1.1,-0.36313 2.675,-0.6468 3.5,-0.63037 z M 61,820.36218 c 0,-1.1 -0.648442,-2 -1.440983,-2 -1.76659,0 -2.896057,1.64564 -2.059017,3 1.08749,1.75959 3.5,1.07031 3.5,-1 z m 113.96482,-12.93426 c 1.42782,-2.66791 1.29636,-5.06574 -0.27773,-5.06574 -1.33898,0 -6.68709,5.0423 -6.68709,6.30472 0,1.66259 5.9814,0.59856 6.96482,-1.23898 z m -85.573208,10.5124 c -0.997405,-2.5992 1.512119,-5.72571 4.324785,-5.38807 3.738415,0.44876 5.355305,3.50254 2.842473,5.3685 -2.486739,1.84658 -6.462001,1.85744 -7.167258,0.0196 z"
           style="fill:#a39160" />
        <path
           inkscape:connector-curvature="0"
           id="path3104"
           d="m 129.5,1030.3733 c -9.80527,-0.4556 -11.52988,-0.8226 -15.87871,-3.3787 -4.55016,-2.6745 -5.1368,-2.7824 -8.71124,-1.6027 -5.345355,1.7641 -17.510802,0.7248 -22.739518,-1.9427 -5.081204,-2.5923 -8.351106,-2.65 -10.580309,-0.1867 -0.945864,1.0452 -2.599108,2.1303 -3.673875,2.4113 -4.306516,1.1262 -24.128837,-17.2038 -26.872225,-24.8491 -1.173007,-3.269 -1.486456,-18.23607 -1.790903,-85.51519 L 38.884182,833.75684 55.192091,817.17595 71.5,800.59505 82,800.844 c 5.775,0.13692 11.85,0.3429 13.5,0.45773 l 3,0.20878 -3.996901,1.76317 c -3.960345,1.74704 -3.976351,1.776 -1.75,3.16638 2.919956,1.82354 2.94364,4.16201 0.03789,3.74167 -1.396573,-0.20203 -2.42352,-1.239 -2.792284,-2.81955 -0.875848,-3.75395 -4.375512,-4.87614 -12.431537,-3.98624 C 69.822078,804.2315 68,805.67189 68,810.939 c 0,1.75701 -0.672228,4.4835 -1.493839,6.05887 -0.821612,1.57537 -1.496612,3.56181 -1.5,4.41431 -0.0034,0.8525 -0.515913,2.05975 -1.138944,2.68278 -1.617702,1.61771 -0.299633,4.26722 2.122837,4.26722 1.315091,0 2.434824,0.98828 3.115781,2.75 0.584627,1.5125 1.69998,4.02397 2.478562,5.58104 2.158329,4.3164 1.757923,5.51411 -2.084397,6.23494 -3.906065,0.73278 -4.48488,2.58289 -1.943296,6.21151 1.873979,2.67548 3.051069,2.82702 3.670217,0.47251 0.253102,-0.9625 2.155014,-2.3595 4.226471,-3.10445 3.177974,-1.14287 3.980321,-1.14041 5.1365,0.0158 1.160284,1.16029 0.607105,2.02754 -3.610623,5.66061 -4.731974,4.07602 -5.091841,4.21263 -7.202558,2.73423 -2.629907,-1.84206 -5.74192,-1.98476 -9.174646,-0.42071 -2.893694,1.31846 -4.117723,3.7489 -2.634848,5.23177 1.371008,1.37101 1.315439,4.95013 -0.09881,6.36438 -2.05022,2.05022 5.140039,4.12489 13.297202,3.83676 9.099349,-0.32141 9.984544,-0.71152 12.740269,-5.61467 2.496667,-4.44222 2.4127,-4.39619 5.0336,-2.75941 2.845861,1.77727 7.096106,-0.34221 6.356652,-3.16989 -0.303843,-1.1619 0.122662,-2.85274 0.960362,-3.80727 0.828823,-0.94441 1.805959,-2.69956 2.171416,-3.90031 0.578787,-1.90169 0.240502,-2.22405 -2.62353,-2.5 -3.695605,-0.35608 -4.617503,-2.32253 -2.467369,-5.26301 1.256928,-1.71895 1.713187,-1.77565 4.615437,-0.5735 2.582444,1.06969 3.132684,1.79402 2.776864,3.65541 -0.31444,1.64487 0.24651,2.77366 1.92486,3.87335 1.82039,1.19277 2.22516,2.12355 1.74881,4.02146 -0.84742,3.37642 0.7536,3.10155 3.48962,-0.59912 2.38578,-3.22694 2.22108,-5.9314 -0.36122,-5.9314 -2.80602,0 -1.57881,-2.01205 2.21862,-3.63751 6.30248,-2.69773 6.74436,-3.01526 6.91738,-4.97076 0.0921,-1.04045 0.74179,-3.32396 1.44385,-5.07447 1.17921,-2.94023 1.09026,-3.33378 -1.16738,-5.16505 l -2.44385,-1.98231 2.18352,-2.33495 2.18353,-2.33495 -2.90662,-3.5 c -3.28442,-3.95492 -3.59915,-5 -1.50574,-5 1.73853,0 3.04958,-5.85468 2.1308,-9.51539 -0.44003,-1.75324 -0.17996,-2.703 0.84822,-3.09754 0.81555,-0.31296 11.39338,-0.11845 23.50628,0.43225 18.19204,0.82708 22.30964,1.28745 23.66844,2.64625 1.52665,1.52665 1.80237,1.49713 3.83273,-0.41029 2.32674,-2.18587 4.55884,-2.70562 4.55884,-1.06155 0,1.25952 -7.86684,7.00627 -9.59102,7.00627 -0.71002,0 -1.56906,0.45 -1.90898,1 -0.38394,0.62123 1.50477,1 4.98644,1 4.67426,0 6.02776,-0.42329 8.15479,-2.55032 1.89165,-1.89166 2.39153,-3.183 1.9355,-5 -0.40547,-1.6155 -0.18269,-2.48423 0.65422,-2.55113 0.69798,-0.0558 3.02118,-0.25939 5.16267,-0.45241 3.6913,-0.33272 4.32784,0.0731 12.25,7.8104 4.59601,4.48875 8.35638,8.70564 8.35638,9.37085 0,0.66522 1.4625,2.1178 3.25,3.22796 1.7875,1.11016 5.05,4.1784 7.25,6.81831 l 4,4.79985 0.58525,21.01324 c 0.3219,11.55729 0.41856,43.28825 0.21482,70.51325 -0.4097,54.74754 -1.34557,65.83347 -6.15745,72.93885 -4.91119,7.25194 -20.20452,24.66644 -23.23317,26.45554 -5.24376,3.0976 -17.6444,5.6153 -30.36384,6.1649 -6.62509,0.2863 -13.39561,0.6201 -15.04561,0.7418 -1.65,0.1217 -7.95,-0.01 -14,-0.29 z m -42.618034,-20.1454 c 1.989919,-1.1738 4.573541,-3.2472 5.741384,-4.6075 2.592762,-3.0202 6.062647,-2.3575 6.989354,1.3348 0.817626,3.2577 3.216666,4.407 9.199106,4.407 5.58865,0 6.2649,-0.5777 8.48499,-7.2477 1.54514,-4.64227 1.53162,-4.77397 -0.60828,-5.9279 -1.20368,-0.64908 -4.93168,-1.22792 -8.28442,-1.28631 C 100.73793,996.76679 97,994.61179 97,990.32556 c 0,-1.64479 -0.542525,-3.85924 -1.205612,-4.92101 -0.977194,-1.56474 -0.902023,-2.27265 0.396762,-3.73643 0.881306,-0.99327 1.761332,-2.63448 1.955612,-3.64713 0.474547,-2.4735 10.113398,-6.54567 15.853238,-6.6976 4.42874,-0.11722 4.45249,-0.13582 1.5,-1.17443 -1.65,-0.58043 -3.45,-1.36827 -4,-1.75075 -1.13448,-0.78894 -8.33825,-0.53111 -9.19859,0.32923 -0.31041,0.3104 -1.40258,0.11578 -2.427053,-0.4325 -2.44025,-1.30598 -12.276964,3.22587 -14.557826,6.70691 -0.984795,1.50298 -2.194924,2.23724 -3.109069,1.88645 -0.823183,-0.31589 -2.314859,0.16609 -3.314835,1.07105 -2.387243,2.16043 -5.128983,1.0884 -4.712764,-1.8427 0.246278,-1.73434 1.242975,-2.44601 4.320137,-3.0847 5.037942,-1.04566 8.718548,-2.8037 9.253157,-4.41977 0.238536,-0.72107 -0.432479,-1.25 -1.585794,-1.25 -1.137845,0 -3.364356,-1.72352 -5.167363,-4 -2.398111,-3.02786 -3.87674,-4 -6.084029,-4 -2.379333,0 -2.915971,-0.42491 -2.915971,-2.30887 0,-1.26988 0.606733,-3.13863 1.348296,-4.15278 C 74.791228,950.92721 77,951.54457 77,953.9212 c 0,2.46051 1.926563,1.58176 2.62395,-1.19685 0.516697,-2.05869 0.150202,-3.02392 -1.669267,-4.39635 -2.935536,-2.21428 -4.898001,-1.49923 -5.606399,2.04276 -0.836651,4.18326 -8.712598,12.32795 -11.167668,11.54875 -3.54549,-1.1253 -5.502913,2.08437 -4.806285,7.88108 0.334557,2.78387 0.612196,6.04279 0.616977,7.24204 0.0059,1.48404 0.715502,2.28251 2.221705,2.5 1.804155,0.26051 2.424102,1.33568 3.355572,5.81955 0.628407,3.025 1.616767,6.625 2.196354,8 0.579587,1.375 1.795603,5.03708 2.702258,8.13792 2.159463,7.3857 3.164777,8.5262 8.532803,9.6804 6.572115,1.413 6.923971,1.3822 10.881966,-0.9526 z m 12.249155,-9.2077 c -1.321118,-1.59188 -0.504644,-2.65802 2.035549,-2.65802 2.02898,0 2.10031,0.14067 1.22634,2.41822 -0.74253,1.935 -1.79102,2.0121 -3.261889,0.2398 z M 72.666667,986.69551 c -1.071162,-1.07116 -0.767797,-4.15279 0.485037,-4.92709 1.75102,-1.08219 4.090018,2.59758 2.708906,4.26172 -1.222697,1.47325 -2.185489,1.67383 -3.193943,0.66537 z m 107.921773,8.803 c -0.20468,-2.12502 -0.87082,-4.79544 -1.4803,-5.93426 -1.52854,-2.85611 -1.38715,-5.35872 0.45103,-7.98308 1.2412,-1.77206 1.94482,-2.01963 3.45023,-1.21396 1.04008,0.55663 5.19791,1.29159 9.23962,1.63324 5.84592,0.49417 8.01973,0.27411 10.63082,-1.07614 2.42767,-1.25539 3.10144,-2.13536 2.58776,-3.37972 -1.98138,-4.79981 -1.83995,-5.18241 1.91577,-5.18241 4.00674,0 3.98093,0.0304 2.72285,-3.20295 -1.16694,-2.9991 -3.8978,-12.53458 -4.60796,-16.08987 -0.7141,-3.57499 -3.01963,-4.45031 -5.59144,-2.12285 -1.66088,1.50308 -2.36328,1.6132 -3.96276,0.62128 -1.06923,-0.66308 -2.84406,-1.76386 -3.94406,-2.44616 -1.59187,-0.98739 -2.40536,-0.98739 -3.98643,0 -1.09254,0.6823 -3.08824,1.24055 -4.4349,1.24055 -4.51762,0 -7.47391,1.87628 -9.78411,6.20971 -1.25796,2.35966 -2.51386,5.41529 -2.79088,6.79029 -0.34983,1.73639 -1.80182,3.10299 -4.75368,4.47412 -2.3375,1.08577 -4.25,2.29294 -4.25,2.68261 0,1.13604 3.78337,2.02291 8.82599,2.06894 2.5707,0.0235 5.03336,0.24736 5.47257,0.49753 1.40862,0.80235 -1.46427,3.2768 -3.80443,3.2768 -1.66371,0 -2.40932,0.72644 -2.82255,2.75 -0.44854,2.19649 0.0334,3.25319 2.39431,5.25 2.49452,2.1098 2.92864,3.16186 2.78143,6.74052 -0.11872,2.88594 0.40647,4.88243 1.64411,6.25 2.95818,3.2688 4.52227,2.5609 4.09701,-1.85419 z M 127,970.36218 c 0,-0.55 -0.675,-1 -1.5,-1 -0.825,0 -1.5,0.45 -1.5,1 0,0.55 0.675,1 1.5,1 0.825,0 1.5,-0.45 1.5,-1 z M 96.558931,955.26683 c 0.372331,-0.60245 0.104315,-2.16536 -0.595592,-3.47315 -1.12168,-2.09588 -0.957786,-2.82559 1.382341,-6.15465 1.460193,-2.07727 4.45477,-5.26476 6.65461,-7.08331 3.4488,-2.85105 3.99971,-3.85752 3.99971,-7.30718 0,-5.49231 -2.01769,-13.04713 -3.36462,-12.59815 -0.60877,0.20292 -1.41527,2.17557 -1.79222,4.38366 -1.2796,7.49562 -7.963555,19.32813 -10.918084,19.32813 -1.658358,0 -1.925076,-0.73554 -1.925076,-5.30887 0,-2.91988 -0.567309,-6.08471 -1.260686,-7.03296 -1.14205,-1.56185 -1.61257,-1.30312 -5,2.74933 C 81.682691,935.23006 80,937.70406 80,938.26745 c 0,1.39489 3.8583,3.36308 5.418824,2.76425 C 88.197168,939.96555 92,945.37003 92,950.38469 c 0,4.68043 2.8183,7.69854 4.558931,4.88214 z M 72,936.86218 c 0,-0.825 -0.45,-1.5 -1,-1.5 -0.55,0 -1,0.675 -1,1.5 0,0.825 0.45,1.5 1,1.5 0.55,0 1,-0.675 1,-1.5 z m 34.63837,-26 c 0.31659,-0.825 0.27032,-2.2875 -0.1028,-3.25 -0.63224,-1.63089 -0.77564,-1.61789 -2.10699,0.19113 -0.78572,1.06762 -1.42858,2.53012 -1.42858,3.25 0,1.8064 2.93093,1.65243 3.63837,-0.19113 z m 71.83595,-1.45034 c 1.73147,-3.34829 2.02193,-8.62493 0.52568,-9.54966 -0.55,-0.33992 -1,-2.34162 -1,-4.44823 0,-2.29699 -0.77085,-4.77521 -1.92571,-6.19099 -1.86804,-2.29009 -1.94534,-2.30089 -2.58135,-0.36078 -1.86977,5.70356 -2.43745,6.37019 -5.69086,6.68276 -4.19044,0.40259 -4.54427,3.17502 -0.46482,3.64208 2.65282,0.30373 2.73251,0.44059 1.22589,2.10538 -2.14721,2.37264 -1.1909,4.43511 3.73666,8.05887 2.25181,1.656 4.21899,3.01091 4.37151,3.01091 0.15253,0 0.96388,-1.32765 1.803,-2.95034 z M 107,900.4212 c 0,-4.72249 -1.56517,-6.10747 -3.09863,-2.7419 -0.81484,1.78838 -0.80667,2.99131 0.0309,4.55639 1.76298,3.29415 3.0677,2.52243 3.0677,-1.81449 z M 88.81105,883.88076 c 0.327653,-5.08262 -1.147023,-7.31456 -3.527512,-5.33893 -2.566036,2.12962 -0.764882,11.47374 2.034166,10.55295 0.650263,-0.21392 1.322269,-2.56023 1.493346,-5.21402 z m 17.88241,-5.58167 c 1.61969,-2.74627 2.16854,-2.99933 5.30654,-2.44668 1.925,0.33902 4.2875,0.84774 5.25,1.13047 3.79915,1.11602 1.46983,-1.85676 -3,-3.82873 -2.6125,-1.15257 -6.42856,-3.15226 -8.48013,-4.44377 -2.05157,-1.29151 -3.96407,-2.3482 -4.25,-2.3482 -0.72319,0 -0.65156,8.09155 0.10513,11.875 0.79278,3.9639 2.75304,3.98784 5.06846,0.0619 z m 95.85199,-24.39146 c 1.87391,-1.8739 2.45455,-3.51195 2.45455,-6.92454 0,-4.10705 -0.48119,-4.96328 -5.92639,-10.54545 -3.25952,-3.3415 -6.61886,-6.07546 -7.46521,-6.07546 -0.84634,0 -3.20101,-1.45943 -5.23259,-3.24318 -2.03158,-1.78376 -5.6831,-3.7483 -8.11449,-4.36565 -4.05856,-1.03051 -4.87407,-0.8906 -9.95493,1.70784 -3.04382,1.55667 -6.05313,3.53995 -6.68734,4.40729 -0.63421,0.86734 -2.27045,2.13109 -3.63608,2.80833 -1.84915,0.91703 -2.56104,2.1633 -2.7888,4.88225 -0.1682,2.00799 -0.9557,4.19025 -1.75,4.84945 -2.23294,1.85318 -1.73936,3.49114 1.88508,6.25564 2.94195,2.24393 4.01804,2.48026 9.25,2.03147 4.43773,-0.38066 6.92266,-0.051 9.92075,1.31627 2.34837,1.07094 6.89036,1.93489 11,2.09234 3.85,0.14751 8.0125,0.31349 9.25,0.36886 1.2375,0.0554 2.25,0.72806 2.25,1.49488 0,2.18239 2.84712,1.638 5.54545,-1.06033 z M 61.755005,843.11218 C 61.278325,841.66475 57,840.7774 57,842.12596 c 0,1.42805 1.174543,2.23622 3.25,2.23622 1.086219,0 1.738303,-0.5416 1.505005,-1.25 z M 61,820.4212 c 0,-2.55898 -1.722835,-3.53394 -3.556136,-2.01243 -1.115041,0.9254 -1.195377,1.54789 -0.33375,2.58609 C 58.768694,822.99333 61,822.66426 61,820.4212 z m 28.015313,18.19098 c 0.03784,-1.85315 1.926,-3.4865 3.383762,-2.9271 2.589556,0.9937 1.933448,3.6771 -0.899075,3.6771 -1.375,0 -2.493109,-0.3375 -2.484687,-0.75 z m -3.770627,-7.00177 C 84.560109,831.38222 84,830.64629 84,829.97501 c 0,-1.56716 6.20943,-7.61283 7.819046,-7.61283 1.569144,0 3.61198,4.43438 2.898899,6.29264 -0.582548,1.5181 -7.402453,3.64586 -9.473259,2.95559 z m 4.146926,-13.67009 c -0.997405,-2.5992 1.512119,-5.72571 4.324785,-5.38807 3.738415,0.44876 5.355305,3.50254 2.842473,5.3685 -2.486739,1.84658 -6.462001,1.85744 -7.167258,0.0196 z"
           style="fill:#8f7026" />
        <path
           inkscape:connector-curvature="0"
           id="path3102"
           d="m 129.5,1030.3864 c -11.20326,-0.5339 -13.5,-1.1221 -13.5,-3.4573 0,-0.7233 -1.19174,-3.4473 -2.64831,-6.0534 l -2.64831,-4.7383 -5.60169,0.5887 c -3.71324,0.3902 -6.374218,0.1559 -7.893233,-0.6951 -2.220678,-1.244 -2.234242,-1.3355 -0.438619,-2.9605 1.496286,-1.3542 2.513494,-1.4875 5.284942,-0.6926 5.08723,1.459 11.57967,1.207 13.30303,-0.5164 C 116.7353,1010.484 120,1001.0476 120,998.44357 c 0,-0.61093 -1.42047,-1.97462 -3.1566,-3.03043 -2.43198,-1.47897 -4.26122,-1.78881 -7.96861,-1.34972 C 102.79243,994.78378 99,992.66217 99,988.53913 c 0,-1.52732 -0.498312,-3.27526 -1.107359,-3.88431 -0.809813,-0.80981 -0.512481,-1.42573 1.106557,-2.29221 1.740252,-0.93136 2.093922,-1.78483 1.653052,-3.98916 -0.5159,-2.5795 -0.16889,-2.97292 4.32883,-4.90778 2.68932,-1.15692 6.83126,-2.13902 9.2043,-2.18244 4.28231,-0.0784 4.29215,-0.0868 1.31462,-1.13427 -1.65,-0.58043 -3.45,-1.36827 -4,-1.75075 -0.55,-0.38248 -2.8,-0.52996 -5,-0.32773 -4.66565,0.42888 -5.32715,0.42614 -8,-0.0332 -1.1,-0.18902 -4.8125,-0.68744 -8.25,-1.1076 -3.4375,-0.42015 -6.25,-1.10693 -6.25,-1.52618 0,-0.41925 -1.083234,-2.3585 -2.407186,-4.30945 l -2.407186,-3.54719 2.157186,-0.57871 c 3.700464,-0.99271 6.362389,-0.66614 7.699145,0.94455 3.057632,3.68422 11.511031,-1.9531 9.178597,-6.12093 -1.589968,-2.84112 1.240089,-9.27611 5.793774,-13.17389 3.40826,-2.9173 3.98567,-3.98803 3.98567,-7.3908 0,-8.8955 -3.91382,-16.86749 -4.80467,-9.78657 -0.82065,6.52291 -3.45999,11.96323 -7.266512,14.97805 C 92.33945,939.26139 92,939.35512 92,937.50337 c 0,-1.11478 -0.958374,-3.65119 -2.129721,-5.63648 -2.106627,-3.57047 -2.152711,-3.58942 -4.25,-1.748 -1.166153,1.02388 -3.3059,2.3642 -4.754992,2.97848 -2.523935,1.06992 -2.597308,1.31709 -1.745091,5.87879 0.939601,5.02944 0.243686,6.33922 -3.384894,6.37071 -0.970585,0.008 -2.618542,1.47781 -3.662129,3.26531 -5.713447,9.78624 -6.565108,10.77246 -10.64987,12.33244 -5.036944,1.92363 -6.601733,4.83663 -5.787841,10.77462 0.484736,3.53654 0.223949,4.70372 -1.395586,6.2461 -1.095445,1.04326 -2.302768,2.90899 -2.682939,4.14606 -0.552728,1.79858 -0.196335,2.43738 1.778782,3.18832 1.358502,0.5165 2.765273,1.41685 3.126159,2.00078 0.360886,0.58392 1.468835,1.06168 2.462108,1.06168 1.856018,0 6.624874,9.71573 9.160787,18.66352 1.016373,3.5862 1.642101,4.2503 4.512533,4.7888 4.522128,0.8483 5.323771,2.544 1.211711,2.563 -4.722054,0.022 -5.480505,0.8278 -6.447493,6.851 l -0.861524,5.3663 -6.130854,-4.6115 c -8.450426,-6.3563 -17.621686,-16.4045 -19.312006,-21.1586 -1.15699,-3.25415 -1.467997,-18.55131 -1.739704,-85.56913 -0.330302,-81.47029 -0.327369,-81.61105 1.75593,-84.25953 2.072998,-2.63539 4.54227,-2.68056 3.538482,-0.0647 -0.772438,2.01294 1.327857,2.87886 2.704687,1.1151 0.943035,-1.20806 2.199252,-1.34963 6.183465,-0.69685 2.867864,0.46988 5.405106,0.43402 5.95,-0.0841 1.137875,-1.08193 5.612126,-1.16843 7.137716,-0.13798 1.735122,1.17197 2.307233,4.99609 1.012371,6.76692 -0.800995,1.09543 -2.314872,1.51804 -4.644227,1.29648 -3.170777,-0.30159 -3.434097,-0.57619 -3.192044,-3.32871 l 0.263816,-3 -2.040141,2.39329 -2.040141,2.3933 -3.511519,-1.89108 c -3.072405,-1.6546 -3.631679,-1.70378 -4.472422,-0.39329 -1.576315,2.45704 -0.645996,4.37744 3.146956,6.49607 1.970999,1.10094 4.77401,2.83869 6.228914,3.86166 1.454904,1.02297 3.309343,1.60513 4.120976,1.29367 1.853443,-0.71123 2.906569,0.86881 1.843867,2.76642 -0.442267,0.78973 -2.769507,2.85942 -5.171645,4.59932 -2.402137,1.7399 -4.592121,4.02232 -4.866631,5.07204 C 52.683226,861.68153 51,862.0289 51,859.9212 c 0,-2.34635 -2.201021,-3.00459 -3.608852,-1.07927 -1.081149,1.47856 -1.056969,2.2658 0.140736,4.58191 0.7954,1.53813 2.328098,3.07651 3.405996,3.41862 1.077898,0.34212 2.24299,1.51423 2.589092,2.6047 1.234842,3.89064 4.651358,6.06069 8.5144,5.40803 3.099269,-0.52362 3.739286,-0.27137 4.922904,1.94024 1.53669,2.87133 3.683247,2.00941 4.22569,-1.69676 0.217663,-1.48716 1.352818,-2.36979 3.810034,-2.96247 5.145692,-1.24112 7.769318,-2.78389 8.32083,-4.89287 0.537897,-2.05693 0.643295,-2.10324 8.971325,-3.94197 5.596053,-1.23554 5.771652,-1.37218 5.186576,-4.03602 -0.79075,-3.60026 1.994182,-9.16867 4.329109,-8.65596 0.93069,0.20437 1.5248,1.01985 1.32025,1.81219 -0.20454,0.79234 -0.59453,2.22811 -0.86663,3.19061 -0.86277,3.05189 2.34037,1.96081 5.18239,-1.76527 1.72457,-2.26103 2.46518,-4.19598 2.07572,-5.42308 -0.44247,-1.39408 0.35413,-2.66903 2.9583,-4.73473 5.46575,-4.33559 8.77934,-9.87935 8.00697,-13.39593 -0.53432,-2.43277 -0.25242,-3.08133 1.68681,-3.88078 1.28059,-0.52792 3.40014,-1.81435 4.71011,-2.85873 l 2.38177,-1.89886 -4.99106,-0.66209 c -6.71498,-0.89077 -8.56624,-2.9827 -7.15681,-8.08723 0.58552,-2.1206 0.7651,-5.85277 0.39906,-8.2937 l -0.66553,-4.43806 17.82541,0.71766 c 9.80397,0.39471 18.11566,0.88447 18.47042,1.08836 0.35476,0.20389 0.21744,2.27374 -0.30516,4.59966 -1.46132,6.50384 -0.47924,6.90654 17.16014,7.03653 4.05791,0.0299 4.64809,-0.27197 6.00742,-3.07267 0.82908,-1.70821 2.40408,-3.76747 3.5,-4.57614 1.5972,-1.17855 1.74455,-1.72177 0.74258,-2.73762 -2.07625,-2.10502 -1.44422,-2.66905 2.75082,-2.45487 3.54942,0.18123 4.89646,1.094 11.93902,8.09008 4.366,4.33719 7.69519,8.27899 7.39818,8.75955 -0.297,0.48056 -1.95706,0.7976 -3.68901,0.70452 -5.07529,-0.27276 -5.64901,-0.0708 -5.64901,1.98809 0,2.39404 5.04032,3.58576 11.45001,2.70722 4.20199,-0.57595 4.39629,-0.47297 8.67413,4.59762 l 4.37586,5.18677 0.58525,21.02685 c 0.92654,33.28815 0.0401,118.98148 -1.31379,127.00248 -1.11577,6.61041 -3.04194,10.52437 -5.17934,10.52437 -0.52988,0 -3.14679,1.84106 -5.81537,4.09123 -4.10844,3.4643 -5.0901,3.8936 -6.40596,2.80153 -1.60844,-1.33488 -7.02203,-1.62431 -9.87861,-0.52813 -1.00071,0.38401 -1.50856,1.49889 -1.31232,2.88089 0.26243,1.8481 1.1025,2.3446 4.66032,2.7545 l 4.34019,0.5 -3.59019,4.69 c -1.9746,2.5795 -3.59018,5.1874 -3.59018,5.7954 0,1.7109 -4.89382,6.1982 -6.00838,5.5094 -0.54539,-0.3371 -0.99162,-1.6847 -0.99162,-2.9948 0,-2.8483 -1.31953,-3.8508 -3.964,-3.0115 -1.63538,0.5191 -1.78938,1.0299 -0.96448,3.1996 0.73132,1.9235 0.60181,3.1615 -0.50792,4.8551 -1.32605,2.0239 -1.31837,2.4154 0.0699,3.5676 2.62784,2.1809 -4.46954,3.8359 -19.04731,4.4416 -7.19742,0.299 -14.21121,0.6455 -15.58621,0.7699 -1.375,0.1244 -7.45,-0.01 -13.5,-0.2981 z m 55.56883,-29.7805 c 0.86285,-1.50907 2.88785,-3.35901 4.5,-4.11104 6.65576,-3.10474 7.95458,-4.11726 8.43117,-6.57269 0.6945,-3.57809 5.31995,-8.17398 8.95906,-8.9018 1.9227,-0.38454 3.04094,-1.21874 3.04094,-2.26852 0,-0.91318 1.15033,-2.72642 2.55629,-4.02942 1.53092,-1.41881 2.2546,-2.85722 1.80416,-3.58605 -0.41367,-0.66933 -0.65468,-2.49579 -0.53559,-4.05879 0.1454,-1.90814 -0.77592,-4.04586 -2.80416,-6.50646 -1.66138,-2.01555 -3.02294,-4.34961 -3.02567,-5.18679 -0.003,-0.83719 -1.07289,-2.85688 -2.37813,-4.4882 -2.1929,-2.74074 -2.58217,-2.87081 -5.1247,-1.71236 -2.35151,1.07142 -3.02953,1.0021 -4.66372,-0.47682 -1.7887,-1.61875 -2.24851,-1.62581 -7.12033,-0.10932 -2.86448,0.89164 -6.75716,2.00032 -8.6504,2.46372 -2.63464,0.64487 -4.08198,1.93137 -6.16887,5.48333 -1.49964,2.55242 -2.87563,5.69303 -3.05775,6.97913 -0.23004,1.62451 -1.62856,2.94101 -4.58113,4.31248 -2.3375,1.08577 -4.25,2.29294 -4.25,2.68261 0,1.0394 3.33219,1.92261 7.9481,2.10668 2.22854,0.0889 4.0519,0.25415 4.0519,0.3673 0,1.34857 -1.49361,3.36929 -2.49041,3.36929 -2.28099,0 -2.57362,5.26303 -0.45647,8.20951 1.21545,1.69156 1.94688,4.34354 1.94688,7.05887 0,4.8853 1.14275,6.89506 5.5,9.67284 4.03833,2.5745 4.7405,2.5 6.56883,-0.6975 z M 127,970.36218 c 0,-0.55 -0.675,-1 -1.5,-1 -0.825,0 -1.5,0.45 -1.5,1 0,0.55 0.675,1 1.5,1 0.825,0 1.5,-0.45 1.5,-1 z M 74.068061,937.23501 c 1.106345,-2.06723 0.04773,-3.81027 -2.342812,-3.85752 -0.426113,-0.008 -1.216382,-1.17689 -1.756153,-2.59659 -1.298834,-3.4162 -3.388351,-2.58807 -3.789431,1.50183 -0.57269,5.83985 5.40498,9.59258 7.888396,4.95228 z M 48,937.39736 c 0,-1.25707 -3.549109,-3.15274 -4.368517,-2.33333 -1.486715,1.48672 -0.460474,3.29815 1.868517,3.29815 1.375,0 2.5,-0.43417 2.5,-0.96482 z m -0.718461,-8.28518 c 0.722304,-2.01443 -1.187828,-4.75 -3.316723,-4.75 -2.195269,0 -2.467758,1.19173 -0.929632,4.06574 1.168803,2.18393 3.569893,2.57084 4.246355,0.68426 z m 59.356831,-18.25 c 0.31659,-0.825 0.27032,-2.2875 -0.1028,-3.25 -0.63224,-1.63089 -0.77564,-1.61789 -2.10699,0.19113 -0.78572,1.06762 -1.42858,2.53012 -1.42858,3.25 0,1.8064 2.93093,1.65243 3.63837,-0.19113 z m 71.83595,-1.45034 c 1.73147,-3.34829 2.02193,-8.62493 0.52568,-9.54966 -0.55,-0.33992 -1,-2.34162 -1,-4.44823 0,-2.29699 -0.77085,-4.77521 -1.92571,-6.19099 -2.07507,-2.54389 -2.02335,-2.58442 -3.61797,2.83483 -0.22985,0.78114 -1.57091,0.99778 -3.86852,0.62493 -3.08759,-0.50105 -3.66242,-0.25087 -4.71092,2.05032 -0.9932,2.17986 -0.91503,2.9295 0.46446,4.45382 0.91226,1.00804 1.65866,2.5744 1.65866,3.48081 0,1.3251 9.12015,9.69451 10.56412,9.69451 0.21148,0 1.07108,-1.32765 1.9102,-2.95034 z M 107,900.4212 c 0,-4.72249 -1.56517,-6.10747 -3.09863,-2.7419 -0.81484,1.78838 -0.80667,2.99131 0.0309,4.55639 1.76298,3.29415 3.0677,2.52243 3.0677,-1.81449 z M 88.81105,883.88076 c 0.338332,-5.24828 -0.972786,-7.03757 -3.978229,-5.42911 -1.365359,0.73072 -1.633738,1.69534 -1.16303,4.18023 1.526864,8.06036 4.653199,8.81979 5.141259,1.24888 z m 17.78396,-4.63129 c 1.64033,-1.81919 2.69313,-2.04174 7.57786,-1.60183 5.35116,0.48192 9.82713,-0.92915 9.82713,-3.09805 0,-0.93255 -4.6624,-2.85401 -9,-3.70908 -1.925,-0.37947 -5.80478,-1.99233 -8.62173,-3.58414 -2.81695,-1.5918 -5.40445,-2.89419 -5.75,-2.89419 -0.973318,0 -0.74446,5.08788 0.50978,11.33322 1.2232,6.09075 2.44952,6.88944 5.45696,3.55407 z m -59.668896,-3.29826 c 0.83662,-1.00807 0.859076,-1.60376 0.07864,-2.08609 -1.32644,-0.81979 -4.203375,1.36666 -3.434726,2.61037 0.792498,1.28228 2.015305,1.09126 3.356087,-0.52428 z M 202.64904,854.91314 c 3.29168,-3.29168 3.4354,-3.73463 3.15,-9.70866 -0.26211,-5.48649 -0.56979,-6.32647 -2.49116,-6.80096 -1.20566,-0.29774 -3.50222,-2.49804 -5.10346,-4.88957 -3.85771,-5.76165 -13.34465,-11.01891 -24.48583,-13.56901 -3.23081,-0.73949 -8.87469,2.98123 -11.78744,7.77085 -0.95962,1.57797 -2.7992,3.39179 -4.08796,4.03071 -1.70271,0.84414 -2.42678,2.15959 -2.64902,4.81256 -0.1682,2.00799 -0.9557,4.19025 -1.75,4.84945 -2.23294,1.85318 -1.73936,3.49114 1.88508,6.25564 2.95586,2.25454 3.99458,2.47901 9.26145,2.00143 4.79835,-0.4351 6.83123,-0.11531 10.63596,1.67312 3.63114,1.70683 5.63135,2.05432 8.77145,1.5238 4.04696,-0.68373 7.13747,0.51072 10.82332,4.18308 2.11445,2.10672 4.14037,1.5548 7.82761,-2.13244 z M 133.5,828.36218 c 0,-0.73333 -0.5625,-1.52083 -1.25,-1.75 -0.74359,-0.24786 -1.25,0.46111 -1.25,1.75 0,1.28889 0.50641,1.99786 1.25,1.75 0.6875,-0.22917 1.25,-1.01667 1.25,-1.75 z M 186,809.80316 c 0,-0.79254 -0.45,-1.44098 -1,-1.44098 -0.55,0 -1,0.92656 -1,2.05902 0,1.13246 0.45,1.7809 1,1.44098 0.55,-0.33992 1,-1.26648 1,-2.05902 z M 84.015313,949.18173 c 0.0084,-1.27575 0.424125,-2.96561 0.923784,-3.75525 0.76512,-1.20915 1.164806,-1.22296 2.532945,-0.0875 2.288272,1.89909 1.54565,5.44968 -1.222042,5.84275 -1.781758,0.25305 -2.246813,-0.16316 -2.234687,-2 z M 63.824742,808.11409 c 7.437647,-7.28965 8.150205,-7.7385 12.042956,-7.58596 5.035674,0.19732 4.873058,0.41274 -1.967299,2.60611 -5.170699,1.658 -5.429513,1.91007 -6.394602,6.22794 -1.422591,6.36476 -1.955163,6.86832 -7.057669,6.67319 l -4.52878,-0.17319 7.905394,-7.74809 z M 87,801.36218 c -1.135249,-0.73365 -0.695355,-0.9731 1.809017,-0.98469 1.954547,-0.009 3.056039,0.39402 2.690983,0.98469 -0.776412,1.25626 -2.556074,1.25626 -4.5,0 z"
           style="fill:#676050" />
        <path
           inkscape:connector-curvature="0"
           id="path3100"
           d="m 118.51558,1025.5624 c -2.13528,-0.5112 -3.66818,-1.954 -5.38759,-5.0709 l -2.40317,-4.3565 -5.61241,0.5898 c -3.72346,0.3914 -6.383666,0.1579 -7.903953,-0.6938 -2.220678,-1.244 -2.234242,-1.3355 -0.438619,-2.9605 1.496286,-1.3541 2.513494,-1.4875 5.284942,-0.6926 5.08723,1.459 11.57967,1.207 13.30303,-0.5164 C 116.7353,1010.484 120,1001.0476 120,998.44357 c 0,-0.61093 -1.42047,-1.97462 -3.1566,-3.03043 -2.43198,-1.47897 -4.26122,-1.78881 -7.96861,-1.34972 C 102.79243,994.78378 99,992.66217 99,988.53913 c 0,-1.52732 -0.473106,-3.25006 -1.051347,-3.8283 -0.735128,-0.73513 -0.251349,-1.57552 1.608449,-2.79411 2.206868,-1.44599 3.353718,-1.56663 6.734808,-0.70841 3.44454,0.87431 4.27346,0.77284 5.35769,-0.65589 1.86221,-2.45389 1.1235,-3.64806 -2.47661,-4.0036 -3.00916,-0.29718 -4.11445,-1.48675 -2.37835,-2.55972 0.43705,-0.27011 12.79234,-0.81134 27.45619,-1.20273 23.37522,-0.6239 26.95782,-0.5175 29.06505,0.86322 4.34461,2.84669 5.71247,4.75147 5.11671,7.12515 -0.42606,1.69756 0.0767,2.69111 1.9991,3.95073 2.16165,1.41636 2.56831,2.43562 2.56831,6.43726 0,5.61145 1.45884,7.98733 6.56824,10.69707 3.21916,1.7073 3.83899,1.78 4.26424,0.5 0.71506,-2.1522 6.1219,-6.99762 7.80846,-6.99762 2.6198,0 6.35906,-3.19011 6.35906,-5.42517 0,-2.94848 5.27293,-8.17942 8.99558,-8.92395 1.8916,-0.37832 3.00442,-1.21586 3.00442,-2.26121 0,-0.91318 1.15033,-2.72642 2.55629,-4.02942 1.53092,-1.41881 2.2546,-2.85722 1.80416,-3.58605 -0.41367,-0.66933 -0.65468,-2.49579 -0.53559,-4.05879 0.1454,-1.90814 -0.77592,-4.04586 -2.80416,-6.50646 -1.66138,-2.01555 -3.0207,-4.20064 -3.0207,-4.85575 0,-2.08054 -3.44768,-7.3403 -4.81574,-7.34688 -0.72366,-0.003 -2.26978,0.50426 -3.43582,1.12831 -1.79417,0.96021 -2.44441,0.75758 -4.22986,-1.31813 -2.05483,-2.38888 -2.22464,-2.41448 -6.51952,-0.98285 -3.44624,1.14874 -5.29093,1.23471 -8.4427,0.39346 C 175.90973,946.34903 174,947.31213 174,950.89573 c 0,1.26305 -1.23235,3.33678 -2.75,4.62756 -2.01958,1.71766 -2.79942,3.36221 -2.93607,6.19163 -0.10234,2.119 -0.47616,4.144 -0.83072,4.5 -0.35456,0.35599 -11.29583,0.87226 -24.31393,1.14726 -21.26558,0.44922 -23.98593,0.32228 -26.78731,-1.25 -3.67977,-2.06527 -11.2455,-2.30149 -13.80357,-0.43098 -2.21253,1.61784 -17.814887,1.47152 -18.362796,-0.17221 -0.198179,-0.59454 -1.410997,-2.62923 -2.695151,-4.52153 l -2.334825,-3.44056 2.157186,-0.57871 c 3.700464,-0.99271 6.362389,-0.66614 7.699145,0.94455 3.11786,3.75679 11.437921,-1.91686 9.131289,-6.22684 -1.51614,-2.83294 1.854792,-9.76974 5.718522,-11.76775 1.67692,-0.86717 3.55324,-2.51896 4.1696,-3.67064 1.40046,-2.61678 0.33173,-14.57373 -1.64279,-18.37964 -1.20957,-2.33143 -1.19721,-2.98365 0.0914,-4.82334 1.84717,-2.63721 1.9855,-13.12641 0.24658,-18.6981 -0.68395,-2.19134 -1.53288,-3.98425 -1.88654,-3.98425 -1.16638,0 -1.92443,6.32194 -2.30892,19.2557 -0.47673,16.03638 -1.87151,21.72138 -6.453359,26.30323 l -3.498733,3.49873 -1.357065,-4.77883 c -0.746385,-2.62836 -1.614825,-7.14964 -1.929865,-10.04729 -0.31504,-2.89765 -0.96723,-5.51223 -1.449312,-5.81017 -1.266967,-0.78303 -3.082642,4.60628 -2.429117,7.21013 0.830046,3.30717 -0.320474,5.29019 -3.94886,6.80623 -3.196446,1.33556 -3.24559,1.45146 -2.422265,5.71274 0.462205,2.39224 0.859972,4.67416 0.883925,5.07094 0.02395,0.39677 -1.418949,1.09546 -3.206449,1.55264 -2.459438,0.62904 -3.869794,1.9678 -5.797972,5.50365 -3.647714,6.68908 -6.5487,9.69163 -10.038061,10.38951 -4.465681,0.89313 -6.150476,4.06919 -5.351914,10.08904 0.55402,4.1764 0.344059,5.25983 -1.327913,6.85226 -1.092291,1.04032 -2.297032,2.90364 -2.677203,4.14071 -0.552728,1.79858 -0.196335,2.43738 1.778782,3.18832 1.358502,0.5165 2.765273,1.41685 3.126159,2.00078 0.360886,0.58392 1.468835,1.06168 2.462108,1.06168 1.856018,0 6.624874,9.71573 9.160787,18.66352 1.016373,3.5862 1.642101,4.2503 4.512533,4.7888 4.333973,0.813 5.384893,2.5477 1.543498,2.5477 -4.390553,0 -6.138942,0.9534 -6.156117,3.357 -0.03566,4.9903 -1.497086,4.9634 -7.590937,-0.1398 -7.990316,-6.6915 -17.169636,-16.4976 -18.350552,-19.6036 -2.368226,-6.22891 -2.945342,-26.44048 -2.679414,-93.83755 0.264203,-66.9601 0.376634,-70.83175 2.112622,-72.75 2.134483,-2.35858 3.99038,-2.68488 3.174257,-0.5581 -0.802006,2.09 1.252212,3.02719 2.665872,1.21625 0.943035,-1.20805 2.199252,-1.34962 6.183465,-0.69684 2.867864,0.46988 5.405106,0.43402 5.95,-0.0841 1.137875,-1.08193 5.612126,-1.16843 7.137716,-0.13798 1.735122,1.17197 2.307233,4.99609 1.012371,6.76692 -0.800995,1.09543 -2.314872,1.51804 -4.644227,1.29648 -3.170777,-0.30159 -3.434097,-0.57619 -3.192044,-3.32871 l 0.263816,-3 -2.040141,2.39329 -2.040141,2.3933 -3.511519,-1.89108 c -3.072405,-1.6546 -3.631679,-1.70378 -4.472422,-0.39329 -1.576315,2.45704 -0.645996,4.37744 3.146956,6.49607 1.970999,1.10094 4.77401,2.83869 6.228914,3.86166 1.454904,1.02297 3.309343,1.60513 4.120976,1.29367 1.853443,-0.71123 2.906569,0.86881 1.843867,2.76642 -0.442267,0.78973 -2.769507,2.85942 -5.171645,4.59932 -2.402137,1.7399 -4.592121,4.02232 -4.866631,5.07204 C 52.683226,861.68153 51,862.0289 51,859.9212 c 0,-2.34635 -2.201021,-3.00459 -3.608852,-1.07927 -1.081149,1.47856 -1.056969,2.2658 0.140736,4.58191 0.7954,1.53813 2.328098,3.07651 3.405996,3.41862 1.077898,0.34212 2.24299,1.51423 2.589092,2.6047 1.234842,3.89064 4.651358,6.06069 8.5144,5.40803 3.099269,-0.52362 3.739286,-0.27137 4.922904,1.94024 1.53669,2.87133 3.683247,2.00941 4.22569,-1.69676 0.217663,-1.48716 1.352818,-2.36979 3.810034,-2.96247 5.145692,-1.24112 7.769318,-2.78389 8.32083,-4.89287 0.526346,-2.01276 0.526093,-2.01264 8.514809,-3.86961 3.436948,-0.79891 5.679864,-0.89604 6.302967,-0.27293 0.53203,0.53203 1.331065,4.57545 1.775632,8.98538 0.444572,4.40993 1.122292,8.5261 1.506052,9.14703 1.17779,1.9057 3.44749,1.2604 5.25165,-1.4931 1.60952,-2.45642 2.07375,-2.58489 7.34849,-2.03357 4.17865,0.43675 6.19114,0.19576 7.805,-0.93463 3.81551,-2.67249 3.10482,-3.26767 -7.0293,-5.88684 -2.58713,-0.66864 -7.39607,-2.97233 -10.68653,-5.1193 -6.858722,-4.4752 -8.189875,-7.41388 -5.614362,-12.39437 2.010542,-3.88797 4.094332,-3.38915 3.744612,0.89638 -0.31176,3.82041 1.24613,7.09441 3.37578,7.09441 0.86862,0 2.21853,-1.71397 3.08281,-3.91423 0.84566,-2.15282 2.35779,-4.12872 3.36031,-4.39088 1.38586,-0.36241 1.89688,-1.63356 2.132,-5.3033 0.28765,-4.48958 0.5362,-4.89137 3.55925,-5.75377 3.3297,-0.94988 4.53777,-3.63782 1.63499,-3.63782 -1.46971,0 -1.46383,-0.23073 0.0653,-2.56447 1.12754,-1.72085 1.46857,-3.52849 1.03666,-5.49496 -0.5367,-2.44358 -0.25678,-3.08998 1.6847,-3.89036 1.28059,-0.52792 3.40014,-1.81435 4.71011,-2.85873 l 2.38177,-1.89886 -4.99106,-0.66209 c -6.72871,-0.89259 -8.56705,-2.97976 -7.14877,-8.11638 0.58996,-2.13664 0.79652,-5.61158 0.45904,-7.72209 l -0.61361,-3.8373 18.26544,0.27262 c 11.43847,0.17073 18.21762,0.64638 18.13752,1.27262 -0.0704,0.55 -0.42369,2.66319 -0.78518,4.69599 -0.87975,4.94704 0.77663,5.73782 12.58912,6.01021 l 9.32397,0.21502 1.50742,-3.17299 c 0.82908,-1.74514 2.38709,-3.81622 3.46225,-4.6024 1.66281,-1.21587 1.75545,-1.66965 0.62014,-3.03762 -1.18747,-1.43081 -0.90495,-1.60821 2.56121,-1.60821 3.53093,0 4.61972,0.72809 11.62244,7.77212 4.2496,4.27467 7.72654,8.13415 7.72654,8.57662 0,0.44247 -1.4625,0.72442 -3.25,0.62656 -5.1825,-0.28374 -5.75,-0.0884 -5.75,1.97939 0,2.34008 4.96777,3.58123 11.06224,2.76379 3.67795,-0.49332 4.19669,-0.23122 7.92482,4.00416 2.19409,2.49261 4.44207,6.16222 4.99552,8.15469 1.16624,4.19858 1.19958,75.84216 0.0554,119.12267 -0.76869,29.07776 -1.6275,35.57577 -4.85029,36.69853 -0.92825,0.32339 -3.84215,2.36457 -6.47534,4.53596 -4.04994,3.33969 -5.02704,3.74927 -6.3416,2.65827 -1.60844,-1.33488 -7.02203,-1.62431 -9.87861,-0.52813 -1.00071,0.38401 -1.50856,1.49889 -1.31232,2.88089 0.26243,1.8481 1.1025,2.3446 4.66032,2.7545 l 4.34019,0.5 -3.59019,4.69 c -1.9746,2.5795 -3.59018,5.1874 -3.59018,5.7954 0,1.7109 -4.89382,6.1982 -6.00838,5.5094 -0.54535,-0.3371 -0.99158,-1.6847 -0.99158,-2.9948 0,-2.8483 -1.31953,-3.8508 -3.964,-3.0115 -1.63538,0.5191 -1.78938,1.0299 -0.96448,3.1996 1.72398,4.5344 -0.8324,6.9096 -8.24928,7.6645 -9.93312,1.0111 -47.99687,1.6399 -51.30666,0.8476 z m 0.90263,-68.80721 c 2.78653,-1.06929 1.81526,-3.39301 -1.41821,-3.39301 -1.83333,0 -3,0.51852 -3,1.33333 0,2.46677 1.51585,3.17342 4.41821,2.05968 z M 74.068061,937.23501 c 1.106345,-2.06723 0.04773,-3.81027 -2.342812,-3.85752 -0.426113,-0.008 -1.216382,-1.17689 -1.756153,-2.59659 -1.298834,-3.4162 -3.388351,-2.58807 -3.789431,1.50183 -0.57269,5.83985 5.40498,9.59258 7.888396,4.95228 z M 48,937.39736 c 0,-1.25707 -3.549109,-3.15274 -4.368517,-2.33333 -1.486715,1.48672 -0.460474,3.29815 1.868517,3.29815 1.375,0 2.5,-0.43417 2.5,-0.96482 z m 128.99186,-5.52537 c 1.65946,-1.99953 4.1176,-15.2255 3.37768,-18.17357 -0.33467,-1.33343 0.0415,-3.32141 0.86924,-4.59353 0.80259,-1.23349 1.74865,-4.26771 2.10235,-6.74271 0.35371,-2.475 0.90447,-5.85 1.22391,-7.5 0.49918,-2.57837 0.14893,-3.2539 -2.49212,-4.80654 C 179.457,888.51778 179,887.65525 179,884.25598 c 0,-2.19621 0.63267,-5.21656 1.40592,-6.71188 1.2079,-2.33581 1.2079,-2.98957 0,-4.64147 -1.8482,-2.52757 -1.79322,-6.97413 0.10572,-8.55011 0.83141,-0.69001 2.3811,-3.22011 3.44377,-5.62245 1.64134,-3.71051 2.36907,-4.36789 4.83535,-4.36789 1.59677,0 3.94093,0.9 5.20924,2 3.19783,2.77346 4.67383,2.52617 8.64904,-1.44904 3.29168,-3.29168 3.4354,-3.73463 3.15,-9.70866 -0.26211,-5.48649 -0.56979,-6.32647 -2.49116,-6.80096 -1.20566,-0.29774 -3.50222,-2.49804 -5.10346,-4.88957 -3.85016,-5.75037 -13.35828,-11.0256 -24.43305,-13.55576 -2.13023,-0.48668 -3.81916,0.16008 -7.70128,2.9491 -2.73495,1.96487 -5.21844,4.34695 -5.51887,5.29351 -0.30043,0.94656 -1.89735,2.23101 -3.54873,2.85434 C 154.58404,831.968 154,832.77255 154,835.19129 c 0,2.3064 -0.92359,3.73433 -3.98226,6.15684 -2.19025,1.73471 -4.46479,2.85579 -5.05455,2.4913 -0.58976,-0.36449 -3.53821,-4.44598 -6.55211,-9.06998 -3.0139,-4.624 -5.91435,-8.40727 -6.44545,-8.40727 -1.3153,0 -1.21687,5.42939 0.18315,10.10225 1.44982,4.83906 0.006,7.07867 -4.04201,6.2691 -3.48605,-0.69721 -5.91043,1.71678 -3.62723,3.61167 2.01769,1.67453 10.07988,2.14375 15.02046,0.87418 5.39519,-1.38639 6.15468,-1.32628 12.5,0.98925 3.11478,1.13665 5.64369,2.70737 5.83133,3.62188 0.31483,1.53438 1.3146,1.51198 5.69736,-0.12762 2.44347,-0.91411 4.59952,2.56675 6.48678,10.47264 2.56833,10.75891 2.506,12.34856 -0.59835,15.26234 -2.34836,2.20418 -2.52384,2.89774 -1.93254,7.63833 0.62291,4.99407 0.54206,5.24119 -1.91658,5.85827 -1.78551,0.44813 -2.82343,1.60066 -3.40952,3.78598 -0.89811,3.34873 -0.5126,5.64173 0.94851,5.64173 0.49115,0 0.89301,1.08135 0.89301,2.40301 0,1.57211 1.28698,3.43545 3.72205,5.38893 l 3.72205,2.98594 0.028,10.14732 c 0.0218,7.90945 0.35876,10.35649 1.52795,11.09575 2.03656,1.28769 2.55395,1.22144 3.99186,-0.51114 z M 47.281539,929.11218 c 0.722304,-2.01443 -1.187828,-4.75 -3.316723,-4.75 -2.195269,0 -2.467758,1.19173 -0.929632,4.06574 1.168803,2.18393 3.569893,2.57084 4.246355,0.68426 z m 41.111472,-17.33179 c 0.927582,-2.41724 0.722137,-9.41821 -0.27638,-9.41821 -1.121416,0 -2.08534,3.5523 -2.102976,7.75 -0.01433,3.41157 1.344721,4.36443 2.379356,1.66821 z m 0.09357,-19.04033 c 1.331884,-3.18765 2.200068,-15.37788 1.095207,-15.37788 -0.230016,0 -1.071994,-0.25088 -1.871061,-0.55751 -3.933372,-1.50938 -6.139917,6.43343 -3.210726,11.55751 0.786021,1.375 1.445075,3.7375 1.464565,5.25 0.04758,3.69221 0.710733,3.46288 2.522015,-0.87212 z M 46.926114,875.95121 c 0.83662,-1.00807 0.859076,-1.60376 0.07864,-2.08609 -1.32644,-0.81979 -4.203375,1.36666 -3.434726,2.61037 0.792498,1.28228 2.015305,1.09126 3.356087,-0.52428 z M 186,809.80316 c 0,-0.79254 -0.45,-1.44098 -1,-1.44098 -0.55,0 -1,0.92656 -1,2.05902 0,1.13246 0.45,1.7809 1,1.44098 0.55,-0.33992 1,-1.26648 1,-2.05902 z M 84.015313,949.18173 c 0.0084,-1.27575 0.424125,-2.96561 0.923784,-3.75525 0.76512,-1.20915 1.164806,-1.22296 2.532945,-0.0875 2.288272,1.89909 1.54565,5.44968 -1.222042,5.84275 -1.781758,0.25305 -2.246813,-0.16316 -2.234687,-2 z M 62.256741,810.61218 c 2.846216,-2.8875 5.342365,-5.25 5.546997,-5.25 0.721801,0 -1.043002,8.51628 -2.014214,9.71984 -0.54139,0.67091 -2.722105,1.12091 -4.846034,1 l -3.861687,-0.21984 5.174938,-5.25 z m 7.691072,-7.68712 c 0.763617,-0.9201 2.789012,-1.53681 4.924632,-1.49949 3.880543,0.0678 2.738077,0.88237 -3.297077,2.35078 -2.574586,0.62642 -2.769387,0.52453 -1.627555,-0.85129 z M 88.8125,801.67907 c 0.721875,-0.28887 1.584375,-0.25335 1.916667,0.0789 0.332291,0.33229 -0.258334,0.56864 -1.3125,0.52522 -1.164943,-0.048 -1.4019,-0.28494 -0.604167,-0.60416 z"
           style="fill:#614f24" />
        <path
           inkscape:connector-curvature="0"
           id="path3098"
           d="m 133.99585,1023.265 c -10.83678,-0.6161 -14.97835,-1.9317 -18.19939,-5.7812 -1.6172,-1.9328 -1.58245,-2.2535 0.68561,-6.3288 1.31404,-2.3611 3.12925,-6.4841 4.0338,-9.1624 l 1.64464,-4.8696 -3.27831,-3.38236 c -2.43509,-2.51237 -2.98794,-3.67272 -2.14941,-4.51125 0.73525,-0.73525 0.93222,-3.47493 0.56487,-7.85673 -0.31022,-3.7003 -0.1666,-6.97066 0.31915,-7.26748 0.48576,-0.29681 10.6159,-0.86801 22.51144,-1.26932 l 21.62824,-0.72966 2.85327,3.20231 c 1.96744,2.20811 2.76301,4.06287 2.56253,5.97417 -0.21846,2.08269 0.37202,3.20612 2.37492,4.51848 2.11888,1.38834 2.55497,2.30011 2.12599,4.445 -0.91432,4.57161 2.42411,10.40524 7.18264,12.55104 3.98781,1.7982 4.22544,1.8014 6.12561,0.082 1.8018,-1.6306 2.03245,-1.6442 2.60469,-0.1529 0.3811,0.9931 1.7648,1.6361 3.52085,1.6361 3.71785,0 3.64373,0.88 -0.4046,4.8038 -2.62939,2.5485 -4.13597,3.1962 -7.4349,3.1962 -5.57787,0 -9.26749,1.5209 -9.26749,3.8202 0,3.0954 -3.1228,4.8961 -10.5,6.0545 -9.41356,1.4782 -16.96156,1.7412 -29.50415,1.0281 z M 99.75,1014.6043 c -0.9625,-0.2138 -1.75,-0.8058 -1.75,-1.3154 0,-1.1534 3.04392,-1.1852 4.83385,-0.051 1.11179,0.7047 1.11179,0.9212 0,1.3001 -0.73362,0.25 -2.12135,0.2796 -3.08385,0.066 z m -27.9375,-1.9252 c 0.721875,-0.2889 1.584375,-0.2534 1.916667,0.079 0.332291,0.3323 -0.258334,0.5686 -1.3125,0.5252 -1.164943,-0.048 -1.4019,-0.285 -0.604167,-0.6042 z m -7.784859,-2.7836 C 62.599003,1008.1741 60,1007.8299 60,1009.3622 c 0,3.8136 -12.767685,-5.0242 -16.481489,-11.40843 -3.465813,-5.95795 -4.680177,-22.3329 -3.751866,-50.59159 l 0.739136,-22.5 1.825893,3.35269 c 1.521494,2.79376 1.629989,3.82565 0.65079,6.18964 -0.646307,1.56033 -0.913409,3.26039 -0.593561,3.77791 1.027403,1.66237 5.535952,1.97523 6.784527,0.47079 0.954013,-1.14952 0.641071,-1.86381 -1.599156,-3.65011 -2.505959,-1.99818 -2.624275,-2.35453 -1.17978,-3.55336 2.4116,-2.00145 1.943073,-4.77136 -1.295102,-7.65659 -1.667749,-1.48597 -3.349586,-4.3675 -3.956939,-6.77952 -1.398227,-5.55286 -1.468907,-82.17295 -0.0782,-84.77151 1.140018,-2.13014 2.932918,-2.51412 2.941324,-0.62994 0.02343,5.25141 2.307561,8.79789 8.522777,13.23298 C 56.087759,847.3851 59,850.06039 59,850.79026 c 0,2.57142 -3.051612,3.91208 -8.41109,3.69526 -4.693336,-0.18988 -5.489929,0.0767 -6.967122,2.33113 -1.357834,2.07232 -1.405279,2.54553 -0.255217,2.54553 0.813312,0 1.983331,1.93269 2.757688,4.55527 1.070984,3.6272 1.718962,4.45749 3.180471,4.07529 1.347431,-0.35236 2.546082,0.6965 4.508083,3.94473 2.25597,3.73491 3.165025,4.42471 5.831129,4.42471 2.553782,0 3.556572,0.67467 5.237623,3.52384 1.143515,1.93811 2.739119,3.77711 3.545787,4.08666 2.207552,0.84711 6.034012,-2.48655 9.637112,-8.39598 1.772465,-2.90701 3.72056,-5.12176 4.3291,-4.92167 1.530402,0.50321 2.012161,4.70142 0.691101,6.02248 -1.56178,1.56178 -1.334328,7.15138 0.466374,11.46107 1.086018,2.5992 1.555103,7.08676 1.564593,14.96788 0.01255,10.42057 0.155743,11.25572 1.929909,11.25572 2.514947,0 3.040016,-2.47103 2.868609,-13.5 -0.07693,-4.95 0.182816,-12.44229 0.577215,-16.64953 0.666612,-7.11109 0.575765,-7.69439 -1.290641,-8.28676 -2.236631,-0.70988 -5.635552,-6.98818 -4.86721,-8.99045 0.271576,-0.70772 2.220135,-1.55277 4.33013,-1.87789 2.109996,-0.32512 4.828449,-0.88674 6.041008,-1.24803 1.771596,-0.52785 2.296212,-0.19434 2.670778,1.69789 0.25637,1.29512 1.064276,5.45948 1.795348,9.25412 1.669902,8.66768 3.532202,10.21746 7.597562,6.32259 2.91827,-2.79587 7.35331,-3.56308 10.19772,-1.76408 1.78872,1.13131 8.37806,-2.30792 10.43422,-5.44601 0.76032,-1.1604 2.37841,-5.65937 3.59575,-9.9977 2.11976,-7.55437 2.13741,-7.94341 0.41753,-9.20102 -0.9877,-0.72222 -3.01167,-1.31313 -4.4977,-1.31313 -1.58098,0 -2.9628,-0.67993 -3.3308,-1.63893 -0.54471,-1.41949 -0.0286,-1.55665 3.8545,-1.02441 2.93347,0.40208 5.44743,0.13841 7.27193,-0.76269 9.44594,-4.66524 9.64972,-4.68769 16.21437,-1.7863 3.34078,1.47653 6.07414,3.10541 6.07414,3.61973 0,0.51431 -0.74474,1.75805 -1.65499,2.76386 -1.50282,1.6606 -1.50714,1.82874 -0.0471,1.82874 0.88436,0 2.75228,-0.5214 4.15092,-1.15866 3.51726,-1.60257 6.25778,1.01975 7.12762,6.8202 0.98265,6.55279 -1.855,20.49225 -5.32681,26.16702 l -2.85796,4.67144 0.60174,13 c 0.36017,7.78117 0.2048,13.93027 -0.38703,15.31728 -1.35639,3.1788 1.78966,9.00595 5.31378,9.84228 1.41888,0.33672 3.70478,1.19077 5.07978,1.89789 1.375,0.70712 3.2875,1.53185 4.25,1.83273 2.06779,0.64639 2.30126,4.94096 0.67966,12.50222 -0.75327,3.51237 -1.47072,4.83721 -2.42186,4.47222 -0.74334,-0.28525 -2.25722,-0.0339 -3.36418,0.55852 -1.40001,0.74926 -2.83583,0.76418 -4.71683,0.049 -3.68288,-1.40022 -4.04203,-0.65356 -1.55402,3.23074 4.12453,6.43924 5.41237,10.00065 3.95132,10.92698 -0.72825,0.46172 -7.08394,0.84639 -14.12375,0.85481 -9.75373,0.0117 -13.52955,-0.36213 -15.86681,-1.57077 -1.68693,-0.87235 -3.97014,-1.34995 -5.07379,-1.06134 -1.16727,0.30525 -3.31448,-0.38936 -5.13319,-1.66054 -1.7196,-1.2019 -3.32789,-2.31315 -3.57398,-2.46943 -0.24609,-0.15628 0.29898,-1.54773 1.21127,-3.09211 2.26624,-3.83642 0.73046,-5.13048 -6.08884,-5.13048 -5.94172,0 -5.8523,-0.18758 -3.62214,7.59821 0.55319,1.93124 0.0975,2.14867 -5.72592,2.73236 -3.47982,0.34877 -7.33944,0.91956 -8.57694,1.26842 -3.486242,0.98277 -2.856036,-2.19295 1.25,-6.29899 1.925,-1.925 3.5,-3.61115 3.5,-3.74699 0,-0.13584 -0.9,-1.2847 -2,-2.55301 -3.598279,-4.14885 -2.500723,-7.6373 3.74761,-11.91133 1.78619,-1.2218 3.49794,-3.21883 3.80389,-4.43785 0.71766,-2.85938 -1.24607,-15.18889 -2.82075,-17.71034 -0.96718,-1.54871 -0.92612,-2.39475 0.20337,-4.19048 1.70468,-2.7102 2.32572,-11.91036 1.13069,-16.75 -0.47534,-1.925 -1.14295,-4.7375 -1.48358,-6.25 -0.34063,-1.5125 -1.22851,-2.75 -1.97305,-2.75 -1.73157,0 -2.55412,6.41606 -3.07955,24.0212 -0.31987,10.71755 -0.82385,14.50172 -2.430553,18.25 -1.114851,2.60084 -2.685333,4.7288 -3.489959,4.7288 -2.186745,0 -5.608118,-4.88661 -5.608118,-8.00986 0,-4.71558 -1.197243,-8.99014 -2.518011,-8.99014 -1.66965,0 -2.481989,2.29105 -2.481989,7 0,6.5365 -0.496518,7 -7.498581,7 -5.912975,0 -6.322693,-0.15176 -6.928739,-2.56644 -1.238153,-4.9332 -6.062727,-0.96668 -6.809381,5.59832 -0.190081,1.67129 0.681588,2.96203 3.134584,4.64159 4.24453,2.90623 4.669459,2.89642 7.514537,-0.17347 C 77.19449,935.86028 78,935.73074 78,938.28526 c 0,1.05769 -1.29907,3.22214 -2.886823,4.8099 -1.587753,1.58775 -4.022846,5.10987 -5.411317,7.82692 -3.29093,6.43991 -6.209761,9.4401 -9.184111,9.4401 -3.500352,0 -5.517749,3.55474 -5.517749,9.72251 0,3.82317 -0.380689,5.27749 -1.381462,5.27749 -0.759804,0 -2.053841,2.04238 -2.875638,4.53863 -1.490052,4.5261 -1.486929,4.54241 1.131462,5.90713 4.688385,2.44362 11.038774,9.10363 13.079652,13.71738 3.4022,7.69118 2.765507,14.81858 -0.926373,10.37018 z M 47.171259,876.70719 c 2.386156,-2.15944 2.33594,-4.34501 -0.09983,-4.34501 -1.909199,0 -5.071429,2.43477 -5.071429,3.90476 0,2.44594 2.700913,2.67588 5.171259,0.44025 z M 199.2,997.16218 c -1.62259,-1.62259 -1.57346,-1.92427 1.35668,-8.3302 2.17159,-4.74758 3.22592,-5.87634 7,-7.49409 2.44382,-1.04755 4.44332,-2.41215 4.44332,-3.03244 0,-0.6203 0.89384,-2.26415 1.98631,-3.653 1.78353,-2.26739 2.05572,-2.34432 2.66616,-0.75352 1.53573,4.00204 -1.50361,10.34229 -8.37989,17.48098 -3.69909,3.84025 -6.98369,6.98227 -7.2991,6.98227 -0.31541,0 -1.11348,-0.54 -1.77348,-1.2 z m -93.92809,-5.508 c -1.12937,-0.9856 -2.31632,-3.2545 -2.63766,-5.042 -0.53083,-2.95286 -0.35662,-3.25 1.90545,-3.25 2.67774,0 6.71901,5.19924 6.20933,7.98852 -0.40153,2.19736 -3.13352,2.34874 -5.47712,0.30348 z M 84.035184,963.42792 c -1.723509,-3.2204 -1.246368,-5.06574 1.309828,-5.06574 2.357604,0 5.654988,2.7476 5.654988,4.71211 0,0.91139 -3.029267,2.23249 -5.214816,2.27424 -0.393149,0.008 -1.180649,-0.85677 -1.75,-1.92061 z M 215,964.25654 c 0,-0.60811 -1.12513,-2.44279 -2.50029,-4.07708 -1.37516,-1.63428 -2.78282,-4.09709 -3.12813,-5.47291 -0.98425,-3.92159 -5.85604,-8.71245 -8.22868,-8.09199 -2.81326,0.73568 -2.9922,-0.46351 -1.67903,-11.25238 1.59735,-13.12372 1.23377,-41.02629 -0.62464,-47.93715 -1.74369,-6.48425 -3.35309,-7.46774 -4.26509,-2.60637 -1.60122,8.53526 -8.07414,0.95414 -8.07414,-9.45648 0,-5.06211 -0.17208,-5.47629 -2.16141,-5.20215 -2.59591,0.35773 -3.69369,-1.10368 -2.84283,-3.78449 0.71562,-2.25471 5.93481,-3.93181 12.00424,-3.85735 5.98971,0.0735 6.5,-0.0418 6.5,-1.46892 0,-0.7221 1.30229,-2.56058 2.89398,-4.08552 3.3507,-3.21017 5.39081,-9.47987 4.9286,-15.14664 -0.2734,-3.35201 -0.7037,-4.00765 -2.82258,-4.30075 -5.30967,-0.73447 -6.9604,-5.45834 -2.5,-7.15418 1.375,-0.52277 2.5,-1.17407 2.5,-1.44731 0,-0.27325 -2.475,-1.21632 -5.5,-2.09571 -6.17667,-1.79561 -7.31661,-3.01346 -2.01544,-2.1532 1.9165,0.31101 4.94874,0.14554 6.7383,-0.36769 3.0268,-0.86808 3.55828,-0.62864 7.6198,3.43288 3.25472,3.25473 4.56328,5.48156 5.1409,8.74854 1.78863,10.11626 0.74785,128.88249 -1.12943,128.88249 -0.46977,0 -0.85413,-0.49754 -0.85413,-1.10564 z M 178.85045,941.0248 c -0.43117,-5.32887 0.006,-7.86923 1.22523,-7.11585 1.18946,0.73513 1.21089,10.15809 0.0248,10.89115 -0.49475,0.30577 -1.05725,-1.39311 -1.25,-3.7753 z m -66.80742,-73.11077 c -0.93998,-1.13261 -0.91064,-2.05866 0.13466,-4.25 1.0398,-2.17983 2.13096,-2.86858 4.915,-3.10241 4.61518,-0.38764 6.58586,1.64821 4.827,4.98664 -0.6705,1.27266 -1.71423,2.64453 -2.31939,3.04861 -1.86261,1.24369 -6.29042,0.84361 -7.55727,-0.68284 z m 30.50786,-26.89624 C 141.1479,839.17837 140,837.10177 140,836.40312 c 0,-0.69866 -1.2021,-3.47894 -2.67133,-6.1784 l -2.67134,-4.90812 2.17134,-3.86336 c 3.32609,-5.91799 2.95646,-7.14681 -2.07867,-6.91032 -2.3375,0.10979 -4.98009,-0.13708 -5.87242,-0.54859 -1.31201,-0.60506 -1.53247,-0.27763 -1.15224,1.7114 0.56732,2.96775 -1.75257,4.01915 -6.22534,2.8214 -2.99077,-0.80089 -3.00089,-0.8286 -3.2907,-9.0001 l -0.2907,-8.19674 13.7907,0.0915 c 7.58489,0.0503 15.19354,0.3214 16.90812,0.60237 3.01464,0.49402 3.10169,0.65041 2.64036,4.74337 -0.62458,5.5412 1.33078,7.59465 7.23186,7.59465 4.83413,0 7.51036,0.75389 7.51036,2.11565 0,0.49592 -1.35,2.76529 -3,5.04305 -1.65,2.27776 -3,4.73849 -3,5.46829 0,1.00412 -3.36201,3.8667 -5.69705,4.85073 -0.10837,0.0457 -0.4603,1.64437 -0.78207,3.55266 -0.52092,3.08942 -5.50017,8.8573 -7.71999,8.94272 -0.38451,0.0148 -1.84701,-1.47808 -3.25,-3.31749 z m -17.99147,-8.54071 c -1.53817,-2.97448 -1.5225,-3.1149 0.34751,-3.1149 2.22812,0 3.82839,3.66468 2.27751,5.21556 -0.68566,0.68566 -1.53609,0.005 -2.62502,-2.10066 z M 52,833.36218 c 0,-0.55 0.423442,-1 0.940983,-1 0.517541,0 1.219098,0.45 1.559017,1 0.339919,0.55 -0.08352,1 -0.940983,1 -0.857459,0 -1.559017,-0.45 -1.559017,-1 z m 135,-11.03432 c -1.2972,-0.86799 -1.23507,-1.20574 0.45956,-2.49816 2.47065,-1.88426 3.95046,-1.42239 4.35999,1.36081 0.35037,2.38109 -2.09749,2.95876 -4.81955,1.13735 z m -10.32343,-4.66915 c -1.24369,-0.32156 -1.60663,-1.00004 -1.14154,-2.13399 0.37503,-0.9144 1.11109,-3.14992 1.63569,-4.96782 1.05915,-3.6703 3.55429,-5.23922 4.91489,-3.09044 1.24808,1.97108 1.12188,5.05021 -0.33561,8.18855 -1.25416,2.70052 -1.69897,2.8762 -5.07343,2.0037 z m 12.07502,-2.41046 c -2.11772,-1.58001 -2.6106,-2.59962 -2.14789,-4.44323 0.47524,-1.89348 0.0753,-2.63196 -1.91683,-3.53965 -4.20258,-1.91482 -3.94666,-5.90319 0.37879,-5.90319 0.91451,0 15.93434,14.62561 15.93434,15.51613 0,0.26613 -2.1375,0.46961 -4.75,0.45219 -3.19044,-0.0213 -5.65238,-0.70494 -7.49841,-2.08225 z M 61.75,815.67285 c -2.641432,-0.69027 -2.12413,-2.55572 1.75,-6.31067 l 3.5,-3.39233 0,3.62473 c 0,1.99361 -0.707143,4.33189 -1.571429,5.19617 -0.864285,0.86429 -1.651785,1.51923 -1.75,1.45543 -0.09821,-0.0638 -0.966071,-0.3218 -1.928571,-0.57333 z m 9.75,-13.31067 c 0.339919,-0.55 1.068034,-1 1.618034,-1 0.55,0 0.721885,0.45 0.381966,1 -0.339919,0.55 -1.068034,1 -1.618034,1 -0.55,0 -0.721885,-0.45 -0.381966,-1 z"
           style="fill:#483815" />
        <path
           inkscape:connector-curvature="0"
           id="path3096"
           d="m 135.5,1016.3874 c -3.3,-1.0258 -8.25,-1.9081 -11,-1.9605 -8.08175,-0.1541 -8.51776,-1.035 -3.68235,-7.4394 3.37524,-4.4705 4.89913,-5.6638 7.93023,-6.21 5.11702,-0.92204 6.42367,-2.20269 6.09849,-5.97707 -0.15232,-1.76798 0.3535,-3.97415 1.12404,-4.9026 1.20309,-1.44963 1.19818,-1.82192 -0.0347,-2.63554 -0.78964,-0.5211 -2.53218,-0.75815 -3.87232,-0.52678 C 128.65597,987.32379 127,986.48267 127,984.16363 c 0,-1.82856 0.48059,-1.93731 6.11387,-1.38348 9.93477,0.97674 19.26432,3.68731 28.88613,8.39247 5.31933,2.60121 7.56061,5.69693 4.82391,6.66291 -6.95845,2.45617 -6.93977,2.44167 -5.82415,4.52617 0.76002,1.4201 1.7354,1.8579 3.29025,1.4767 1.21549,-0.298 3.55999,-0.5774 5.20999,-0.6208 3.59793,-0.095 20.52776,2.8379 21.39137,3.7054 1.32145,1.3274 -4.2444,4.4392 -7.9401,4.4392 -4.909,0 -16.38556,2.6561 -20.36244,4.7126 -4.75501,2.4589 -19.63227,2.6306 -27.08883,0.3126 z m -71.357104,-8.339 c -0.746406,-0.9071 -5.50894,-4.3949 -10.583407,-7.7507 -13.379015,-8.84771 -12.993914,-7.81809 -13.391355,-35.80365 -0.187642,-13.21276 0.06384,-23.76385 0.578681,-24.27868 0.547394,-0.5474 1.939143,-0.10146 3.489595,1.11813 1.418477,1.11577 2.911724,2.02868 3.318327,2.02868 0.406604,0 2.617379,-1.53896 4.912835,-3.41991 4.23811,-3.47282 5.643874,-3.5264 6.850444,-0.26114 0.464717,1.25764 1.275415,1.62748 2.62708,1.19848 C 64.77209,939.98235 70,942.9692 70,945.48159 c 0,1.13743 -1.4625,4.53001 -3.25,7.53907 -2.377937,4.00301 -3.996097,5.623 -6.030551,6.03738 C 57.195698,959.77578 54,963.78524 54,967.48856 c 0,1.77367 -0.758231,3.3302 -2,4.10569 -1.484336,0.92699 -2,2.33203 -2,5.44946 0,2.31024 -0.45,4.47855 -1,4.81847 -2.055051,1.27009 -0.886996,3.64927 2.482871,5.05729 2.28188,0.95343 4.162845,2.78809 5.454792,5.32052 1.084556,2.12591 2.853709,4.09588 3.93145,4.37771 2.624422,0.6863 5.321522,6.1334 4.939496,9.9759 -0.275501,2.771 -0.4542,2.9271 -1.665713,1.4548 z M 200.01365,995.11218 c 0.0397,-3.63476 1.34342,-5.75 3.54396,-5.75 3.41568,0 3.96149,1.81854 1.37284,4.57403 -2.45162,2.60963 -4.93895,3.20454 -4.9168,1.17597 z m 6.51267,-10.70741 c -0.32544,-0.52658 0.8855,-1.70016 2.69098,-2.60796 1.80549,-0.9078 4.10731,-2.61447 5.11517,-3.79259 1.8282,-2.13705 1.8311,-2.1341 1.24406,1.26265 -0.32362,1.87258 -1.09083,4.01008 -1.70491,4.75 -1.28093,1.54343 -6.46204,1.81704 -7.3453,0.3879 z M 150,978.36218 c -0.90129,-0.58246 -1.02463,-0.97549 -0.30902,-0.98469 0.65504,-0.008 1.4691,0.43469 1.80902,0.98469 0.7673,1.24153 0.42112,1.24153 -1.5,0 z m -1.6924,-12.95372 c -0.96365,-1.12545 -2.47363,-2.04628 -3.35553,-2.04628 -2.46087,0 -5.95207,-4.30872 -5.95207,-7.34584 0,-1.49431 -0.5625,-2.91765 -1.25,-3.16296 -2.01285,-0.71824 -14.54237,-1.68269 -23.9429,-1.84298 -8.97242,-0.15299 -10.49168,-0.7346 -10.8358,-4.14822 -0.36934,-3.66385 0.009,-4.43821 2.89386,-5.93027 1.57583,-0.8149 3.55596,-2.96395 4.40028,-4.77568 2.00233,-4.29653 1.19875,-13.25116 -1.53835,-17.14256 -1.90244,-2.70473 -1.92088,-3.02191 -0.36533,-6.28392 0.90103,-1.88948 1.62221,-5.78266 1.60262,-8.6515 -0.0402,-5.88403 -2.24911,-16.14929 -3.90421,-18.14357 -1.70192,-2.05069 3.0054,-4.56383 8.65465,-4.62053 2.63185,-0.0264 6.18485,-0.81392 7.89557,-1.75 7.25191,-3.96817 11.70003,-7.5641 12.7291,-10.29043 0.60444,-1.60135 1.58705,-2.91154 2.18358,-2.91154 1.45867,0 7.47693,-6.2829 7.47693,-7.8057 0,-0.66577 -1.8219,-1.93947 -4.04866,-2.83045 -4.58727,-1.83546 -4.92435,-4.02713 -0.94248,-6.12791 2.6641,-1.40554 7.71898,-1.13148 12.31957,0.66792 l 2.82843,1.10627 -2.07843,3.36297 C 151.93529,856.58491 151,858.38263 151,858.73021 c 0,0.34758 1.97686,0.63197 4.39301,0.63197 5.27186,0 5.60597,0.5868 6.26327,11 0.68756,10.89274 0.74527,10.55602 -2.65628,15.5 -1.72027,2.50033 -3.07718,5.32319 -3.01535,6.27303 0.90437,13.89299 1.01497,24.99352 0.28343,28.44573 -0.54352,2.5649 -0.54282,5.67824 0.002,7.7659 0.78259,3.00017 0.61846,3.67755 -1.18043,4.87197 -2.63478,1.74943 -2.66977,3.7624 -0.0894,5.14337 1.1,0.5887 2,1.95453 2,3.03518 0,3.01105 2.97002,2.36356 3.60163,-0.78518 0.51405,-2.56265 0.92111,-2.7631 5.975,-2.94233 4.53676,-0.1609 5.42337,0.0888 5.42337,1.52749 0,2.38941 -2.8098,6.16484 -4.58809,6.16484 -0.81107,0 -1.73777,0.6856 -2.05932,1.52355 -0.43309,1.12861 -1.43951,1.36317 -3.88251,0.90486 -2.65957,-0.49894 -3.50609,-0.22964 -4.37362,1.39136 -0.88601,1.65552 -0.47211,2.90703 2.34672,7.0958 3.79201,5.6349 5.04401,8.68365 3.8475,9.36903 -0.43488,0.2491 -3.58975,0.75779 -7.01084,1.13043 -5.50992,0.60017 -6.42022,0.44388 -7.97224,-1.36875 z m 65.22974,-6.34894 c -0.98304,-1.50031 -1.78734,-3.8785 -1.78734,-5.28486 0,-1.78499 -0.73084,-2.8349 -2.42057,-3.47733 -1.41735,-0.53887 -3.22838,-2.68481 -4.36965,-5.17772 l -1.94909,-4.25743 3.12718,-2.68346 c 2.27816,-1.95491 2.93165,-3.17665 2.40701,-4.5 -0.39609,-0.9991 -0.92308,-4.51654 -1.17109,-7.81654 -0.24801,-3.3 -0.84731,-7.125 -1.33176,-8.5 -0.48446,-1.375 -1.11576,-7.31787 -1.4029,-13.20637 -0.28714,-5.88851 -1.0299,-11.65527 -1.65058,-12.81503 -1.85621,-3.46835 -0.23029,-19.95562 2.23411,-22.65457 1.21971,-1.33579 1.67775,-2.67616 1.18627,-3.47138 -1.64878,-2.66778 -0.56463,-7.73166 3.21289,-15.00694 2.47844,-4.77334 1.75992,-9.41741 -2.12182,-13.71403 -1.925,-2.13075 -3.5,-4.08581 -3.5,-4.34459 0,-0.25879 1.89557,-1.03844 4.21237,-1.73257 4.04878,-1.21304 4.30217,-1.15765 6.52483,1.42634 l 2.31247,2.68841 -0.12421,61.66536 c -0.0683,33.91596 -0.45643,62.54853 -0.86249,63.62795 -0.69104,1.837 -0.85266,1.78803 -2.52563,-0.76524 z M 40,934.36218 c 0,-1.86667 0.266667,-2.13333 1.2,-1.2 0.933333,0.93333 0.933333,1.46667 0,2.4 -0.933333,0.93333 -1.2,0.66667 -1.2,-1.2 z m 8.730511,-0.60282 c -0.331553,-0.33156 -0.169597,-1.7423 0.359901,-3.13498 1.008639,-2.65292 -1.003149,-7.2622 -3.169695,-7.2622 -2.681412,0 -4.753373,-8.62296 -5.460964,-22.7271 -0.788653,-15.71992 -1.357769,-13.61232 5.764811,-21.34882 2.312602,-2.51193 7.023035,-3.68128 7.619614,-1.89155 0.24721,0.74163 1.659338,2.50021 3.138062,3.90794 1.478725,1.40774 3.713802,4.2704 4.966838,6.36147 2.120241,3.53827 2.565119,3.78101 6.414585,3.5 3.600656,-0.26284 4.362521,-0.75521 5.882853,-3.80194 0.960584,-1.925 2.198084,-3.455 2.75,-3.4 2.557357,0.25485 3.005888,0.53597 4.091488,2.56444 0.637105,1.19044 1.553555,8.05294 2.036557,15.25 1.084203,16.15537 1.075811,15.8811 0.691065,22.58556 l -0.315626,5.5 -5.467955,-0.15386 c -3.295066,-0.0927 -5.629708,-0.63913 -5.875,-1.375 -0.731322,-2.19397 -4.204657,-5.05975 -5.306835,-4.37856 -0.592262,0.36603 -1.946906,2.63245 -3.01032,5.03647 -2.165885,4.89634 -4.415608,5.6171 -5.83989,1.87095 -1.274044,-3.35099 -3.500435,-3.15428 -5.659071,0.5 -1.786423,3.02417 -2.505791,3.5018 -3.610418,2.39718 z M 60,926.86218 c 0,-0.825 -0.45,-1.5 -1,-1.5 -0.55,0 -1,0.675 -1,1.5 0,0.825 0.45,1.5 1,1.5 0.55,0 1,-0.675 1,-1.5 z m 32.75,-4.5801 c -2.083709,-1.21365 -2.374002,-7.55226 -0.573864,-12.53045 0.921738,-2.54902 0.887329,-4.45643 -0.15908,-8.81835 -1.087236,-4.53211 -1.100768,-6.35562 -0.07286,-9.81846 1.604771,-5.40618 2.658653,-6.66926 5.044159,-6.04544 1.365605,0.35712 1.923078,1.40309 1.943617,3.64677 0.01584,1.73032 0.05084,4.44599 0.07778,6.03484 0.02694,1.58885 -0.69691,3.71301 -1.608555,4.72037 -1.548068,1.71059 -1.513694,2.18596 0.520479,7.19784 2.875404,7.08455 2.898614,8.62966 0.195312,13.00369 -2.471302,3.99865 -2.749347,4.13383 -5.366986,2.60919 z M 40.078947,876.77885 c 0.04798,-1.16495 0.284941,-1.4019 0.604167,-0.60417 0.288871,0.72187 0.253344,1.58437 -0.07895,1.91667 -0.332292,0.33229 -0.568641,-0.25834 -0.52522,-1.3125 z m 1.057235,-8.16667 c -0.07854,-3.02786 0.300366,-5.25 0.895203,-5.25 1.548064,0 2.335014,2.85177 1.176309,4.26273 -0.558832,0.6805 -1.222894,2.36227 -1.475694,3.73727 -0.2528,1.375 -0.520918,0.1375 -0.595818,-2.75 z m -1.122527,-22 c 0.01426,-10.18481 0.614193,-14.25 2.102976,-14.25 0.485853,0 0.883369,1.08825 0.883369,2.41834 0,1.42156 1.87075,4.60999 4.538684,7.73556 5.35044,6.2682 5.531471,8.9528 0.67036,9.94115 -1.810026,0.36801 -4.095459,1.39717 -5.078741,2.28703 -0.983281,0.88985 -2.089851,1.61792 -2.459044,1.61792 -0.369192,0 -0.665114,-4.3875 -0.657604,-9.75 z M 147,837.86218 c -0.68469,-0.825 -2.10391,-1.5 -3.15383,-1.5 -1.04992,0 -2.15267,-0.7875 -2.45055,-1.75 -0.29789,-0.9625 -0.95877,-2.53139 -1.46862,-3.48643 -1.21498,-2.27587 -1.179,-5.11157 0.0808,-6.37142 0.55432,-0.55432 1.58541,-3.00682 2.29131,-5.45 0.89362,-3.09292 2.08395,-4.82774 3.91899,-5.71166 2.33194,-1.12326 3.05096,-0.9876 6.24162,1.17764 1.98333,1.34593 4.15375,2.63153 4.82315,2.85689 0.92742,0.31222 0.94123,0.74593 0.058,1.82236 C 155.57751,821.59879 152,832.90618 152,836.33063 c 0,2.29898 -0.45371,3.03155 -1.87756,3.03155 -1.03265,0 -2.43775,-0.675 -3.12244,-1.5 z m 47.54168,-22.22944 C 191.50029,814.86018 188,812.2736 188,810.79869 c 0,-0.73341 -1.125,-2.54736 -2.5,-4.03101 -2.94453,-3.1772 -3.15382,-4.40611 -0.75,-4.40386 0.9625,9e-4 4.8702,3.1509 8.68378,7 6.81456,6.87804 6.97008,7.75799 1.1079,6.26892 z M 61,813.60604 c 0,-0.49238 1.164303,-1.98617 2.58734,-3.31955 l 2.58734,-2.42431 -0.33734,3 c -0.24979,2.22141 -0.921286,3.08293 -2.58734,3.31955 -1.2375,0.17575 -2.25,-0.0833 -2.25,-0.57569 z m 58.60699,-3.82565 C 119.27314,808.91041 119,806.88541 119,805.28039 l 0,-2.91821 15.06642,0 15.06642,0 -0.31642,2.75 c -0.30123,2.618 -0.60365,2.76473 -6.30054,3.05689 -3.42244,0.17552 -6.66943,0.92708 -7.585,1.75567 -1.40032,1.26726 -2.00471,1.24732 -4.82411,-0.15918 -2.95671,-1.475 -3.36963,-1.47547 -4.99374,-0.006 -2.25747,2.04298 -4.72641,2.05217 -5.50604,0.0205 z"
           style="fill:#000000" />
      </g>
    </g>
  </g>
</svg>
