<?xml version="1.0" encoding="UTF-8" standalone="no"?>
<!-- Created with Inkscape (http://www.inkscape.org/) -->

<svg
   xmlns:dc="http://purl.org/dc/elements/1.1/"
   xmlns:cc="http://creativecommons.org/ns#"
   xmlns:rdf="http://www.w3.org/1999/02/22-rdf-syntax-ns#"
   xmlns:svg="http://www.w3.org/2000/svg"
   xmlns="http://www.w3.org/2000/svg"
   xmlns:sodipodi="http://sodipodi.sourceforge.net/DTD/sodipodi-0.dtd"
   xmlns:inkscape="http://www.inkscape.org/namespaces/inkscape"
   width="32"
   height="32"
   version="1.1"
   id="svg8"
   inkscape:version="0.92.1 r15371"
   sodipodi:docname="icon_freesoundInfo2.svg"
   inkscape:export-filename="/home/hhrutz/Downloads/foo.png"
   inkscape:export-xdpi="72.000008"
   inkscape:export-ydpi="72.000008">
  <defs
     id="defs2" />
  <sodipodi:namedview
     id="base"
     pagecolor="#ffffff"
     bordercolor="#666666"
     borderopacity="1.0"
     inkscape:pageopacity="0.0"
     inkscape:pageshadow="2"
     inkscape:zoom="15.839192"
     inkscape:cx="20.858459"
     inkscape:cy="18.017857"
     inkscape:document-units="px"
     inkscape:current-layer="svg8"
     showgrid="false"
     units="px"
     inkscape:snap-nodes="false"
     inkscape:window-width="1920"
     inkscape:window-height="1016"
     inkscape:window-x="0"
     inkscape:window-y="27"
     inkscape:window-maximized="1" />
  <metadata
     id="metadata5">
    <rdf:RDF>
      <cc:Work
         rdf:about="">
        <dc:format>image/svg+xml</dc:format>
        <dc:type
           rdf:resource="http://purl.org/dc/dcmitype/StillImage" />
        <dc:title></dc:title>
      </cc:Work>
    </rdf:RDF>
  </metadata>
  <path
     style="color:#000000;font-style:normal;font-variant:normal;font-weight:normal;font-stretch:normal;font-size:medium;line-height:normal;font-family:sans-serif;font-variant-ligatures:normal;font-variant-position:normal;font-variant-caps:normal;font-variant-numeric:normal;font-variant-alternates:normal;font-feature-settings:normal;text-indent:0;text-align:start;text-decoration:none;text-decoration-line:none;text-decoration-style:solid;text-decoration-color:#000000;letter-spacing:normal;word-spacing:normal;text-transform:none;writing-mode:lr-tb;direction:ltr;text-orientation:mixed;dominant-baseline:auto;baseline-shift:baseline;text-anchor:start;white-space:normal;shape-padding:0;clip-rule:nonzero;display:inline;overflow:visible;visibility:visible;opacity:1;isolation:auto;mix-blend-mode:normal;color-interpolation:sRGB;color-interpolation-filters:linearRGB;solid-color:#000000;solid-opacity:1;vector-effect:none;fill:#000000;fill-opacity:1;fill-rule:nonzero;stroke:none;stroke-width:1;stroke-linecap:square;stroke-linejoin:round;stroke-miterlimit:4;stroke-dasharray:none;stroke-dashoffset:0;stroke-opacity:1;color-rendering:auto;image-rendering:auto;shape-rendering:auto;text-rendering:auto;enable-background:accumulate"
     d="m 3.4098096,2.5070696 c -0.3024292,0 -0.5696501,0.1326784 -0.6425782,0.546875 -1.3e-6,6.511e-4 -1.3e-6,0.0013 0,0.00195 L 1.6148877,9.481679 c -0.00122,0.00523 -0.00252,0.010438 -0.00391,0.015625 0,0 -0.2107047,0.998993 -0.2929687,2.050781 -0.041133,0.525894 -0.046551,1.065161 0.011719,1.464844 0.05827,0.399683 0.197129,0.589942 0.21875,0.601563 0.2116688,0.113749 0.268782,0.08781 0.3125,0.07031 0.043718,-0.0175 0.1185082,-0.08244 0.1894532,-0.207031 0.1418901,-0.249188 0.2050781,-0.63086 0.2050781,-0.63086 5.881e-4,-0.0046 0.00124,-0.0091 0.00195,-0.01367 L 2.9273877,8.6047259 c 0.087568,-0.564535 0.9007134,-0.564535 0.9882813,0 L 6.5445752,25.397695 c -1.3e-6,6.51e-4 -1.3e-6,0.0013 0,0.002 0.061575,0.400091 0.3186366,0.545389 0.6152344,0.560547 0.2965977,0.01511 0.5653339,-0.102499 0.6660156,-0.494188 L 7.9996533,24.798085 C 6.4941768,17.884677 5.3201526,10.290551 4.0543408,3.0539446 3.9815838,2.6407189 3.7122388,2.5070696 3.4098096,2.5070696 Z m 24.6546434,3.158946 c -1.842469,-0.044539 -3.517578,1.6260862 -3.517578,3.8945313 v 2.5390621 c -2.8e-5,0.276131 -0.223869,0.499972 -0.5,0.5 h -4.990234 c -0.0176,2.78e-4 -0.0352,-3.74e-4 -0.05273,-0.002 -0.245184,-0.02604 -0.546558,0.002 -0.904297,0.002 -0.02489,0 -0.04547,0.01346 -0.07031,0.01367 -0.05514,0.02332 -0.114014,0.03655 -0.173828,0.03906 -0.206393,0.0062 -0.474328,0.126617 -0.892578,0.185547 -0.02198,0.0034 -0.04417,0.0054 -0.06641,0.0059 -0.0013,5e-6 -0.0026,5e-6 -0.0039,0 -4.093666,0.60982 -7.2929686,3.994141 -7.2929686,8.255859 0,4.689715 3.8102856,8.5 8.4999996,8.5 2.436042,0 4.626665,-1.035026 6.179688,-2.683593 0.09448,-0.09979 0.225862,-0.156296 0.363281,-0.15625 H 26.625 V 14.470703 c 2.8e-5,-0.276131 0.223869,-0.499972 0.5,-0.5 h 2.367188 0.65039 V 12.652344 H 29.492188 27.125 c -0.276131,-2.8e-5 -0.499972,-0.223869 -0.5,-0.5 V 9.5605469 c 0,-0.6279249 0.197304,-1.1006792 0.486328,-1.3945313 0.28902,-0.293852 0.611864,-0.4014612 0.902344,-0.3945312 0.0063,1.34e-5 0.01278,3.48e-5 0.01758,0 0.0013,-5.1e-6 0.0026,-5.1e-6 0.0039,0 h 1.035156 1.03125 V 5.6660156 h -1.03125 -0.99414 c -0.0039,4.58e-5 -0.0078,4.58e-5 -0.01172,0 z M 18.099609,13.199219 C 22.464848,13.199219 26,16.734372 26,21.099609 26,25.464848 22.464848,29 18.099609,29 c -4.365237,0 -7.90039,-3.535152 -7.90039,-7.900391 0,-4.365237 3.535153,-7.90039 7.90039,-7.90039 z m 0.05664,2.140625 c -0.749289,0 -1.255859,0.47845 -1.255859,0.894531 0,0.255922 0.103069,0.456427 0.310547,0.625 0.207476,0.168573 0.527395,0.289063 0.921874,0.289063 0.394481,0 0.725233,-0.121613 0.939454,-0.291016 0.21422,-0.169403 0.316406,-0.366762 0.316406,-0.605469 0,-0.451853 -0.483135,-0.912109 -1.232422,-0.912109 z m -1.404297,4.167968 c 0.23946,0.278585 0.351563,0.6325 0.351563,1.003907 v 5.326172 c 0,0.203409 -0.0078,0.388739 -0.05664,0.580078 -0.04034,0.157972 -0.143815,0.30919 -0.259766,0.443359 h 2.785157 c -0.217369,-0.274092 -0.339844,-0.607738 -0.339844,-0.96875 v -6.384766 z"
     id="path4555"
     inkscape:connector-curvature="0"
     sodipodi:nodetypes="scccccsccsccccccscccscsccccscccccsscccccccccccscccccccccccsssssccscssccscccsccc" />
</svg>
