<?xml version="1.0" encoding="UTF-8" standalone="no"?>
<svg
   xmlns:dc="http://purl.org/dc/elements/1.1/"
   xmlns:cc="http://creativecommons.org/ns#"
   xmlns:rdf="http://www.w3.org/1999/02/22-rdf-syntax-ns#"
   xmlns:svg="http://www.w3.org/2000/svg"
   xmlns="http://www.w3.org/2000/svg"
   xmlns:sodipodi="http://sodipodi.sourceforge.net/DTD/sodipodi-0.dtd"
   xmlns:inkscape="http://www.inkscape.org/namespaces/inkscape"
   viewBox="0 0 32 32"
   version="1.1"
   x="0px"
   y="0px"
   id="svg2"
   inkscape:version="0.48.5 r10040"
   width="100%"
   height="100%"
   sodipodi:docname="icon_crop.svg">
  <metadata
     id="metadata20">
    <rdf:RDF>
      <cc:Work
         rdf:about="">
        <dc:format>image/svg+xml</dc:format>
        <dc:type
           rdf:resource="http://purl.org/dc/dcmitype/StillImage" />
      </cc:Work>
    </rdf:RDF>
  </metadata>
  <defs
     id="defs18" />
  <sodipodi:namedview
     pagecolor="#ffffff"
     bordercolor="#666666"
     borderopacity="1"
     objecttolerance="10"
     gridtolerance="10"
     guidetolerance="10"
     inkscape:pageopacity="0"
     inkscape:pageshadow="2"
     inkscape:window-width="1440"
     inkscape:window-height="834"
     id="namedview16"
     showgrid="false"
     inkscape:zoom="13.350176"
     inkscape:cx="33.902585"
     inkscape:cy="14.045418"
     inkscape:window-x="0"
     inkscape:window-y="27"
     inkscape:window-maximized="1"
     inkscape:current-layer="svg2" />
  <title
     id="title4">Crop</title>
  <path
     inkscape:connector-curvature="0"
     id="path8"
     d="m 6.3930156,13.116319 0,-11.6565707 2.0726092,0 2.0726092,0 0,9.5875387 0,9.587786 10.211391,0 10.211391,0 0,2.068905 0,2.068905 -12.284,0 -12.2840004,0 0,-11.656564 z"
     style="fill:#000000;fill-opacity:1;fill-rule:evenodd;stroke:none" />
  <path
     style="fill:#000000;fill-opacity:1;fill-rule:evenodd;stroke:none;stroke-width:0.48304807999999999;stroke-linecap:butt;stroke-linejoin:miter;stroke-miterlimit:4;stroke-opacity:1;stroke-dasharray:none;stroke-dashoffset:12"
     d="M 1.28125 7.125 L 1.28125 8.9375 L 1.28125 10.75 L 3.09375 10.75 L 4.90625 10.75 L 4.90625 8.9375 L 4.90625 7.125 L 3.09375 7.125 L 1.28125 7.125 z "
     id="path10" />
  <path
     style="fill:#000000;fill-opacity:1;fill-rule:evenodd;stroke:none;stroke-width:0.48304807999999999;stroke-linecap:butt;stroke-linejoin:miter;stroke-miterlimit:4;stroke-opacity:1;stroke-dasharray:none;stroke-dashoffset:12"
     d="M 12 7.125 L 12 8.9375 L 12 10.75 L 16.59375 10.75 L 21.4375 10.75 L 21.65625 10.75 L 21.65625 11 L 21.65625 15.21875 L 21.65625 19.1875 L 23.46875 19.1875 L 25.28125 19.1875 L 25.28125 13.15625 L 25.28125 7.125 L 18.65625 7.125 L 12 7.125 z "
     id="path12" />
  <path
     style="fill:#000000;fill-opacity:1;fill-rule:evenodd;stroke:none;stroke-width:0.48304807999999999;stroke-linecap:butt;stroke-linejoin:miter;stroke-miterlimit:4;stroke-opacity:1;stroke-dasharray:none;stroke-dashoffset:12"
     d="M 21.65625 26.28125 L 21.65625 28.09375 L 21.65625 29.875 L 23.46875 29.875 L 25.28125 29.875 L 25.28125 28.09375 L 25.28125 26.28125 L 23.46875 26.28125 L 21.65625 26.28125 z "
     id="path14" />
</svg>
