<?xml version="1.0" encoding="UTF-8" standalone="no"?>
<svg
   xmlns:dc="http://purl.org/dc/elements/1.1/"
   xmlns:cc="http://creativecommons.org/ns#"
   xmlns:rdf="http://www.w3.org/1999/02/22-rdf-syntax-ns#"
   xmlns:svg="http://www.w3.org/2000/svg"
   xmlns="http://www.w3.org/2000/svg"
   xmlns:sodipodi="http://sodipodi.sourceforge.net/DTD/sodipodi-0.dtd"
   xmlns:inkscape="http://www.inkscape.org/namespaces/inkscape"
   version="1.1"
   x="0px"
   y="0px"
   viewBox="0 0 32 32"
   xml:space="preserve"
   id="svg2"
   inkscape:version="0.48.5 r10040"
   width="100%"
   height="100%"
   sodipodi:docname="icon_gain2_path.svg"><metadata
     id="metadata12"><rdf:RDF><cc:Work
         rdf:about=""><dc:format>image/svg+xml</dc:format><dc:type
           rdf:resource="http://purl.org/dc/dcmitype/StillImage" /><dc:title></dc:title></cc:Work></rdf:RDF></metadata><defs
     id="defs10" /><sodipodi:namedview
     pagecolor="#ffffff"
     bordercolor="#666666"
     borderopacity="1"
     objecttolerance="10"
     gridtolerance="10"
     guidetolerance="10"
     inkscape:pageopacity="0"
     inkscape:pageshadow="2"
     inkscape:window-width="1150"
     inkscape:window-height="830"
     id="namedview8"
     showgrid="false"
     showguides="true"
     inkscape:guide-bbox="true"
     inkscape:zoom="4.72"
     inkscape:cx="-2.2279163"
     inkscape:cy="17.258778"
     inkscape:window-x="0"
     inkscape:window-y="27"
     inkscape:window-maximized="0"
     inkscape:current-layer="svg2" /><path
     style="color:#000000;fill:#000000;fill-opacity:1;fill-rule:nonzero;stroke:none;stroke-width:3;marker:none;visibility:visible;display:inline;overflow:visible;enable-background:accumulate"
     d="M 16 0 L 10 7 L 15.1875 7 L 13.6875 10.96875 L 12.5 14.09375 L 11.71875 12.59375 L 10.40625 10.15625 L 9.0625 12.59375 L 7.53125 15.375 L 6.53125 14.71875 L 5.96875 14.375 L 5.34375 14.5 L 3.46875 14.9375 L 1.53125 14.25 L 0.46875 17.0625 L 2.84375 17.9375 L 3.25 18.0625 L 3.6875 17.96875 L 5.40625 17.5625 L 7.21875 18.78125 L 8.5625 19.6875 L 9.34375 18.25 L 10.34375 16.4375 L 11.40625 18.4375 L 12.96875 21.375 L 14.125 18.25 L 14.8125 16.4375 L 15.96875 20.875 L 17.03125 25 L 10 25 L 16 32 L 22 25 L 17.5625 25 L 18.84375 20.9375 L 20.21875 16.5625 L 20.84375 17.53125 L 21.9375 19.21875 L 23.25 17.6875 L 24.75 15.9375 L 26 16.75 L 26.40625 17.03125 L 26.875 17 L 28.96875 16.875 L 29.03125 16.875 L 31.3125 17.15625 L 31.6875 14.15625 L 29.3125 13.90625 L 29.1875 13.875 L 29.0625 13.875 L 27.1875 13.96875 L 25.28125 12.71875 L 24.1875 12 L 23.3125 13 L 22.28125 14.21875 L 21.03125 12.28125 L 19.3125 9.59375 L 18.34375 12.625 L 17.5625 15.09375 L 16.53125 11.125 L 15.46875 7 L 22 7 L 16 0 z "
     id="path3793" /></svg>