<?xml version="1.0" encoding="UTF-8" standalone="no"?>
<svg
   xmlns:dc="http://purl.org/dc/elements/1.1/"
   xmlns:cc="http://creativecommons.org/ns#"
   xmlns:rdf="http://www.w3.org/1999/02/22-rdf-syntax-ns#"
   xmlns:svg="http://www.w3.org/2000/svg"
   xmlns="http://www.w3.org/2000/svg"
   xmlns:sodipodi="http://sodipodi.sourceforge.net/DTD/sodipodi-0.dtd"
   xmlns:inkscape="http://www.inkscape.org/namespaces/inkscape"
   version="1.0"
   x="0px"
   y="0px"
   viewBox="0 0 32 32"
   xml:space="preserve"
   id="svg2"
   inkscape:version="0.48.5 r10040"
   width="100%"
   height="100%"
   sodipodi:docname="icon_fscape.svg"><metadata
     id="metadata18"><rdf:RDF><cc:Work
         rdf:about=""><dc:format>image/svg+xml</dc:format><dc:type
           rdf:resource="http://purl.org/dc/dcmitype/StillImage" /></cc:Work></rdf:RDF></metadata><defs
     id="defs16" /><sodipodi:namedview
     pagecolor="#ffffff"
     bordercolor="#666666"
     borderopacity="1"
     objecttolerance="10"
     gridtolerance="10"
     guidetolerance="10"
     inkscape:pageopacity="0"
     inkscape:pageshadow="2"
     inkscape:window-width="1085"
     inkscape:window-height="832"
     id="namedview14"
     showgrid="false"
     inkscape:zoom="9.44"
     inkscape:cx="24.576271"
     inkscape:cy="16.101695"
     inkscape:window-x="0"
     inkscape:window-y="27"
     inkscape:window-maximized="0"
     inkscape:current-layer="svg2" /><path
     d="m 25.6875,1.125 c -1.750123,2.0098333 -4.802666,2.2188722 -6.8125,0.46875 2.0088,1.7490889 1.748057,4.5835722 0,6.59375 L 0.5,31 19.78125,8.96875 C 21.532062,6.9582277 24.146073,6.1870333 26.15625,7.9375 24.146417,6.1870333 23.937377,3.1348333 25.6875,1.125 z M 0.5,31 l 12.15625,-7.9375 0.3125,-0.21875 c 1.306822,-0.7843 2.800461,-0.740094 3.71875,0.53125 -0.9951,-1.378123 -0.690621,-3.3174 0.6875,-4.3125 -1.378121,0.9951 -3.285806,0.690621 -4.28125,-0.6875 0.995444,1.378121 0.378467,2.848306 -1,3.84375 z m 0,0 25.5,-9.28125 c 1.556544,-0.6014 3.179506,-0.33745 3.78125,1.21875 -0.601744,-1.5562 0.16255,-3.30485 1.71875,-3.90625 -1.5562,0.6014 -3.30485,-0.1938 -3.90625,-1.75 0.601054,1.55551 -0.444834,2.835754 -2,3.4375 z m 0,0 20.65625,-3.59375 c 1.263422,-0.245245 2.41135,0.174079 2.65625,1.4375 -0.245244,-1.263421 0.581016,-2.47385 1.84375,-2.71875 -1.262734,0.2449 -2.473506,-0.580327 -2.71875,-1.84375 0.245244,1.263078 -0.643172,2.066911 -1.90625,2.3125 z m 0,0 10.3125,-18.65625 c 0.645145,-1.191433 1.736956,-1.923039 2.875,-1.59375 0.157756,0.05029 0.294212,0.109656 0.4375,0.1875 C 12.831267,10.236556 12.393745,8.5998777 13.125,7.25 12.394089,8.5998777 10.731577,9.1065055 9.4375,8.40625 10.731577,9.1065055 10.856255,10.650121 10.125,12 z"
     id="path12"
     inkscape:connector-curvature="0"
     sodipodi:nodetypes="ccccccccccccccccccccccccccccccccccccc" /></svg>