<?xml version="1.0" encoding="UTF-8" standalone="no"?>
<!-- Created with Inkscape (http://www.inkscape.org/) -->

<svg
   xmlns:dc="http://purl.org/dc/elements/1.1/"
   xmlns:cc="http://creativecommons.org/ns#"
   xmlns:rdf="http://www.w3.org/1999/02/22-rdf-syntax-ns#"
   xmlns:svg="http://www.w3.org/2000/svg"
   xmlns="http://www.w3.org/2000/svg"
   xmlns:sodipodi="http://sodipodi.sourceforge.net/DTD/sodipodi-0.dtd"
   xmlns:inkscape="http://www.inkscape.org/namespaces/inkscape"
   width="32"
   height="32"
   id="svg2"
   version="1.1"
   inkscape:version="0.48.5 r10040"
   sodipodi:docname="icon_float.svg">
  <defs
     id="defs4" />
  <sodipodi:namedview
     id="base"
     pagecolor="#ffffff"
     bordercolor="#666666"
     borderopacity="1.0"
     inkscape:pageopacity="0.0"
     inkscape:pageshadow="2"
     inkscape:zoom="5.6"
     inkscape:cx="-9.1819983"
     inkscape:cy="1.9320097"
     inkscape:document-units="px"
     inkscape:current-layer="layer1"
     showgrid="false"
     inkscape:window-width="1440"
     inkscape:window-height="834"
     inkscape:window-x="0"
     inkscape:window-y="27"
     inkscape:window-maximized="1" />
  <metadata
     id="metadata7">
    <rdf:RDF>
      <cc:Work
         rdf:about="">
        <dc:format>image/svg+xml</dc:format>
        <dc:type
           rdf:resource="http://purl.org/dc/dcmitype/StillImage" />
        <dc:title></dc:title>
      </cc:Work>
    </rdf:RDF>
  </metadata>
  <g
     inkscape:label="Layer 1"
     inkscape:groupmode="layer"
     id="layer1"
     transform="translate(0,0)">
    <g
       style="font-size:36px;font-style:normal;font-variant:normal;font-weight:normal;font-stretch:normal;line-height:125%;letter-spacing:0px;word-spacing:0px;fill:#000000;fill-opacity:1;stroke:none;font-family:TG Pagella Math;-inkscape-font-specification:TG Pagella Math"
       id="text2985"
       transform="matrix(0.8,0,0,0.8,3.2892,3.3304)">
      <path
         d="M 29.892,27.416 C 29.136001,27.272 27.804,26.3 27.408,25.796 L 20.136,17.12 c 4.031996,-1.116 5.796,-3.168 5.796,-6.624 0,-3.888 -3.420005,-6.192 -8.172,-6.192 l -14.544,0 0,1.584 1.476,0.108 c 1.043999,0.072 1.116,0.432 1.116,2.448 l 0,16.416 c 0,2.052 -0.072001,2.376 -1.08,2.448 L 3,27.416 3,29 l 11.7,0 0,-1.584 -1.728,-0.108 c -1.007999,-0.072 -1.08,-0.396 -1.08,-2.448 l 0,-18.972 3.456,0 c 3.275997,0 4.32,2.736 4.32,5.364 0,2.844 -2.448002,4.896 -4.932,4.968 l -1.368,0 -0.432,1.944 9.18,10.836 7.416,0 0.36,-1.584 m -5.544,-16.92 c 0,2.52 -1.260003,3.96 -4.716,5.004 0.971999,-1.116 1.62,-2.592 1.62,-4.248 0,-1.944 -0.468001,-3.888 -1.692,-5.22 2.807997,0.432 4.788,1.944 4.788,4.464 m 2.484,16.92 -3.924,0 -8.1,-9.612 c 1.151999,-0.036 2.376001,-0.252 3.42,-0.468 l 7.992,9.468 c 0.144,0.18 0.36,0.396 0.612,0.612 m -16.344,0 -3.276,0 c 0.1439999,-0.576 0.18,-1.404 0.18,-2.556 l 0,-16.416 c 0,-1.152 -0.036,-1.98 -0.18,-2.556 l 3.096,0 0,18.972 c 0,1.152 0.036,1.98 0.18,2.556"
         id="path3009"
         inkscape:connector-curvature="0" />
    </g>
    <text
       xml:space="preserve"
       style="font-size:15.64245796px;font-style:normal;font-variant:normal;font-weight:normal;font-stretch:normal;text-align:start;line-height:125%;letter-spacing:0px;word-spacing:0px;text-anchor:start;fill:#000000;fill-opacity:1;stroke:none;font-family:Liberation Sans;-inkscape-font-specification:Sans"
       x="-1.4413408"
       y="23.993296"
       id="text2984"
       sodipodi:linespacing="125%"><tspan
         sodipodi:role="line"
         id="tspan2986"
         x="-1.4413408"
         y="23.993296"
         style="font-size:31.28491592px;font-style:normal;font-variant:normal;font-weight:normal;font-stretch:normal;font-family:Linux Biolinum O;-inkscape-font-specification:Linux Biolinum O">[</tspan></text>
    <text
       sodipodi:linespacing="125%"
       id="text2988"
       y="23.993296"
       x="22.147486"
       style="font-size:15.64245796px;font-style:normal;font-variant:normal;font-weight:normal;font-stretch:normal;text-align:start;line-height:125%;letter-spacing:0px;word-spacing:0px;text-anchor:start;fill:#000000;fill-opacity:1;stroke:none;font-family:Liberation Sans;-inkscape-font-specification:Sans"
       xml:space="preserve"><tspan
         style="font-size:31.28491592px;font-style:normal;font-variant:normal;font-weight:normal;font-stretch:normal;font-family:Linux Biolinum O;-inkscape-font-specification:Linux Biolinum O"
         y="23.993296"
         x="22.147486"
         id="tspan2990"
         sodipodi:role="line">]</tspan></text>
  </g>
</svg>
