<?xml version="1.0" encoding="UTF-8" standalone="no"?>
<svg
   xmlns:dc="http://purl.org/dc/elements/1.1/"
   xmlns:cc="http://creativecommons.org/ns#"
   xmlns:rdf="http://www.w3.org/1999/02/22-rdf-syntax-ns#"
   xmlns:svg="http://www.w3.org/2000/svg"
   xmlns="http://www.w3.org/2000/svg"
   xmlns:sodipodi="http://sodipodi.sourceforge.net/DTD/sodipodi-0.dtd"
   xmlns:inkscape="http://www.inkscape.org/namespaces/inkscape"
   version="1.1"
   x="0px"
   y="0px"
   viewBox="0 0 32 32"
   xml:space="preserve"
   id="svg2"
   inkscape:version="0.48.5 r10040"
   width="100%"
   height="100%"
   sodipodi:docname="icon_gain.svg"><metadata
     id="metadata12"><rdf:RDF><cc:Work
         rdf:about=""><dc:format>image/svg+xml</dc:format><dc:type
           rdf:resource="http://purl.org/dc/dcmitype/StillImage" /><dc:title></dc:title></cc:Work></rdf:RDF></metadata><defs
     id="defs10" /><sodipodi:namedview
     pagecolor="#ffffff"
     bordercolor="#666666"
     borderopacity="1"
     objecttolerance="10"
     gridtolerance="10"
     guidetolerance="10"
     inkscape:pageopacity="0"
     inkscape:pageshadow="2"
     inkscape:window-width="1150"
     inkscape:window-height="830"
     id="namedview8"
     showgrid="false"
     showguides="true"
     inkscape:guide-bbox="true"
     inkscape:zoom="4.72"
     inkscape:cx="5.1997195"
     inkscape:cy="22.22307"
     inkscape:window-x="0"
     inkscape:window-y="27"
     inkscape:window-maximized="0"
     inkscape:current-layer="svg2" /><path
     id="path3798"
     style="color:#000000;fill:#000000;fill-opacity:1;fill-rule:nonzero;stroke:none;stroke-width:3;marker:none;visibility:visible;display:inline;overflow:visible;enable-background:accumulate"
     d="m 21,15.26601 -10,0 L 16,22 z m 0,-2.144664 -10,0 5,-6.7339896 z M 16,1.5 C 13.405102,1.5 11.24945,2.6896267 9.6875,4.40625 8.1255504,6.1228733 7.0391449,8.3198797 6.09375,10.6875 4.2029603,15.422741 2.8568627,20.876716 0.75,24.1875 l 2.5,1.625 c 2.559804,-4.022549 3.8555239,-9.568574 5.625,-14 C 9.7597381,9.5967869 10.757466,7.6687935 11.90625,6.40625 13.055034,5.1437065 14.248763,4.5 16,4.5 c 1.751237,0 2.944966,0.6437066 4.09375,1.90625 1.148784,1.2625434 2.146512,3.1905369 3.03125,5.40625 1.769476,4.431426 3.065196,9.977451 5.625,14 l 2.5,-1.625 C 29.143137,20.876716 27.79704,15.422741 25.90625,10.6875 24.960855,8.3198797 23.87445,6.1228733 22.3125,4.40625 20.75055,2.6896267 18.594898,1.5 16,1.5 z m 0,22 c -5.402849,0 -10.0037344,2.804639 -14.40625,4.0625 l 0.8125,2.875 C 7.3370678,29.028695 11.696035,26.5 16,26.5 c 4.303965,0 8.662932,2.528695 13.59375,3.9375 l 0.8125,-2.875 C 26.003734,26.304639 21.402849,23.5 16,23.5 z" /></svg>