<?xml version="1.0" encoding="UTF-8" standalone="no"?>
<!-- Created with Inkscape (http://www.inkscape.org/) -->

<svg
   xmlns:dc="http://purl.org/dc/elements/1.1/"
   xmlns:cc="http://creativecommons.org/ns#"
   xmlns:rdf="http://www.w3.org/1999/02/22-rdf-syntax-ns#"
   xmlns:svg="http://www.w3.org/2000/svg"
   xmlns="http://www.w3.org/2000/svg"
   xmlns:sodipodi="http://sodipodi.sourceforge.net/DTD/sodipodi-0.dtd"
   xmlns:inkscape="http://www.inkscape.org/namespaces/inkscape"
   width="32"
   height="32"
   version="1.1"
   id="svg8"
   inkscape:version="0.92.1 r15371"
   sodipodi:docname="icon_freesoundInfo3.svg"
   inkscape:export-filename="/home/hhrutz/Downloads/foo.png"
   inkscape:export-xdpi="72.000008"
   inkscape:export-ydpi="72.000008">
  <defs
     id="defs2" />
  <sodipodi:namedview
     id="base"
     pagecolor="#ffffff"
     bordercolor="#666666"
     borderopacity="1.0"
     inkscape:pageopacity="0.0"
     inkscape:pageshadow="2"
     inkscape:zoom="22.4"
     inkscape:cx="17.295226"
     inkscape:cy="14.621967"
     inkscape:document-units="px"
     inkscape:current-layer="svg8"
     showgrid="false"
     units="px"
     inkscape:snap-nodes="false"
     inkscape:window-width="1920"
     inkscape:window-height="1016"
     inkscape:window-x="0"
     inkscape:window-y="27"
     inkscape:window-maximized="1" />
  <metadata
     id="metadata5">
    <rdf:RDF>
      <cc:Work
         rdf:about="">
        <dc:format>image/svg+xml</dc:format>
        <dc:type
           rdf:resource="http://purl.org/dc/dcmitype/StillImage" />
        <dc:title></dc:title>
      </cc:Work>
    </rdf:RDF>
  </metadata>
  <path
     style="color:#000000;font-style:normal;font-variant:normal;font-weight:normal;font-stretch:normal;font-size:medium;line-height:normal;font-family:sans-serif;font-variant-ligatures:normal;font-variant-position:normal;font-variant-caps:normal;font-variant-numeric:normal;font-variant-alternates:normal;font-feature-settings:normal;text-indent:0;text-align:start;text-decoration:none;text-decoration-line:none;text-decoration-style:solid;text-decoration-color:#000000;letter-spacing:normal;word-spacing:normal;text-transform:none;writing-mode:lr-tb;direction:ltr;text-orientation:mixed;dominant-baseline:auto;baseline-shift:baseline;text-anchor:start;white-space:normal;shape-padding:0;clip-rule:nonzero;display:inline;overflow:visible;visibility:visible;opacity:1;isolation:auto;mix-blend-mode:normal;color-interpolation:sRGB;color-interpolation-filters:linearRGB;solid-color:#000000;solid-opacity:1;vector-effect:none;fill:#000000;fill-opacity:1;fill-rule:nonzero;stroke:none;stroke-width:0.26458332px;stroke-linecap:butt;stroke-linejoin:miter;stroke-miterlimit:4;stroke-dasharray:none;stroke-dashoffset:0;stroke-opacity:1;color-rendering:auto;image-rendering:auto;shape-rendering:auto;text-rendering:auto;enable-background:accumulate"
     d="m 15.052734,1.0722656 c -2.245496,0.089286 -3.5,1.5670035 -3.5,3.5 0,1.9329965 1.567544,3.5456855 3.5,3.5 1.888354,-0.044643 3.538422,-1.5673853 3.5,-3.5 -0.04464,-2.2454966 -1.568529,-3.57679957 -3.5,-3.5 z m -10.9687496,4.09375 c -0.511522,0 -1.0220679,0.3208667 -1.1347656,0.9609375 L 1.796875,12.552734 c 0,0 -0.87375965,4.088758 0.1894531,4.660157 1.2080365,0.649231 1.4394531,-1.142578 1.4394531,-1.142579 L 4.0957031,11.841797 6.7246094,28.634766 C 6.9167624,29.883302 8.669969,29.973157 8.984375,28.75 l 2.636719,-10.205078 1.40625,4.865234 c 0.294843,0.985593 1.623126,1.127351 2.117187,0.226563 l 2.767578,-5.166016 h 6.134766 V 31.259766 H 27.125 V 18.470703 h 2.367188 1.15039 V 16.152344 H 29.492188 27.125 v -2.591797 c 0,-1.06038 0.621818,-1.295148 0.876953,-1.289063 0.01012,7.3e-5 0.02313,7.3e-5 0.0332,0 h 1.035156 1.53125 V 9.1660156 h -1.53125 -0.99414 c -2.148528,-0.051937 -4.029297,1.8770574 -4.029297,4.3945314 v 2.591797 h -6.832031 c -0.419694,-5.18e-4 -0.806057,0.231332 -1.009766,0.601562 l -1.757812,3.277344 -1.785157,-6.183594 c -0.337022,-1.114023 -1.911186,-1.092306 -2.21875,0.0293 L 8.1328125,22.775391 5.2207031,6.1269531 C 5.1080047,5.4868823 4.5955064,5.1660156 4.0839844,5.1660156 Z"
     id="path4563"
     inkscape:connector-curvature="0"
     sodipodi:nodetypes="ssssssccscccccccccccccccccscccccccsccccccccs" />
</svg>
