<?xml version="1.0" encoding="UTF-8" standalone="no"?>
<!-- Created with Inkscape (http://www.inkscape.org/) -->

<svg
   xmlns:dc="http://purl.org/dc/elements/1.1/"
   xmlns:cc="http://creativecommons.org/ns#"
   xmlns:rdf="http://www.w3.org/1999/02/22-rdf-syntax-ns#"
   xmlns:svg="http://www.w3.org/2000/svg"
   xmlns="http://www.w3.org/2000/svg"
   xmlns:sodipodi="http://sodipodi.sourceforge.net/DTD/sodipodi-0.dtd"
   xmlns:inkscape="http://www.inkscape.org/namespaces/inkscape"
   width="32"
   height="32"
   id="svg2"
   version="1.1"
   inkscape:version="0.48.4 r9939"
   sodipodi:docname="icon_int.svg">
  <defs
     id="defs4" />
  <sodipodi:namedview
     id="base"
     pagecolor="#ffffff"
     bordercolor="#666666"
     borderopacity="1.0"
     inkscape:pageopacity="0.0"
     inkscape:pageshadow="2"
     inkscape:zoom="5.6"
     inkscape:cx="25.924552"
     inkscape:cy="17.221373"
     inkscape:document-units="px"
     inkscape:current-layer="layer1"
     showgrid="false"
     inkscape:window-width="537"
     inkscape:window-height="564"
     inkscape:window-x="336"
     inkscape:window-y="68"
     inkscape:window-maximized="0" />
  <metadata
     id="metadata7">
    <rdf:RDF>
      <cc:Work
         rdf:about="">
        <dc:format>image/svg+xml</dc:format>
        <dc:type
           rdf:resource="http://purl.org/dc/dcmitype/StillImage" />
        <dc:title />
      </cc:Work>
    </rdf:RDF>
  </metadata>
  <g
     inkscape:label="Layer 1"
     inkscape:groupmode="layer"
     id="layer1"
     transform="translate(0,0)">
    <g
       style="font-size:16px;font-style:normal;font-variant:normal;font-weight:normal;font-stretch:normal;line-height:125%;letter-spacing:0px;word-spacing:0px;fill:#000000;fill-opacity:1;stroke:none;font-family:TeX Gyre Heros;-inkscape-font-specification:TeX Gyre Heros"
       id="text2989"
       transform="translate(0,0)">
      <path
         d="m 26.676,6.3561 0,-2.052 -20.988,0 0.612,7.272 1.584,-0.108 -0.036,-0.684 c -0.036,-1.152 1.800004,-4.896 5.616,-4.896 l 5.94,0 c -0.504,1.404 -1.656001,3.276 -2.664,4.536 l -8.532,12.204 c -0.756,1.08 -3.708,4.248 -3.708,4.248 l 0,2.124 22.032,0 0,-8.316 -1.584,0 0,0.612 c 0,2.124 -1.836005,6.12 -6.732,6.12 l -5.904,0 14.364,-21.06 m -17.28,-0.576 c -0.827999,0.684 -1.332001,1.296 -1.908,2.052 l -0.18,-2.052 2.088,0 m 15.696,0.108 -14.652,21.528 -4.248,0 c 0.395999,-0.432 2.592,-2.844 3.312,-3.852 l 8.496,-12.168 c 1.043999,-1.476 2.268,-3.492 2.988,-5.508 l 4.104,0 m -0.036,21.636 -2.052,0 c 0.899999,-0.648 1.44,-1.224 2.052,-2.088 l 0,2.088"
         style="font-size:36px;font-family:TG Pagella Math;-inkscape-font-specification:TG Pagella Math"
         id="path2994"
         inkscape:connector-curvature="0" />
    </g>
  </g>
</svg>
