<?xml version="1.0" encoding="UTF-8" standalone="no"?>
<!-- Created with Inkscape (http://www.inkscape.org/) -->

<svg
   xmlns:dc="http://purl.org/dc/elements/1.1/"
   xmlns:cc="http://creativecommons.org/ns#"
   xmlns:rdf="http://www.w3.org/1999/02/22-rdf-syntax-ns#"
   xmlns:svg="http://www.w3.org/2000/svg"
   xmlns="http://www.w3.org/2000/svg"
   xmlns:sodipodi="http://sodipodi.sourceforge.net/DTD/sodipodi-0.dtd"
   xmlns:inkscape="http://www.inkscape.org/namespaces/inkscape"
   width="32"
   height="32"
   id="svg2"
   version="1.1"
   inkscape:version="0.48.4 r9939"
   sodipodi:docname="icon_boolean.svg">
  <defs
     id="defs4" />
  <sodipodi:namedview
     id="base"
     pagecolor="#ffffff"
     bordercolor="#666666"
     borderopacity="1.0"
     inkscape:pageopacity="0.0"
     inkscape:pageshadow="2"
     inkscape:zoom="15.839192"
     inkscape:cx="24.172336"
     inkscape:cy="16.622572"
     inkscape:document-units="px"
     inkscape:current-layer="text2985"
     showgrid="false"
     inkscape:window-width="1440"
     inkscape:window-height="834"
     inkscape:window-x="0"
     inkscape:window-y="27"
     inkscape:window-maximized="1" />
  <metadata
     id="metadata7">
    <rdf:RDF>
      <cc:Work
         rdf:about="">
        <dc:format>image/svg+xml</dc:format>
        <dc:type
           rdf:resource="http://purl.org/dc/dcmitype/StillImage" />
        <dc:title></dc:title>
      </cc:Work>
    </rdf:RDF>
  </metadata>
  <g
     inkscape:label="Layer 1"
     inkscape:groupmode="layer"
     id="layer1"
     transform="translate(0,0)">
    <g
       style="font-size:36px;font-style:normal;font-variant:normal;font-weight:normal;font-stretch:normal;line-height:125%;letter-spacing:0px;word-spacing:0px;fill:#000000;fill-opacity:1;stroke:none;font-family:TG Pagella Math;-inkscape-font-specification:TG Pagella Math"
       id="text2985">
      <path
         d="m 3.21875,4.3125 0,1.5625 L 4.6875,6 c 1.043999,0.072 1.125,0.4215 1.125,2.4375 l 0,16.4375 c 0,2.016 -0.081,2.3655 -1.125,2.4375 L 3.21875,27.40625 3.21875,29 17.75,29 c 4.751995,0 8.1875,-2.2995 8.1875,-6.1875 0,-3.024 -1.364328,-4.96841 -4.40625,-6.15625 C 24.573172,15.46841 25.9375,13.524 25.9375,10.5 25.9375,6.612 22.501995,4.3125 17.75,4.3125 z m 4,1.5625 3.09375,0 0,21.53125 -3.09375,0 c 0.144,-0.576 0.1875,-1.37925 0.1875,-2.53125 l 0,-16.4375 c 0,-1.152 -0.0435,-1.9865 -0.1875,-2.5625 z m 4.6875,0 3.4375,0 c 3.275997,0 4.3125,2.747 4.3125,5.375 0,2.038841 -1.254938,3.650214 -2.875,4.4375 l -2.53125,0.96875 2.53125,0.9375 c 1.626317,0.78489 2.875,2.424529 2.875,4.46875 0,2.628 -1.036503,5.34375 -4.3125,5.34375 l -3.4375,0 z m 7.65625,0.15625 c 2.807997,0.432 4.78125,1.94875 4.78125,4.46875 0,2.52 -1.262753,3.956 -4.71875,5 0.971999,-1.116 1.625,-2.594 1.625,-4.25 0,-1.944 -0.463501,-3.88675 -1.6875,-5.21875 z M 19.625,17.8125 c 3.455997,1.044 4.71875,2.48 4.71875,5 0,2.52 -1.973253,4.03675 -4.78125,4.46875 1.223999,-1.332 1.6875,-3.27475 1.6875,-5.21875 0,-1.656 -0.653001,-3.134 -1.625,-4.25 z"
         id="path3009"
         inkscape:connector-curvature="0"
         sodipodi:nodetypes="ccccccccsscsscccccccccsscccsscccscsccscsc" />
      <text
         xml:space="preserve"
         style="font-size:36px;font-style:normal;font-variant:normal;font-weight:normal;font-stretch:normal;line-height:125%;letter-spacing:0px;word-spacing:0px;fill:#000000;fill-opacity:1;stroke:none;font-family:TG Pagella Math;-inkscape-font-specification:TG Pagella Math"
         x="36.42857"
         y="22.178572"
         id="text2984"
         sodipodi:linespacing="125%"><tspan
           sodipodi:role="line"
           id="tspan2986"
           x="36.42857"
           y="22.178572" /></text>
    </g>
  </g>
</svg>
