<?xml version="1.0" encoding="UTF-8" standalone="no"?>
<!-- Created with Inkscape (http://www.inkscape.org/) -->

<svg
   xmlns:dc="http://purl.org/dc/elements/1.1/"
   xmlns:cc="http://creativecommons.org/ns#"
   xmlns:rdf="http://www.w3.org/1999/02/22-rdf-syntax-ns#"
   xmlns:svg="http://www.w3.org/2000/svg"
   xmlns="http://www.w3.org/2000/svg"
   xmlns:sodipodi="http://sodipodi.sourceforge.net/DTD/sodipodi-0.dtd"
   xmlns:inkscape="http://www.inkscape.org/namespaces/inkscape"
   width="32"
   height="32"
   version="1.1"
   id="svg8"
   inkscape:version="0.92.1 r15371"
   sodipodi:docname="icon_freesound3.svg"
   inkscape:export-filename="/home/hhrutz/Downloads/foo.png"
   inkscape:export-xdpi="72.000008"
   inkscape:export-ydpi="72.000008">
  <defs
     id="defs2" />
  <sodipodi:namedview
     id="base"
     pagecolor="#ffffff"
     bordercolor="#666666"
     borderopacity="1.0"
     inkscape:pageopacity="0.0"
     inkscape:pageshadow="2"
     inkscape:zoom="11.2"
     inkscape:cx="11.366072"
     inkscape:cy="12.660714"
     inkscape:document-units="px"
     inkscape:current-layer="svg8"
     showgrid="false"
     units="px"
     inkscape:snap-nodes="false"
     inkscape:window-width="1920"
     inkscape:window-height="1016"
     inkscape:window-x="0"
     inkscape:window-y="27"
     inkscape:window-maximized="1" />
  <metadata
     id="metadata5">
    <rdf:RDF>
      <cc:Work
         rdf:about="">
        <dc:format>image/svg+xml</dc:format>
        <dc:type
           rdf:resource="http://purl.org/dc/dcmitype/StillImage" />
        <dc:title></dc:title>
      </cc:Work>
    </rdf:RDF>
  </metadata>
  <path
     style="color:#000000;font-style:normal;font-variant:normal;font-weight:normal;font-stretch:normal;font-size:medium;line-height:normal;font-family:sans-serif;font-variant-ligatures:normal;font-variant-position:normal;font-variant-caps:normal;font-variant-numeric:normal;font-variant-alternates:normal;font-feature-settings:normal;text-indent:0;text-align:start;text-decoration:none;text-decoration-line:none;text-decoration-style:solid;text-decoration-color:#000000;letter-spacing:normal;word-spacing:normal;text-transform:none;writing-mode:lr-tb;direction:ltr;text-orientation:mixed;dominant-baseline:auto;baseline-shift:baseline;text-anchor:start;white-space:normal;shape-padding:0;clip-rule:nonzero;display:inline;overflow:visible;visibility:visible;opacity:1;isolation:auto;mix-blend-mode:normal;color-interpolation:sRGB;color-interpolation-filters:linearRGB;solid-color:#000000;solid-opacity:1;vector-effect:none;fill:#000000;fill-opacity:1;fill-rule:nonzero;stroke:none;stroke-width:0.26458332px;stroke-linecap:butt;stroke-linejoin:miter;stroke-miterlimit:4;stroke-dasharray:none;stroke-dashoffset:0;stroke-opacity:1;color-rendering:auto;image-rendering:auto;shape-rendering:auto;text-rendering:auto;enable-background:accumulate"
     d="m 4.0839844,1.1660156 c -0.511522,0 -1.0220678,0.3208667 -1.1347656,0.9609375 L 1.796875,8.5527344 c 0,0 -0.87375968,4.0887576 0.1894531,4.6601566 1.2080365,0.649231 1.4394531,-1.142579 1.4394531,-1.142579 L 4.0957031,7.8417969 6.7246094,24.634766 C 6.9167624,25.883302 8.669969,25.973157 8.984375,24.75 l 2.636719,-10.205078 1.40625,4.865234 c 0.294843,0.985593 1.623126,1.127351 2.117187,0.226563 l 2.767578,-5.166016 h 6.134766 v 11.648438 1.140625 H 4.875 V 23.890625 H 1.5 V 31 H 27.125 V 14.470703 h 2.367188 1.15039 V 12.152344 H 29.492188 27.125 V 9.5605469 c 0,-1.0603795 0.621818,-1.2951482 0.876953,-1.2890625 0.01012,7.28e-5 0.02313,7.28e-5 0.0332,0 h 1.035156 1.53125 V 5.1660156 h -1.53125 -0.99414 c -2.148528,-0.051937 -4.029297,1.8770576 -4.029297,4.3945313 v 2.5917971 h -6.832031 c -0.419694,-5.18e-4 -0.806057,0.231332 -1.009766,0.601562 L 14.447266,16.03125 12.662109,9.8476562 C 12.325087,8.7336333 10.750923,8.755353 10.443359,9.8769531 L 8.1328125,18.775391 5.2207031,2.1269531 C 5.1080047,1.4868823 4.5955064,1.1660156 4.0839844,1.1660156 Z"
     id="path4563"
     inkscape:connector-curvature="0"
     sodipodi:nodetypes="sccsccccccccccccccccccccccscccccccsccccccccs" />
</svg>
