<?xml version="1.0" encoding="UTF-8" standalone="no"?>
<!DOCTYPE svg PUBLIC "-//W3C//DTD SVG 1.1//EN"
 "http://www.w3.org/Graphics/SVG/1.1/DTD/svg11.dtd">
<!-- Generated by graphviz version 2.38.0 (20140413.2041)
 -->
<!-- Title: temp_2 Pages: 1 -->
<svg width="937pt" height="941pt"
 viewBox="0.00 0.00 937.00 941.00" xmlns="http://www.w3.org/2000/svg" xmlns:xlink="http://www.w3.org/1999/xlink">
<g id="graph0" class="graph" transform="scale(1 1) rotate(0) translate(4 937)">
<title>temp_2</title>
<polygon fill="white" stroke="none" points="-4,4 -4,-937 933,-937 933,4 -4,4"/>
<!-- ugen0 -->
<g id="node1" class="node"><title>ugen0</title>
<polygon fill="none" stroke="black" points="285.5,-908 285.5,-929 328.5,-929 328.5,-908 285.5,-908"/>
<text text-anchor="start" x="288.5" y="-915.8" font-family="Times,serif" font-size="14.00">freq: </text>
<text text-anchor="start" x="318.5" y="-915.8" font-family="Times,serif" font-size="14.00" fill="blue">8</text>
<polygon fill="none" stroke="black" points="328.5,-908 328.5,-929 384.5,-929 384.5,-908 328.5,-908"/>
<text text-anchor="start" x="331.5" y="-915.8" font-family="Times,serif" font-size="14.00">iphase: </text>
<text text-anchor="start" x="374.5" y="-915.8" font-family="Times,serif" font-size="14.00" fill="#707070">0</text>
<polygon fill="#c0c0ff" stroke="none" points="285.5,-884 285.5,-908 384.5,-908 384.5,-884 285.5,-884"/>
<polygon fill="none" stroke="black" points="285.5,-884 285.5,-908 384.5,-908 384.5,-884 285.5,-884"/>
<text text-anchor="start" x="310.5" y="-893.2" font-family="Times,serif" font-weight="bold" font-size="16.00">LFSaw</text>
<polygon fill="none" stroke="black" points="285.5,-863 285.5,-884 328.5,-884 328.5,-863 285.5,-863"/>
<text text-anchor="start" x="298" y="-869.8" font-family="Times,serif" font-size="14.00">out</text>
</g>
<!-- ugen1 -->
<g id="node2" class="node"><title>ugen1</title>
<polygon fill="none" stroke="black" points="294.5,-798 294.5,-819 318.5,-819 318.5,-798 294.5,-798"/>
<text text-anchor="start" x="301" y="-804.8" font-family="Times,serif" font-size="14.00">in</text>
<polygon fill="none" stroke="black" points="318.5,-798 318.5,-819 361.5,-819 361.5,-798 318.5,-798"/>
<text text-anchor="start" x="321.5" y="-805.8" font-family="Times,serif" font-size="14.00">mul: </text>
<text text-anchor="start" x="351.5" y="-805.8" font-family="Times,serif" font-size="14.00" fill="blue">3</text>
<polygon fill="none" stroke="black" points="361.5,-798 361.5,-819 409.5,-819 409.5,-798 361.5,-798"/>
<text text-anchor="start" x="364.5" y="-805.8" font-family="Times,serif" font-size="14.00">add: </text>
<text text-anchor="start" x="392.5" y="-805.8" font-family="Times,serif" font-size="14.00" fill="blue">80</text>
<polygon fill="#c0c0ff" stroke="none" points="294.5,-774 294.5,-798 409.5,-798 409.5,-774 294.5,-774"/>
<polygon fill="none" stroke="black" points="294.5,-774 294.5,-798 409.5,-798 409.5,-774 294.5,-774"/>
<text text-anchor="start" x="323" y="-783.2" font-family="Times,serif" font-weight="bold" font-size="16.00">MulAdd</text>
<polygon fill="none" stroke="black" points="294.5,-753 294.5,-774 318.5,-774 318.5,-753 294.5,-753"/>
<text text-anchor="start" x="297.5" y="-759.8" font-family="Times,serif" font-size="14.00">out</text>
</g>
<!-- ugen0&#45;&gt;ugen1 -->
<g id="edge1" class="edge"><title>ugen0:out0&#45;&gt;ugen1:in0</title>
<path fill="none" stroke="black" d="M306.5,-862C306.5,-847.271 306.5,-841.258 306.5,-830.207"/>
<polygon fill="black" stroke="black" points="310,-830 306.5,-820 303,-830 310,-830"/>
</g>
<!-- ugen5 -->
<g id="node6" class="node"><title>ugen5</title>
<polygon fill="none" stroke="black" points="219.5,-688 219.5,-709 243.5,-709 243.5,-688 219.5,-688"/>
<text text-anchor="start" x="226" y="-694.8" font-family="Times,serif" font-size="14.00">in</text>
<polygon fill="none" stroke="black" points="243.5,-688 243.5,-709 293.5,-709 293.5,-688 243.5,-688"/>
<text text-anchor="start" x="246.5" y="-695.8" font-family="Times,serif" font-size="14.00">mul: </text>
<text text-anchor="start" x="276.5" y="-695.8" font-family="Times,serif" font-size="14.00" fill="blue">24</text>
<polygon fill="none" stroke="black" points="293.5,-688 293.5,-709 319.5,-709 319.5,-688 293.5,-688"/>
<text text-anchor="start" x="296.5" y="-694.8" font-family="Times,serif" font-size="14.00">add</text>
<polygon fill="#c0c0ff" stroke="none" points="219.5,-664 219.5,-688 319.5,-688 319.5,-664 219.5,-664"/>
<polygon fill="none" stroke="black" points="219.5,-664 219.5,-688 319.5,-688 319.5,-664 219.5,-664"/>
<text text-anchor="start" x="240.5" y="-673.2" font-family="Times,serif" font-weight="bold" font-size="16.00">MulAdd</text>
<polygon fill="none" stroke="black" points="219.5,-643 219.5,-664 243.5,-664 243.5,-643 219.5,-643"/>
<text text-anchor="start" x="222.5" y="-649.8" font-family="Times,serif" font-size="14.00">out</text>
</g>
<!-- ugen1&#45;&gt;ugen5 -->
<g id="edge4" class="edge"><title>ugen1:out0&#45;&gt;ugen5:in2</title>
<path fill="none" stroke="black" d="M306.5,-752C306.5,-737.271 306.5,-731.258 306.5,-720.207"/>
<polygon fill="black" stroke="black" points="310,-720 306.5,-710 303,-720 310,-720"/>
</g>
<!-- ugen2 -->
<g id="node3" class="node"><title>ugen2</title>
<polygon fill="none" stroke="black" points="572.5,-908 572.5,-929 633.5,-929 633.5,-908 572.5,-908"/>
<text text-anchor="start" x="575.5" y="-915.8" font-family="Times,serif" font-size="14.00">freq: </text>
<text text-anchor="start" x="605.5" y="-915.8" font-family="Times,serif" font-size="14.00" fill="blue">7.23</text>
<polygon fill="none" stroke="black" points="633.5,-908 633.5,-929 689.5,-929 689.5,-908 633.5,-908"/>
<text text-anchor="start" x="636.5" y="-915.8" font-family="Times,serif" font-size="14.00">iphase: </text>
<text text-anchor="start" x="679.5" y="-915.8" font-family="Times,serif" font-size="14.00" fill="#707070">0</text>
<polygon fill="#c0c0ff" stroke="none" points="572.5,-884 572.5,-908 689.5,-908 689.5,-884 572.5,-884"/>
<polygon fill="none" stroke="black" points="572.5,-884 572.5,-908 689.5,-908 689.5,-884 572.5,-884"/>
<text text-anchor="start" x="606.5" y="-893.2" font-family="Times,serif" font-weight="bold" font-size="16.00">LFSaw</text>
<polygon fill="none" stroke="black" points="572.5,-863 572.5,-884 633.5,-884 633.5,-863 572.5,-863"/>
<text text-anchor="start" x="594" y="-869.8" font-family="Times,serif" font-size="14.00">out</text>
</g>
<!-- ugen3 -->
<g id="node4" class="node"><title>ugen3</title>
<polygon fill="none" stroke="black" points="590.5,-798 590.5,-819 614.5,-819 614.5,-798 590.5,-798"/>
<text text-anchor="start" x="597" y="-804.8" font-family="Times,serif" font-size="14.00">in</text>
<polygon fill="none" stroke="black" points="614.5,-798 614.5,-819 657.5,-819 657.5,-798 614.5,-798"/>
<text text-anchor="start" x="617.5" y="-805.8" font-family="Times,serif" font-size="14.00">mul: </text>
<text text-anchor="start" x="647.5" y="-805.8" font-family="Times,serif" font-size="14.00" fill="blue">3</text>
<polygon fill="none" stroke="black" points="657.5,-798 657.5,-819 705.5,-819 705.5,-798 657.5,-798"/>
<text text-anchor="start" x="660.5" y="-805.8" font-family="Times,serif" font-size="14.00">add: </text>
<text text-anchor="start" x="688.5" y="-805.8" font-family="Times,serif" font-size="14.00" fill="blue">80</text>
<polygon fill="#c0c0ff" stroke="none" points="590.5,-774 590.5,-798 705.5,-798 705.5,-774 590.5,-774"/>
<polygon fill="none" stroke="black" points="590.5,-774 590.5,-798 705.5,-798 705.5,-774 590.5,-774"/>
<text text-anchor="start" x="619" y="-783.2" font-family="Times,serif" font-weight="bold" font-size="16.00">MulAdd</text>
<polygon fill="none" stroke="black" points="590.5,-753 590.5,-774 614.5,-774 614.5,-753 590.5,-753"/>
<text text-anchor="start" x="593.5" y="-759.8" font-family="Times,serif" font-size="14.00">out</text>
</g>
<!-- ugen2&#45;&gt;ugen3 -->
<g id="edge2" class="edge"><title>ugen2:out0&#45;&gt;ugen3:in0</title>
<path fill="none" stroke="black" d="M602.5,-862C602.5,-847.271 602.5,-841.258 602.5,-830.207"/>
<polygon fill="black" stroke="black" points="606,-830 602.5,-820 599,-830 606,-830"/>
</g>
<!-- ugen10 -->
<g id="node11" class="node"><title>ugen10</title>
<polygon fill="none" stroke="black" points="515.5,-688 515.5,-709 539.5,-709 539.5,-688 515.5,-688"/>
<text text-anchor="start" x="522" y="-694.8" font-family="Times,serif" font-size="14.00">in</text>
<polygon fill="none" stroke="black" points="539.5,-688 539.5,-709 589.5,-709 589.5,-688 539.5,-688"/>
<text text-anchor="start" x="542.5" y="-695.8" font-family="Times,serif" font-size="14.00">mul: </text>
<text text-anchor="start" x="572.5" y="-695.8" font-family="Times,serif" font-size="14.00" fill="blue">24</text>
<polygon fill="none" stroke="black" points="589.5,-688 589.5,-709 615.5,-709 615.5,-688 589.5,-688"/>
<text text-anchor="start" x="592.5" y="-694.8" font-family="Times,serif" font-size="14.00">add</text>
<polygon fill="#c0c0ff" stroke="none" points="515.5,-664 515.5,-688 615.5,-688 615.5,-664 515.5,-664"/>
<polygon fill="none" stroke="black" points="515.5,-664 515.5,-688 615.5,-688 615.5,-664 515.5,-664"/>
<text text-anchor="start" x="536.5" y="-673.2" font-family="Times,serif" font-weight="bold" font-size="16.00">MulAdd</text>
<polygon fill="none" stroke="black" points="515.5,-643 515.5,-664 539.5,-664 539.5,-643 515.5,-643"/>
<text text-anchor="start" x="518.5" y="-649.8" font-family="Times,serif" font-size="14.00">out</text>
</g>
<!-- ugen3&#45;&gt;ugen10 -->
<g id="edge10" class="edge"><title>ugen3:out0&#45;&gt;ugen10:in2</title>
<path fill="none" stroke="black" d="M602.5,-752C602.5,-737.271 602.5,-731.258 602.5,-720.207"/>
<polygon fill="black" stroke="black" points="606,-720 602.5,-710 599,-720 606,-720"/>
</g>
<!-- ugen4 -->
<g id="node5" class="node"><title>ugen4</title>
<polygon fill="none" stroke="black" points="444.5,-798 444.5,-819 498.5,-819 498.5,-798 444.5,-798"/>
<text text-anchor="start" x="447.5" y="-805.8" font-family="Times,serif" font-size="14.00">freq: </text>
<text text-anchor="start" x="477.5" y="-805.8" font-family="Times,serif" font-size="14.00" fill="blue">0.4</text>
<polygon fill="none" stroke="black" points="498.5,-798 498.5,-819 554.5,-819 554.5,-798 498.5,-798"/>
<text text-anchor="start" x="501.5" y="-805.8" font-family="Times,serif" font-size="14.00">iphase: </text>
<text text-anchor="start" x="544.5" y="-805.8" font-family="Times,serif" font-size="14.00" fill="#707070">0</text>
<polygon fill="#c0c0ff" stroke="none" points="444.5,-774 444.5,-798 554.5,-798 554.5,-774 444.5,-774"/>
<polygon fill="none" stroke="black" points="444.5,-774 444.5,-798 554.5,-798 554.5,-774 444.5,-774"/>
<text text-anchor="start" x="475" y="-783.2" font-family="Times,serif" font-weight="bold" font-size="16.00">LFSaw</text>
<polygon fill="none" stroke="black" points="444.5,-753 444.5,-774 498.5,-774 498.5,-753 444.5,-753"/>
<text text-anchor="start" x="462.5" y="-759.8" font-family="Times,serif" font-size="14.00">out</text>
</g>
<!-- ugen4&#45;&gt;ugen5 -->
<g id="edge3" class="edge"><title>ugen4:out0&#45;&gt;ugen5:in0</title>
<path fill="none" stroke="black" d="M443.5,-763C433.365,-763 434.713,-753.222 425.5,-749 388.96,-732.254 257.131,-750.277 234.742,-719.916"/>
<polygon fill="black" stroke="black" points="237.935,-718.417 231.5,-710 231.281,-720.593 237.935,-718.417"/>
</g>
<!-- ugen4&#45;&gt;ugen10 -->
<g id="edge9" class="edge"><title>ugen4:out0&#45;&gt;ugen10:in0</title>
<path fill="none" stroke="black" d="M471.5,-752C471.5,-725.021 513.613,-736.645 524.799,-719.92"/>
<polygon fill="black" stroke="black" points="528.25,-720.568 527.5,-710 521.496,-718.729 528.25,-720.568"/>
</g>
<!-- ugen6 -->
<g id="node7" class="node"><title>ugen6</title>
<polygon fill="none" stroke="black" points="199.5,-578 199.5,-599 259.5,-599 259.5,-578 199.5,-578"/>
<text text-anchor="start" x="224" y="-584.8" font-family="Times,serif" font-size="14.00">in</text>
<polygon fill="#c0c0ff" stroke="none" points="199.5,-554 199.5,-578 259.5,-578 259.5,-554 199.5,-554"/>
<polygon fill="none" stroke="black" points="199.5,-554 199.5,-578 259.5,-578 259.5,-554 199.5,-554"/>
<text text-anchor="start" x="202.5" y="-563.2" font-family="Times,serif" font-weight="bold" font-size="16.00">midicps</text>
<polygon fill="none" stroke="black" points="199.5,-533 199.5,-554 259.5,-554 259.5,-533 199.5,-533"/>
<text text-anchor="start" x="220.5" y="-539.8" font-family="Times,serif" font-size="14.00">out</text>
</g>
<!-- ugen5&#45;&gt;ugen6 -->
<g id="edge5" class="edge"><title>ugen5:out0&#45;&gt;ugen6:in0</title>
<path fill="none" stroke="black" d="M231.5,-642C231.5,-627.254 230.255,-621.264 229.729,-610.213"/>
<polygon fill="black" stroke="black" points="233.224,-609.919 229.5,-600 226.226,-610.076 233.224,-609.919"/>
</g>
<!-- ugen7 -->
<g id="node8" class="node"><title>ugen7</title>
<polygon fill="none" stroke="black" points="196.5,-468 196.5,-489 224.5,-489 224.5,-468 196.5,-468"/>
<text text-anchor="start" x="199.5" y="-474.8" font-family="Times,serif" font-size="14.00">freq</text>
<polygon fill="none" stroke="black" points="224.5,-468 224.5,-489 276.5,-489 276.5,-468 224.5,-468"/>
<text text-anchor="start" x="227.5" y="-475.8" font-family="Times,serif" font-size="14.00">phase: </text>
<text text-anchor="start" x="266.5" y="-475.8" font-family="Times,serif" font-size="14.00" fill="#707070">0</text>
<polygon fill="#f0b0b0" stroke="none" points="196.5,-444 196.5,-468 276.5,-468 276.5,-444 196.5,-444"/>
<polygon fill="none" stroke="black" points="196.5,-444 196.5,-468 276.5,-468 276.5,-444 196.5,-444"/>
<text text-anchor="start" x="212" y="-453.2" font-family="Times,serif" font-weight="bold" font-size="16.00">SinOsc</text>
<polygon fill="none" stroke="black" points="196.5,-423 196.5,-444 224.5,-444 224.5,-423 196.5,-423"/>
<text text-anchor="start" x="201.5" y="-429.8" font-family="Times,serif" font-size="14.00">out</text>
</g>
<!-- ugen6&#45;&gt;ugen7 -->
<g id="edge6" class="edge"><title>ugen6:out0&#45;&gt;ugen7:in0</title>
<path fill="none" stroke="black" d="M229.5,-532C229.5,-515.514 217.197,-511.63 212.391,-500.067"/>
<polygon fill="black" stroke="black" points="215.786,-499.182 210.5,-490 208.907,-500.474 215.786,-499.182"/>
</g>
<!-- ugen8 -->
<g id="node9" class="node"><title>ugen8</title>
<polygon fill="none" stroke="black" points="160.5,-358 160.5,-379 184.5,-379 184.5,-358 160.5,-358"/>
<text text-anchor="start" x="169" y="-364.8" font-family="Times,serif" font-size="14.00">a</text>
<polygon fill="none" stroke="black" points="184.5,-358 184.5,-379 230.5,-379 230.5,-358 184.5,-358"/>
<text text-anchor="start" x="187.5" y="-365.8" font-family="Times,serif" font-size="14.00">b: </text>
<text text-anchor="start" x="202.5" y="-365.8" font-family="Times,serif" font-size="14.00" fill="blue">0.04</text>
<polygon fill="#f0b0b0" stroke="none" points="160.5,-334 160.5,-358 230.5,-358 230.5,-334 160.5,-334"/>
<polygon fill="none" stroke="black" points="160.5,-334 160.5,-358 230.5,-358 230.5,-334 160.5,-334"/>
<text text-anchor="start" x="191" y="-343.2" font-family="Times,serif" font-weight="bold" font-size="16.00">*</text>
<polygon fill="none" stroke="black" points="160.5,-313 160.5,-334 184.5,-334 184.5,-313 160.5,-313"/>
<text text-anchor="start" x="163.5" y="-319.8" font-family="Times,serif" font-size="14.00">out</text>
</g>
<!-- ugen7&#45;&gt;ugen8 -->
<g id="edge7" class="edge"><title>ugen7:out0&#45;&gt;ugen8:in0</title>
<path fill="none" stroke="black" d="M210.5,-422C210.5,-400.957 183.946,-403.337 175.233,-389.979"/>
<polygon fill="black" stroke="black" points="178.517,-388.72 172.5,-380 171.766,-390.569 178.517,-388.72"/>
</g>
<!-- ugen9 -->
<g id="node10" class="node"><title>ugen9</title>
<polygon fill="none" stroke="black" points="8.5,-248 8.5,-269 32.5,-269 32.5,-248 8.5,-248"/>
<text text-anchor="start" x="15" y="-254.8" font-family="Times,serif" font-size="14.00">in</text>
<polygon fill="none" stroke="black" points="32.5,-248 32.5,-269 150.5,-269 150.5,-248 32.5,-248"/>
<text text-anchor="start" x="35.5" y="-255.8" font-family="Times,serif" font-size="14.00">maxDelayTime: </text>
<text text-anchor="start" x="129.5" y="-255.8" font-family="Times,serif" font-size="14.00" fill="#707070">0.2</text>
<polygon fill="none" stroke="black" points="150.5,-248 150.5,-269 241.5,-269 241.5,-248 150.5,-248"/>
<text text-anchor="start" x="153.5" y="-255.8" font-family="Times,serif" font-size="14.00">delayTime: </text>
<text text-anchor="start" x="220.5" y="-255.8" font-family="Times,serif" font-size="14.00" fill="#707070">0.2</text>
<polygon fill="none" stroke="black" points="241.5,-248 241.5,-269 323.5,-269 323.5,-248 241.5,-248"/>
<text text-anchor="start" x="244.5" y="-255.8" font-family="Times,serif" font-size="14.00">decayTime: </text>
<text text-anchor="start" x="313.5" y="-255.8" font-family="Times,serif" font-size="14.00" fill="blue">4</text>
<polygon fill="#f0b0b0" stroke="none" points="8.5,-224 8.5,-248 323.5,-248 323.5,-224 8.5,-224"/>
<polygon fill="none" stroke="black" points="8.5,-224 8.5,-248 323.5,-248 323.5,-224 8.5,-224"/>
<text text-anchor="start" x="139" y="-233.2" font-family="Times,serif" font-weight="bold" font-size="16.00">CombN</text>
<polygon fill="none" stroke="black" points="8.5,-203 8.5,-224 32.5,-224 32.5,-203 8.5,-203"/>
<text text-anchor="start" x="11.5" y="-209.8" font-family="Times,serif" font-size="14.00">out</text>
</g>
<!-- ugen8&#45;&gt;ugen9 -->
<g id="edge8" class="edge"><title>ugen8:out0&#45;&gt;ugen9:in0</title>
<path fill="none" stroke="black" d="M172.5,-312C172.5,-245.746 36.6704,-329.852 21.814,-280.044"/>
<polygon fill="black" stroke="black" points="25.2677,-279.461 20.5,-270 18.3269,-280.37 25.2677,-279.461"/>
</g>
<!-- ugen16 -->
<g id="node17" class="node"><title>ugen16</title>
<polygon fill="none" stroke="black" points="312.5,-138 312.5,-159 336.5,-159 336.5,-138 312.5,-138"/>
<text text-anchor="start" x="321" y="-144.8" font-family="Times,serif" font-size="14.00">a</text>
<polygon fill="none" stroke="black" points="336.5,-138 336.5,-159 349.5,-159 349.5,-138 336.5,-138"/>
<text text-anchor="start" x="339.5" y="-144.8" font-family="Times,serif" font-size="14.00">b</text>
<polygon fill="#f0b0b0" stroke="none" points="312.5,-114 312.5,-138 349.5,-138 349.5,-114 312.5,-114"/>
<polygon fill="none" stroke="black" points="312.5,-114 312.5,-138 349.5,-138 349.5,-114 312.5,-114"/>
<text text-anchor="start" x="326.5" y="-123.2" font-family="Times,serif" font-weight="bold" font-size="16.00">*</text>
<polygon fill="none" stroke="black" points="312.5,-93 312.5,-114 336.5,-114 336.5,-93 312.5,-93"/>
<text text-anchor="start" x="315.5" y="-99.8" font-family="Times,serif" font-size="14.00">out</text>
</g>
<!-- ugen9&#45;&gt;ugen16 -->
<g id="edge15" class="edge"><title>ugen9:out0&#45;&gt;ugen16:in0</title>
<path fill="none" stroke="black" d="M20.5,-202C20.5,-171.446 243.611,-151.894 301.394,-149.296"/>
<polygon fill="black" stroke="black" points="301.607,-152.791 311.5,-149 301.402,-145.794 301.607,-152.791"/>
</g>
<!-- ugen11 -->
<g id="node12" class="node"><title>ugen11</title>
<polygon fill="none" stroke="black" points="502.5,-578 502.5,-599 562.5,-599 562.5,-578 502.5,-578"/>
<text text-anchor="start" x="527" y="-584.8" font-family="Times,serif" font-size="14.00">in</text>
<polygon fill="#c0c0ff" stroke="none" points="502.5,-554 502.5,-578 562.5,-578 562.5,-554 502.5,-554"/>
<polygon fill="none" stroke="black" points="502.5,-554 502.5,-578 562.5,-578 562.5,-554 502.5,-554"/>
<text text-anchor="start" x="505.5" y="-563.2" font-family="Times,serif" font-weight="bold" font-size="16.00">midicps</text>
<polygon fill="none" stroke="black" points="502.5,-533 502.5,-554 562.5,-554 562.5,-533 502.5,-533"/>
<text text-anchor="start" x="523.5" y="-539.8" font-family="Times,serif" font-size="14.00">out</text>
</g>
<!-- ugen10&#45;&gt;ugen11 -->
<g id="edge11" class="edge"><title>ugen10:out0&#45;&gt;ugen11:in0</title>
<path fill="none" stroke="black" d="M527.5,-642C527.5,-627.167 530.613,-621.297 531.926,-610.245"/>
<polygon fill="black" stroke="black" points="535.435,-610.18 532.5,-600 528.446,-609.789 535.435,-610.18"/>
</g>
<!-- ugen12 -->
<g id="node13" class="node"><title>ugen12</title>
<polygon fill="none" stroke="black" points="527.5,-468 527.5,-489 555.5,-489 555.5,-468 527.5,-468"/>
<text text-anchor="start" x="530.5" y="-474.8" font-family="Times,serif" font-size="14.00">freq</text>
<polygon fill="none" stroke="black" points="555.5,-468 555.5,-489 607.5,-489 607.5,-468 555.5,-468"/>
<text text-anchor="start" x="558.5" y="-475.8" font-family="Times,serif" font-size="14.00">phase: </text>
<text text-anchor="start" x="597.5" y="-475.8" font-family="Times,serif" font-size="14.00" fill="#707070">0</text>
<polygon fill="#f0b0b0" stroke="none" points="527.5,-444 527.5,-468 607.5,-468 607.5,-444 527.5,-444"/>
<polygon fill="none" stroke="black" points="527.5,-444 527.5,-468 607.5,-468 607.5,-444 527.5,-444"/>
<text text-anchor="start" x="543" y="-453.2" font-family="Times,serif" font-weight="bold" font-size="16.00">SinOsc</text>
<polygon fill="none" stroke="black" points="527.5,-423 527.5,-444 555.5,-444 555.5,-423 527.5,-423"/>
<text text-anchor="start" x="532.5" y="-429.8" font-family="Times,serif" font-size="14.00">out</text>
</g>
<!-- ugen11&#45;&gt;ugen12 -->
<g id="edge12" class="edge"><title>ugen11:out0&#45;&gt;ugen12:in0</title>
<path fill="none" stroke="black" d="M532.5,-532C532.5,-516.787 538.215,-511.272 540.537,-499.999"/>
<polygon fill="black" stroke="black" points="544.025,-500.29 541.5,-490 537.057,-499.618 544.025,-500.29"/>
</g>
<!-- ugen13 -->
<g id="node14" class="node"><title>ugen13</title>
<polygon fill="none" stroke="black" points="605.5,-358 605.5,-379 629.5,-379 629.5,-358 605.5,-358"/>
<text text-anchor="start" x="614" y="-364.8" font-family="Times,serif" font-size="14.00">a</text>
<polygon fill="none" stroke="black" points="629.5,-358 629.5,-379 675.5,-379 675.5,-358 629.5,-358"/>
<text text-anchor="start" x="632.5" y="-365.8" font-family="Times,serif" font-size="14.00">b: </text>
<text text-anchor="start" x="647.5" y="-365.8" font-family="Times,serif" font-size="14.00" fill="blue">0.04</text>
<polygon fill="#f0b0b0" stroke="none" points="605.5,-334 605.5,-358 675.5,-358 675.5,-334 605.5,-334"/>
<polygon fill="none" stroke="black" points="605.5,-334 605.5,-358 675.5,-358 675.5,-334 605.5,-334"/>
<text text-anchor="start" x="636" y="-343.2" font-family="Times,serif" font-weight="bold" font-size="16.00">*</text>
<polygon fill="none" stroke="black" points="605.5,-313 605.5,-334 629.5,-334 629.5,-313 605.5,-313"/>
<text text-anchor="start" x="608.5" y="-319.8" font-family="Times,serif" font-size="14.00">out</text>
</g>
<!-- ugen12&#45;&gt;ugen13 -->
<g id="edge13" class="edge"><title>ugen12:out0&#45;&gt;ugen13:in0</title>
<path fill="none" stroke="black" d="M541.5,-422C541.5,-387.478 602.314,-411.991 615.142,-389.922"/>
<polygon fill="black" stroke="black" points="618.593,-390.538 617.5,-380 611.783,-388.92 618.593,-390.538"/>
</g>
<!-- ugen14 -->
<g id="node15" class="node"><title>ugen14</title>
<polygon fill="none" stroke="black" points="606.5,-248 606.5,-269 630.5,-269 630.5,-248 606.5,-248"/>
<text text-anchor="start" x="613" y="-254.8" font-family="Times,serif" font-size="14.00">in</text>
<polygon fill="none" stroke="black" points="630.5,-248 630.5,-269 748.5,-269 748.5,-248 630.5,-248"/>
<text text-anchor="start" x="633.5" y="-255.8" font-family="Times,serif" font-size="14.00">maxDelayTime: </text>
<text text-anchor="start" x="727.5" y="-255.8" font-family="Times,serif" font-size="14.00" fill="#707070">0.2</text>
<polygon fill="none" stroke="black" points="748.5,-248 748.5,-269 839.5,-269 839.5,-248 748.5,-248"/>
<text text-anchor="start" x="751.5" y="-255.8" font-family="Times,serif" font-size="14.00">delayTime: </text>
<text text-anchor="start" x="818.5" y="-255.8" font-family="Times,serif" font-size="14.00" fill="#707070">0.2</text>
<polygon fill="none" stroke="black" points="839.5,-248 839.5,-269 921.5,-269 921.5,-248 839.5,-248"/>
<text text-anchor="start" x="842.5" y="-255.8" font-family="Times,serif" font-size="14.00">decayTime: </text>
<text text-anchor="start" x="911.5" y="-255.8" font-family="Times,serif" font-size="14.00" fill="blue">4</text>
<polygon fill="#f0b0b0" stroke="none" points="606.5,-224 606.5,-248 921.5,-248 921.5,-224 606.5,-224"/>
<polygon fill="none" stroke="black" points="606.5,-224 606.5,-248 921.5,-248 921.5,-224 606.5,-224"/>
<text text-anchor="start" x="737" y="-233.2" font-family="Times,serif" font-weight="bold" font-size="16.00">CombN</text>
<polygon fill="none" stroke="black" points="606.5,-203 606.5,-224 630.5,-224 630.5,-203 606.5,-203"/>
<text text-anchor="start" x="609.5" y="-209.8" font-family="Times,serif" font-size="14.00">out</text>
</g>
<!-- ugen13&#45;&gt;ugen14 -->
<g id="edge14" class="edge"><title>ugen13:out0&#45;&gt;ugen14:in0</title>
<path fill="none" stroke="black" d="M617.5,-312C617.5,-297.267 618.123,-291.26 618.385,-280.208"/>
<polygon fill="black" stroke="black" points="621.887,-280.039 618.5,-270 614.888,-279.96 621.887,-280.039"/>
</g>
<!-- ugen17 -->
<g id="node18" class="node"><title>ugen17</title>
<polygon fill="none" stroke="black" points="384.5,-138 384.5,-159 408.5,-159 408.5,-138 384.5,-138"/>
<text text-anchor="start" x="393" y="-144.8" font-family="Times,serif" font-size="14.00">a</text>
<polygon fill="none" stroke="black" points="408.5,-138 408.5,-159 421.5,-159 421.5,-138 408.5,-138"/>
<text text-anchor="start" x="411.5" y="-144.8" font-family="Times,serif" font-size="14.00">b</text>
<polygon fill="#f0b0b0" stroke="none" points="384.5,-114 384.5,-138 421.5,-138 421.5,-114 384.5,-114"/>
<polygon fill="none" stroke="black" points="384.5,-114 384.5,-138 421.5,-138 421.5,-114 384.5,-114"/>
<text text-anchor="start" x="398.5" y="-123.2" font-family="Times,serif" font-weight="bold" font-size="16.00">*</text>
<polygon fill="none" stroke="black" points="384.5,-93 384.5,-114 408.5,-114 408.5,-93 384.5,-93"/>
<text text-anchor="start" x="387.5" y="-99.8" font-family="Times,serif" font-size="14.00">out</text>
</g>
<!-- ugen14&#45;&gt;ugen17 -->
<g id="edge17" class="edge"><title>ugen14:out0&#45;&gt;ugen17:in0</title>
<path fill="none" stroke="black" d="M605.5,-213C595.712,-213 597.336,-203.21 588.5,-199 552.574,-181.881 421.907,-199.849 399.714,-169.814"/>
<polygon fill="black" stroke="black" points="402.939,-168.414 396.5,-160 396.286,-170.593 402.939,-168.414"/>
</g>
<!-- ugen15 -->
<g id="node16" class="node"><title>ugen15</title>
<polygon fill="none" stroke="black" points="357.5,-248 357.5,-269 401.5,-269 401.5,-248 357.5,-248"/>
<text text-anchor="start" x="360.5" y="-255.8" font-family="Times,serif" font-size="14.00">start: </text>
<text text-anchor="start" x="391.5" y="-255.8" font-family="Times,serif" font-size="14.00" fill="blue">1</text>
<polygon fill="none" stroke="black" points="401.5,-248 401.5,-269 442.5,-269 442.5,-248 401.5,-248"/>
<text text-anchor="start" x="404.5" y="-255.8" font-family="Times,serif" font-size="14.00">end: </text>
<text text-anchor="start" x="432.5" y="-255.8" font-family="Times,serif" font-size="14.00" fill="blue">0</text>
<polygon fill="none" stroke="black" points="442.5,-248 442.5,-269 488.5,-269 488.5,-248 442.5,-248"/>
<text text-anchor="start" x="445.5" y="-255.8" font-family="Times,serif" font-size="14.00">dur: </text>
<text text-anchor="start" x="471.5" y="-255.8" font-family="Times,serif" font-size="14.00" fill="blue">10</text>
<polygon fill="none" stroke="black" points="488.5,-248 488.5,-269 572.5,-269 572.5,-248 488.5,-248"/>
<text text-anchor="start" x="491.5" y="-255.8" font-family="Times,serif" font-size="14.00">doneAction: </text>
<text text-anchor="start" x="562.5" y="-255.8" font-family="Times,serif" font-size="14.00" fill="blue">2</text>
<polygon fill="#c0c0ff" stroke="none" points="357.5,-224 357.5,-248 572.5,-248 572.5,-224 357.5,-224"/>
<polygon fill="none" stroke="black" points="357.5,-224 357.5,-248 572.5,-248 572.5,-224 357.5,-224"/>
<text text-anchor="start" x="449.5" y="-233.2" font-family="Times,serif" font-weight="bold" font-size="16.00">Line</text>
<polygon fill="none" stroke="black" points="357.5,-203 357.5,-224 401.5,-224 401.5,-203 357.5,-203"/>
<text text-anchor="start" x="370.5" y="-209.8" font-family="Times,serif" font-size="14.00">out</text>
</g>
<!-- ugen15&#45;&gt;ugen16 -->
<g id="edge16" class="edge"><title>ugen15:out0&#45;&gt;ugen16:in1</title>
<path fill="none" stroke="black" d="M379.5,-202C379.5,-181.448 354.344,-183.087 346.089,-169.817"/>
<polygon fill="black" stroke="black" points="349.435,-168.777 343.5,-160 342.666,-170.562 349.435,-168.777"/>
</g>
<!-- ugen15&#45;&gt;ugen17 -->
<g id="edge18" class="edge"><title>ugen15:out0&#45;&gt;ugen17:in1</title>
<path fill="none" stroke="black" d="M379.5,-202C379.5,-181.448 404.656,-183.087 412.911,-169.817"/>
<polygon fill="black" stroke="black" points="416.334,-170.562 415.5,-160 409.565,-168.777 416.334,-170.562"/>
</g>
<!-- ugen18 -->
<g id="node19" class="node"><title>ugen18</title>
<polygon fill="none" stroke="black" points="296.5,-27.5 296.5,-48.5 336.5,-48.5 336.5,-27.5 296.5,-27.5"/>
<text text-anchor="start" x="299.5" y="-35.3" font-family="Times,serif" font-size="14.00">bus: </text>
<text text-anchor="start" x="326.5" y="-35.3" font-family="Times,serif" font-size="14.00" fill="blue">0</text>
<polygon fill="none" stroke="black" points="336.5,-27.5 336.5,-48.5 360.5,-48.5 360.5,-27.5 336.5,-27.5"/>
<text text-anchor="start" x="339.5" y="-34.3" font-family="Times,serif" font-size="14.00">in0</text>
<polygon fill="none" stroke="black" points="360.5,-27.5 360.5,-48.5 384.5,-48.5 384.5,-27.5 360.5,-27.5"/>
<text text-anchor="start" x="363.5" y="-34.3" font-family="Times,serif" font-size="14.00">in1</text>
<polygon fill="#f0b0b0" stroke="none" points="296.5,-3.5 296.5,-27.5 384.5,-27.5 384.5,-3.5 296.5,-3.5"/>
<polygon fill="none" stroke="black" points="296.5,-3.5 296.5,-27.5 384.5,-27.5 384.5,-3.5 296.5,-3.5"/>
<text text-anchor="start" x="326.5" y="-12.7" font-family="Times,serif" font-weight="bold" font-size="16.00">Out</text>
</g>
<!-- ugen16&#45;&gt;ugen18 -->
<g id="edge19" class="edge"><title>ugen16:out0&#45;&gt;ugen18:in1</title>
<path fill="none" stroke="black" d="M324.5,-92C324.5,-74.3748 340.344,-71.6544 346.285,-59.6185"/>
<polygon fill="black" stroke="black" points="349.781,-60.0171 348.5,-49.5 342.943,-58.5203 349.781,-60.0171"/>
</g>
<!-- ugen17&#45;&gt;ugen18 -->
<g id="edge20" class="edge"><title>ugen17:out0&#45;&gt;ugen18:in2</title>
<path fill="none" stroke="black" d="M396.5,-92C396.5,-74.3748 380.656,-71.6544 374.715,-59.6185"/>
<polygon fill="black" stroke="black" points="378.057,-58.5203 372.5,-49.5 371.219,-60.0171 378.057,-58.5203"/>
</g>
</g>
</svg>
